%TF.GenerationSoftware,KiCad,Pcbnew,10.0.3*%
%TF.CreationDate,2026-07-13T12:45:48-05:00*%
%TF.ProjectId,plant-hub-v1.0,706c616e-742d-4687-9562-2d76312e302e,rev?*%
%TF.SameCoordinates,Original*%
%TF.FileFunction,Soldermask,Top*%
%TF.FilePolarity,Negative*%
%FSLAX46Y46*%
G04 Gerber Fmt 4.6, Leading zero omitted, Abs format (unit mm)*
G04 Created by KiCad (PCBNEW 10.0.3) date 2026-07-13 12:45:48*
%MOMM*%
%LPD*%
G01*
G04 APERTURE LIST*
G04 Aperture macros list*
%AMRoundRect*
0 Rectangle with rounded corners*
0 $1 Rounding radius*
0 $2 $3 $4 $5 $6 $7 $8 $9 X,Y pos of 4 corners*
0 Add a 4 corners polygon primitive as box body*
4,1,4,$2,$3,$4,$5,$6,$7,$8,$9,$2,$3,0*
0 Add four circle primitives for the rounded corners*
1,1,$1+$1,$2,$3*
1,1,$1+$1,$4,$5*
1,1,$1+$1,$6,$7*
1,1,$1+$1,$8,$9*
0 Add four rect primitives between the rounded corners*
20,1,$1+$1,$2,$3,$4,$5,0*
20,1,$1+$1,$4,$5,$6,$7,0*
20,1,$1+$1,$6,$7,$8,$9,0*
20,1,$1+$1,$8,$9,$2,$3,0*%
G04 Aperture macros list end*
%ADD10RoundRect,0.250000X-0.350000X-0.450000X0.350000X-0.450000X0.350000X0.450000X-0.350000X0.450000X0*%
%ADD11R,1.700000X1.700000*%
%ADD12C,1.700000*%
%ADD13R,1.905000X2.000000*%
%ADD14O,1.905000X2.000000*%
%ADD15R,1.800000X1.800000*%
%ADD16C,1.800000*%
%ADD17RoundRect,0.250001X-0.949999X0.949999X-0.949999X-0.949999X0.949999X-0.949999X0.949999X0.949999X0*%
%ADD18C,2.400000*%
%ADD19C,0.800000*%
%ADD20C,6.400000*%
%ADD21RoundRect,0.250000X-0.337500X-0.475000X0.337500X-0.475000X0.337500X0.475000X-0.337500X0.475000X0*%
%ADD22RoundRect,0.250000X-1.050000X1.050000X-1.050000X-1.050000X1.050000X-1.050000X1.050000X1.050000X0*%
%ADD23C,2.600000*%
%ADD24RoundRect,0.250001X0.949999X0.949999X-0.949999X0.949999X-0.949999X-0.949999X0.949999X-0.949999X0*%
%ADD25R,1.050000X1.500000*%
%ADD26O,1.050000X1.500000*%
%ADD27RoundRect,0.250000X0.450000X-0.350000X0.450000X0.350000X-0.450000X0.350000X-0.450000X-0.350000X0*%
%ADD28RoundRect,0.250000X-0.550000X0.550000X-0.550000X-0.550000X0.550000X-0.550000X0.550000X0.550000X0*%
%ADD29C,1.600000*%
%ADD30RoundRect,0.250000X-0.450000X0.350000X-0.450000X-0.350000X0.450000X-0.350000X0.450000X0.350000X0*%
G04 APERTURE END LIST*
D10*
%TO.C,R2*%
X153000000Y-115000000D03*
X155000000Y-115000000D03*
%TD*%
D11*
%TO.C,J4*%
X106000000Y-140000000D03*
D12*
X106000000Y-142540000D03*
X106000000Y-145080000D03*
%TD*%
D10*
%TO.C,R3*%
X149000000Y-129000000D03*
X151000000Y-129000000D03*
%TD*%
D13*
%TO.C,Q1*%
X158000000Y-112000000D03*
D14*
X160540000Y-112000000D03*
X163080000Y-112000000D03*
%TD*%
D15*
%TO.C,D1*%
X105000000Y-114000000D03*
D16*
X107540000Y-114000000D03*
%TD*%
D17*
%TO.C,J5*%
X180500000Y-140000000D03*
D18*
X180500000Y-143500000D03*
%TD*%
D19*
%TO.C,H2*%
X178600000Y-104000000D03*
X179302944Y-102302944D03*
X179302944Y-105697056D03*
X181000000Y-101600000D03*
D20*
X181000000Y-104000000D03*
D19*
X181000000Y-106400000D03*
X182697056Y-102302944D03*
X182697056Y-105697056D03*
X183400000Y-104000000D03*
%TD*%
D10*
%TO.C,R4*%
X153000000Y-129000000D03*
X155000000Y-129000000D03*
%TD*%
D19*
%TO.C,H4*%
X178600000Y-156000000D03*
X179302944Y-154302944D03*
X179302944Y-157697056D03*
X181000000Y-153600000D03*
D20*
X181000000Y-156000000D03*
D19*
X181000000Y-158400000D03*
X182697056Y-154302944D03*
X182697056Y-157697056D03*
X183400000Y-156000000D03*
%TD*%
D11*
%TO.C,K1*%
X158000000Y-147000000D03*
D12*
X160540000Y-147000000D03*
X163080000Y-147000000D03*
X165620000Y-147000000D03*
%TD*%
D21*
%TO.C,C3*%
X148462500Y-122190000D03*
X150537500Y-122190000D03*
%TD*%
D22*
%TO.C,J1*%
X106000000Y-124000000D03*
D23*
X106000000Y-129080000D03*
%TD*%
D19*
%TO.C,H1*%
X101600000Y-104000000D03*
X102302944Y-102302944D03*
X102302944Y-105697056D03*
X104000000Y-101600000D03*
D20*
X104000000Y-104000000D03*
D19*
X104000000Y-106400000D03*
X105697056Y-102302944D03*
X105697056Y-105697056D03*
X106400000Y-104000000D03*
%TD*%
D24*
%TO.C,J3*%
X172000000Y-156000000D03*
D18*
X168500000Y-156000000D03*
%TD*%
D13*
%TO.C,Q2*%
X158000000Y-126000000D03*
D14*
X160540000Y-126000000D03*
X163080000Y-126000000D03*
%TD*%
D11*
%TO.C,U1*%
X130380000Y-117110000D03*
D12*
X130380000Y-119650000D03*
X130380000Y-122190000D03*
X130380000Y-124730000D03*
X130380000Y-127270000D03*
X130380000Y-129810000D03*
X130380000Y-132350000D03*
X130380000Y-134890000D03*
X145620000Y-117110000D03*
X145620000Y-119650000D03*
X145620000Y-122190000D03*
X145620000Y-124730000D03*
X145620000Y-127270000D03*
X145620000Y-129810000D03*
X145620000Y-132350000D03*
X145620000Y-134890000D03*
%TD*%
D25*
%TO.C,Q3*%
X146000000Y-144000000D03*
D26*
X147270000Y-144000000D03*
X148540000Y-144000000D03*
%TD*%
D10*
%TO.C,R7*%
X151500000Y-141000000D03*
X153500000Y-141000000D03*
%TD*%
D19*
%TO.C,H3*%
X101600000Y-156000000D03*
X102302944Y-154302944D03*
X102302944Y-157697056D03*
X104000000Y-153600000D03*
D20*
X104000000Y-156000000D03*
D19*
X104000000Y-158400000D03*
X105697056Y-154302944D03*
X105697056Y-157697056D03*
X106400000Y-156000000D03*
%TD*%
D17*
%TO.C,J2*%
X180500000Y-116000000D03*
D18*
X180500000Y-119500000D03*
X180500000Y-123000000D03*
%TD*%
D27*
%TO.C,R6*%
X110500000Y-119000000D03*
X110500000Y-117000000D03*
%TD*%
D28*
%TO.C,C1*%
X116000000Y-126000000D03*
D29*
X116000000Y-129500000D03*
%TD*%
D30*
%TO.C,R5*%
X150000000Y-137000000D03*
X150000000Y-139000000D03*
%TD*%
D21*
%TO.C,C2*%
X146962500Y-112500000D03*
X149037500Y-112500000D03*
%TD*%
D10*
%TO.C,R1*%
X149000000Y-115000000D03*
X151000000Y-115000000D03*
%TD*%
M02*
