%TF.GenerationSoftware,KiCad,Pcbnew,10.0.3*%
%TF.CreationDate,2026-07-13T12:45:48-05:00*%
%TF.ProjectId,plant-hub-v1.0,706c616e-742d-4687-9562-2d76312e302e,rev?*%
%TF.SameCoordinates,Original*%
%TF.FileFunction,Soldermask,Bot*%
%TF.FilePolarity,Negative*%
%FSLAX46Y46*%
G04 Gerber Fmt 4.6, Leading zero omitted, Abs format (unit mm)*
G04 Created by KiCad (PCBNEW 10.0.3) date 2026-07-13 12:45:48*
%MOMM*%
%LPD*%
G01*
G04 APERTURE LIST*
G04 Aperture macros list*
%AMRoundRect*
0 Rectangle with rounded corners*
0 $1 Rounding radius*
0 $2 $3 $4 $5 $6 $7 $8 $9 X,Y pos of 4 corners*
0 Add a 4 corners polygon primitive as box body*
4,1,4,$2,$3,$4,$5,$6,$7,$8,$9,$2,$3,0*
0 Add four circle primitives for the rounded corners*
1,1,$1+$1,$2,$3*
1,1,$1+$1,$4,$5*
1,1,$1+$1,$6,$7*
1,1,$1+$1,$8,$9*
0 Add four rect primitives between the rounded corners*
20,1,$1+$1,$2,$3,$4,$5,0*
20,1,$1+$1,$4,$5,$6,$7,0*
20,1,$1+$1,$6,$7,$8,$9,0*
20,1,$1+$1,$8,$9,$2,$3,0*%
G04 Aperture macros list end*
%ADD10R,1.700000X1.700000*%
%ADD11C,1.700000*%
%ADD12R,1.905000X2.000000*%
%ADD13O,1.905000X2.000000*%
%ADD14R,1.800000X1.800000*%
%ADD15C,1.800000*%
%ADD16RoundRect,0.250001X-0.949999X0.949999X-0.949999X-0.949999X0.949999X-0.949999X0.949999X0.949999X0*%
%ADD17C,2.400000*%
%ADD18C,0.800000*%
%ADD19C,6.400000*%
%ADD20RoundRect,0.250000X-1.050000X1.050000X-1.050000X-1.050000X1.050000X-1.050000X1.050000X1.050000X0*%
%ADD21C,2.600000*%
%ADD22RoundRect,0.250001X0.949999X0.949999X-0.949999X0.949999X-0.949999X-0.949999X0.949999X-0.949999X0*%
%ADD23R,1.050000X1.500000*%
%ADD24O,1.050000X1.500000*%
%ADD25RoundRect,0.250000X-0.550000X0.550000X-0.550000X-0.550000X0.550000X-0.550000X0.550000X0.550000X0*%
%ADD26C,1.600000*%
G04 APERTURE END LIST*
D10*
%TO.C,J4*%
X106000000Y-140000000D03*
D11*
X106000000Y-142540000D03*
X106000000Y-145080000D03*
%TD*%
D12*
%TO.C,Q1*%
X158000000Y-112000000D03*
D13*
X160540000Y-112000000D03*
X163080000Y-112000000D03*
%TD*%
D14*
%TO.C,D1*%
X105000000Y-114000000D03*
D15*
X107540000Y-114000000D03*
%TD*%
D16*
%TO.C,J5*%
X180500000Y-140000000D03*
D17*
X180500000Y-143500000D03*
%TD*%
D18*
%TO.C,H2*%
X178600000Y-104000000D03*
X179302944Y-102302944D03*
X179302944Y-105697056D03*
X181000000Y-101600000D03*
D19*
X181000000Y-104000000D03*
D18*
X181000000Y-106400000D03*
X182697056Y-102302944D03*
X182697056Y-105697056D03*
X183400000Y-104000000D03*
%TD*%
%TO.C,H4*%
X178600000Y-156000000D03*
X179302944Y-154302944D03*
X179302944Y-157697056D03*
X181000000Y-153600000D03*
D19*
X181000000Y-156000000D03*
D18*
X181000000Y-158400000D03*
X182697056Y-154302944D03*
X182697056Y-157697056D03*
X183400000Y-156000000D03*
%TD*%
D10*
%TO.C,K1*%
X158000000Y-147000000D03*
D11*
X160540000Y-147000000D03*
X163080000Y-147000000D03*
X165620000Y-147000000D03*
%TD*%
D20*
%TO.C,J1*%
X106000000Y-124000000D03*
D21*
X106000000Y-129080000D03*
%TD*%
D18*
%TO.C,H1*%
X101600000Y-104000000D03*
X102302944Y-102302944D03*
X102302944Y-105697056D03*
X104000000Y-101600000D03*
D19*
X104000000Y-104000000D03*
D18*
X104000000Y-106400000D03*
X105697056Y-102302944D03*
X105697056Y-105697056D03*
X106400000Y-104000000D03*
%TD*%
D22*
%TO.C,J3*%
X172000000Y-156000000D03*
D17*
X168500000Y-156000000D03*
%TD*%
D12*
%TO.C,Q2*%
X158000000Y-126000000D03*
D13*
X160540000Y-126000000D03*
X163080000Y-126000000D03*
%TD*%
D10*
%TO.C,U1*%
X130380000Y-117110000D03*
D11*
X130380000Y-119650000D03*
X130380000Y-122190000D03*
X130380000Y-124730000D03*
X130380000Y-127270000D03*
X130380000Y-129810000D03*
X130380000Y-132350000D03*
X130380000Y-134890000D03*
X145620000Y-117110000D03*
X145620000Y-119650000D03*
X145620000Y-122190000D03*
X145620000Y-124730000D03*
X145620000Y-127270000D03*
X145620000Y-129810000D03*
X145620000Y-132350000D03*
X145620000Y-134890000D03*
%TD*%
D23*
%TO.C,Q3*%
X146000000Y-144000000D03*
D24*
X147270000Y-144000000D03*
X148540000Y-144000000D03*
%TD*%
D18*
%TO.C,H3*%
X101600000Y-156000000D03*
X102302944Y-154302944D03*
X102302944Y-157697056D03*
X104000000Y-153600000D03*
D19*
X104000000Y-156000000D03*
D18*
X104000000Y-158400000D03*
X105697056Y-154302944D03*
X105697056Y-157697056D03*
X106400000Y-156000000D03*
%TD*%
D16*
%TO.C,J2*%
X180500000Y-116000000D03*
D17*
X180500000Y-119500000D03*
X180500000Y-123000000D03*
%TD*%
D25*
%TO.C,C1*%
X116000000Y-126000000D03*
D26*
X116000000Y-129500000D03*
%TD*%
M02*
