%TF.GenerationSoftware,KiCad,Pcbnew,10.0.3*%
%TF.CreationDate,2026-07-13T12:45:48-05:00*%
%TF.ProjectId,plant-hub-v1.0,706c616e-742d-4687-9562-2d76312e302e,rev?*%
%TF.SameCoordinates,Original*%
%TF.FileFunction,Legend,Top*%
%TF.FilePolarity,Positive*%
%FSLAX46Y46*%
G04 Gerber Fmt 4.6, Leading zero omitted, Abs format (unit mm)*
G04 Created by KiCad (PCBNEW 10.0.3) date 2026-07-13 12:45:48*
%MOMM*%
%LPD*%
G01*
G04 APERTURE LIST*
G04 Aperture macros list*
%AMRoundRect*
0 Rectangle with rounded corners*
0 $1 Rounding radius*
0 $2 $3 $4 $5 $6 $7 $8 $9 X,Y pos of 4 corners*
0 Add a 4 corners polygon primitive as box body*
4,1,4,$2,$3,$4,$5,$6,$7,$8,$9,$2,$3,0*
0 Add four circle primitives for the rounded corners*
1,1,$1+$1,$2,$3*
1,1,$1+$1,$4,$5*
1,1,$1+$1,$6,$7*
1,1,$1+$1,$8,$9*
0 Add four rect primitives between the rounded corners*
20,1,$1+$1,$2,$3,$4,$5,0*
20,1,$1+$1,$4,$5,$6,$7,0*
20,1,$1+$1,$6,$7,$8,$9,0*
20,1,$1+$1,$8,$9,$2,$3,0*%
G04 Aperture macros list end*
%ADD10C,0.120000*%
%ADD11C,0.150000*%
%ADD12RoundRect,0.250000X-0.350000X-0.450000X0.350000X-0.450000X0.350000X0.450000X-0.350000X0.450000X0*%
%ADD13R,1.700000X1.700000*%
%ADD14C,1.700000*%
%ADD15R,1.905000X2.000000*%
%ADD16O,1.905000X2.000000*%
%ADD17R,1.800000X1.800000*%
%ADD18C,1.800000*%
%ADD19RoundRect,0.250001X-0.949999X0.949999X-0.949999X-0.949999X0.949999X-0.949999X0.949999X0.949999X0*%
%ADD20C,2.400000*%
%ADD21C,0.800000*%
%ADD22C,6.400000*%
%ADD23RoundRect,0.250000X-0.337500X-0.475000X0.337500X-0.475000X0.337500X0.475000X-0.337500X0.475000X0*%
%ADD24RoundRect,0.250000X-1.050000X1.050000X-1.050000X-1.050000X1.050000X-1.050000X1.050000X1.050000X0*%
%ADD25C,2.600000*%
%ADD26RoundRect,0.250001X0.949999X0.949999X-0.949999X0.949999X-0.949999X-0.949999X0.949999X-0.949999X0*%
%ADD27R,1.050000X1.500000*%
%ADD28O,1.050000X1.500000*%
%ADD29RoundRect,0.250000X0.450000X-0.350000X0.450000X0.350000X-0.450000X0.350000X-0.450000X-0.350000X0*%
%ADD30RoundRect,0.250000X-0.550000X0.550000X-0.550000X-0.550000X0.550000X-0.550000X0.550000X0.550000X0*%
%ADD31C,1.600000*%
%ADD32RoundRect,0.250000X-0.450000X0.350000X-0.450000X-0.350000X0.450000X-0.350000X0.450000X0.350000X0*%
G04 APERTURE END LIST*
D10*
X104133333Y-116763855D02*
X104133333Y-115963855D01*
X104133333Y-115963855D02*
X104438095Y-115963855D01*
X104438095Y-115963855D02*
X104514285Y-116001950D01*
X104514285Y-116001950D02*
X104552380Y-116040045D01*
X104552380Y-116040045D02*
X104590476Y-116116236D01*
X104590476Y-116116236D02*
X104590476Y-116230521D01*
X104590476Y-116230521D02*
X104552380Y-116306712D01*
X104552380Y-116306712D02*
X104514285Y-116344807D01*
X104514285Y-116344807D02*
X104438095Y-116382902D01*
X104438095Y-116382902D02*
X104133333Y-116382902D01*
X104857142Y-115963855D02*
X105047618Y-116763855D01*
X105047618Y-116763855D02*
X105199999Y-116192426D01*
X105199999Y-116192426D02*
X105352380Y-116763855D01*
X105352380Y-116763855D02*
X105542857Y-115963855D01*
X106304762Y-116763855D02*
X106038095Y-116382902D01*
X105847619Y-116763855D02*
X105847619Y-115963855D01*
X105847619Y-115963855D02*
X106152381Y-115963855D01*
X106152381Y-115963855D02*
X106228571Y-116001950D01*
X106228571Y-116001950D02*
X106266666Y-116040045D01*
X106266666Y-116040045D02*
X106304762Y-116116236D01*
X106304762Y-116116236D02*
X106304762Y-116230521D01*
X106304762Y-116230521D02*
X106266666Y-116306712D01*
X106266666Y-116306712D02*
X106228571Y-116344807D01*
X106228571Y-116344807D02*
X106152381Y-116382902D01*
X106152381Y-116382902D02*
X105847619Y-116382902D01*
X108009523Y-139563855D02*
X108504761Y-139563855D01*
X108504761Y-139563855D02*
X108238095Y-139868617D01*
X108238095Y-139868617D02*
X108352380Y-139868617D01*
X108352380Y-139868617D02*
X108428571Y-139906712D01*
X108428571Y-139906712D02*
X108466666Y-139944807D01*
X108466666Y-139944807D02*
X108504761Y-140020998D01*
X108504761Y-140020998D02*
X108504761Y-140211474D01*
X108504761Y-140211474D02*
X108466666Y-140287664D01*
X108466666Y-140287664D02*
X108428571Y-140325760D01*
X108428571Y-140325760D02*
X108352380Y-140363855D01*
X108352380Y-140363855D02*
X108123809Y-140363855D01*
X108123809Y-140363855D02*
X108047618Y-140325760D01*
X108047618Y-140325760D02*
X108009523Y-140287664D01*
X108733333Y-139563855D02*
X109000000Y-140363855D01*
X109000000Y-140363855D02*
X109266666Y-139563855D01*
X109457142Y-139563855D02*
X109952380Y-139563855D01*
X109952380Y-139563855D02*
X109685714Y-139868617D01*
X109685714Y-139868617D02*
X109799999Y-139868617D01*
X109799999Y-139868617D02*
X109876190Y-139906712D01*
X109876190Y-139906712D02*
X109914285Y-139944807D01*
X109914285Y-139944807D02*
X109952380Y-140020998D01*
X109952380Y-140020998D02*
X109952380Y-140211474D01*
X109952380Y-140211474D02*
X109914285Y-140287664D01*
X109914285Y-140287664D02*
X109876190Y-140325760D01*
X109876190Y-140325760D02*
X109799999Y-140363855D01*
X109799999Y-140363855D02*
X109571428Y-140363855D01*
X109571428Y-140363855D02*
X109495237Y-140325760D01*
X109495237Y-140325760D02*
X109457142Y-140287664D01*
X108390476Y-142141950D02*
X108314286Y-142103855D01*
X108314286Y-142103855D02*
X108200000Y-142103855D01*
X108200000Y-142103855D02*
X108085714Y-142141950D01*
X108085714Y-142141950D02*
X108009524Y-142218140D01*
X108009524Y-142218140D02*
X107971429Y-142294331D01*
X107971429Y-142294331D02*
X107933333Y-142446712D01*
X107933333Y-142446712D02*
X107933333Y-142560998D01*
X107933333Y-142560998D02*
X107971429Y-142713379D01*
X107971429Y-142713379D02*
X108009524Y-142789569D01*
X108009524Y-142789569D02*
X108085714Y-142865760D01*
X108085714Y-142865760D02*
X108200000Y-142903855D01*
X108200000Y-142903855D02*
X108276191Y-142903855D01*
X108276191Y-142903855D02*
X108390476Y-142865760D01*
X108390476Y-142865760D02*
X108428572Y-142827664D01*
X108428572Y-142827664D02*
X108428572Y-142560998D01*
X108428572Y-142560998D02*
X108276191Y-142560998D01*
X108771429Y-142903855D02*
X108771429Y-142103855D01*
X108771429Y-142103855D02*
X109228572Y-142903855D01*
X109228572Y-142903855D02*
X109228572Y-142103855D01*
X109609524Y-142903855D02*
X109609524Y-142103855D01*
X109609524Y-142103855D02*
X109800000Y-142103855D01*
X109800000Y-142103855D02*
X109914286Y-142141950D01*
X109914286Y-142141950D02*
X109990476Y-142218140D01*
X109990476Y-142218140D02*
X110028571Y-142294331D01*
X110028571Y-142294331D02*
X110066667Y-142446712D01*
X110066667Y-142446712D02*
X110066667Y-142560998D01*
X110066667Y-142560998D02*
X110028571Y-142713379D01*
X110028571Y-142713379D02*
X109990476Y-142789569D01*
X109990476Y-142789569D02*
X109914286Y-142865760D01*
X109914286Y-142865760D02*
X109800000Y-142903855D01*
X109800000Y-142903855D02*
X109609524Y-142903855D01*
X108180952Y-145405759D02*
X108295238Y-145443854D01*
X108295238Y-145443854D02*
X108485714Y-145443854D01*
X108485714Y-145443854D02*
X108561905Y-145405759D01*
X108561905Y-145405759D02*
X108600000Y-145367663D01*
X108600000Y-145367663D02*
X108638095Y-145291473D01*
X108638095Y-145291473D02*
X108638095Y-145215282D01*
X108638095Y-145215282D02*
X108600000Y-145139092D01*
X108600000Y-145139092D02*
X108561905Y-145100997D01*
X108561905Y-145100997D02*
X108485714Y-145062901D01*
X108485714Y-145062901D02*
X108333333Y-145024806D01*
X108333333Y-145024806D02*
X108257143Y-144986711D01*
X108257143Y-144986711D02*
X108219048Y-144948616D01*
X108219048Y-144948616D02*
X108180952Y-144872425D01*
X108180952Y-144872425D02*
X108180952Y-144796235D01*
X108180952Y-144796235D02*
X108219048Y-144720044D01*
X108219048Y-144720044D02*
X108257143Y-144681949D01*
X108257143Y-144681949D02*
X108333333Y-144643854D01*
X108333333Y-144643854D02*
X108523810Y-144643854D01*
X108523810Y-144643854D02*
X108638095Y-144681949D01*
X108980953Y-145443854D02*
X108980953Y-144643854D01*
X109780952Y-144681949D02*
X109704762Y-144643854D01*
X109704762Y-144643854D02*
X109590476Y-144643854D01*
X109590476Y-144643854D02*
X109476190Y-144681949D01*
X109476190Y-144681949D02*
X109400000Y-144758139D01*
X109400000Y-144758139D02*
X109361905Y-144834330D01*
X109361905Y-144834330D02*
X109323809Y-144986711D01*
X109323809Y-144986711D02*
X109323809Y-145100997D01*
X109323809Y-145100997D02*
X109361905Y-145253378D01*
X109361905Y-145253378D02*
X109400000Y-145329568D01*
X109400000Y-145329568D02*
X109476190Y-145405759D01*
X109476190Y-145405759D02*
X109590476Y-145443854D01*
X109590476Y-145443854D02*
X109666667Y-145443854D01*
X109666667Y-145443854D02*
X109780952Y-145405759D01*
X109780952Y-145405759D02*
X109819048Y-145367663D01*
X109819048Y-145367663D02*
X109819048Y-145100997D01*
X109819048Y-145100997D02*
X109666667Y-145100997D01*
X157733333Y-149163855D02*
X158000000Y-149963855D01*
X158000000Y-149963855D02*
X158266666Y-149163855D01*
X160749523Y-149201950D02*
X160673333Y-149163855D01*
X160673333Y-149163855D02*
X160559047Y-149163855D01*
X160559047Y-149163855D02*
X160444761Y-149201950D01*
X160444761Y-149201950D02*
X160368571Y-149278140D01*
X160368571Y-149278140D02*
X160330476Y-149354331D01*
X160330476Y-149354331D02*
X160292380Y-149506712D01*
X160292380Y-149506712D02*
X160292380Y-149620998D01*
X160292380Y-149620998D02*
X160330476Y-149773379D01*
X160330476Y-149773379D02*
X160368571Y-149849569D01*
X160368571Y-149849569D02*
X160444761Y-149925760D01*
X160444761Y-149925760D02*
X160559047Y-149963855D01*
X160559047Y-149963855D02*
X160635238Y-149963855D01*
X160635238Y-149963855D02*
X160749523Y-149925760D01*
X160749523Y-149925760D02*
X160787619Y-149887664D01*
X160787619Y-149887664D02*
X160787619Y-149620998D01*
X160787619Y-149620998D02*
X160635238Y-149620998D01*
X162660952Y-149963855D02*
X162660952Y-149163855D01*
X163041904Y-149963855D02*
X163041904Y-149163855D01*
X163041904Y-149163855D02*
X163499047Y-149963855D01*
X163499047Y-149963855D02*
X163499047Y-149163855D01*
X165315238Y-149659093D02*
X165924762Y-149659093D01*
X113000000Y-121710117D02*
X112571428Y-121710117D01*
X112571428Y-121710117D02*
X112528571Y-122138688D01*
X112528571Y-122138688D02*
X112571428Y-122095831D01*
X112571428Y-122095831D02*
X112657143Y-122052974D01*
X112657143Y-122052974D02*
X112871428Y-122052974D01*
X112871428Y-122052974D02*
X112957143Y-122095831D01*
X112957143Y-122095831D02*
X113000000Y-122138688D01*
X113000000Y-122138688D02*
X113042857Y-122224402D01*
X113042857Y-122224402D02*
X113042857Y-122438688D01*
X113042857Y-122438688D02*
X113000000Y-122524402D01*
X113000000Y-122524402D02*
X112957143Y-122567260D01*
X112957143Y-122567260D02*
X112871428Y-122610117D01*
X112871428Y-122610117D02*
X112657143Y-122610117D01*
X112657143Y-122610117D02*
X112571428Y-122567260D01*
X112571428Y-122567260D02*
X112528571Y-122524402D01*
X113300000Y-121710117D02*
X113600000Y-122610117D01*
X113600000Y-122610117D02*
X113900000Y-121710117D01*
X114885714Y-122610117D02*
X114885714Y-121710117D01*
X115314285Y-122610117D02*
X115314285Y-121710117D01*
X115314285Y-121710117D02*
X115828571Y-122610117D01*
X115828571Y-122610117D02*
X115828571Y-121710117D01*
X157514286Y-143810117D02*
X157214286Y-143381545D01*
X157000000Y-143810117D02*
X157000000Y-142910117D01*
X157000000Y-142910117D02*
X157342857Y-142910117D01*
X157342857Y-142910117D02*
X157428572Y-142952974D01*
X157428572Y-142952974D02*
X157471429Y-142995831D01*
X157471429Y-142995831D02*
X157514286Y-143081545D01*
X157514286Y-143081545D02*
X157514286Y-143210117D01*
X157514286Y-143210117D02*
X157471429Y-143295831D01*
X157471429Y-143295831D02*
X157428572Y-143338688D01*
X157428572Y-143338688D02*
X157342857Y-143381545D01*
X157342857Y-143381545D02*
X157000000Y-143381545D01*
X157900000Y-143338688D02*
X158200000Y-143338688D01*
X158328572Y-143810117D02*
X157900000Y-143810117D01*
X157900000Y-143810117D02*
X157900000Y-142910117D01*
X157900000Y-142910117D02*
X158328572Y-142910117D01*
X159142858Y-143810117D02*
X158714286Y-143810117D01*
X158714286Y-143810117D02*
X158714286Y-142910117D01*
X159400000Y-143552974D02*
X159828572Y-143552974D01*
X159314286Y-143810117D02*
X159614286Y-142910117D01*
X159614286Y-142910117D02*
X159914286Y-143810117D01*
X160385715Y-143381545D02*
X160385715Y-143810117D01*
X160085715Y-142910117D02*
X160385715Y-143381545D01*
X160385715Y-143381545D02*
X160685715Y-142910117D01*
X161671429Y-143810117D02*
X161671429Y-142910117D01*
X161671429Y-142910117D02*
X161971429Y-143552974D01*
X161971429Y-143552974D02*
X162271429Y-142910117D01*
X162271429Y-142910117D02*
X162271429Y-143810117D01*
X162871429Y-142910117D02*
X163042857Y-142910117D01*
X163042857Y-142910117D02*
X163128572Y-142952974D01*
X163128572Y-142952974D02*
X163214286Y-143038688D01*
X163214286Y-143038688D02*
X163257143Y-143210117D01*
X163257143Y-143210117D02*
X163257143Y-143510117D01*
X163257143Y-143510117D02*
X163214286Y-143681545D01*
X163214286Y-143681545D02*
X163128572Y-143767260D01*
X163128572Y-143767260D02*
X163042857Y-143810117D01*
X163042857Y-143810117D02*
X162871429Y-143810117D01*
X162871429Y-143810117D02*
X162785715Y-143767260D01*
X162785715Y-143767260D02*
X162700000Y-143681545D01*
X162700000Y-143681545D02*
X162657143Y-143510117D01*
X162657143Y-143510117D02*
X162657143Y-143210117D01*
X162657143Y-143210117D02*
X162700000Y-143038688D01*
X162700000Y-143038688D02*
X162785715Y-142952974D01*
X162785715Y-142952974D02*
X162871429Y-142910117D01*
X163642857Y-143810117D02*
X163642857Y-142910117D01*
X163642857Y-142910117D02*
X163857143Y-142910117D01*
X163857143Y-142910117D02*
X163985714Y-142952974D01*
X163985714Y-142952974D02*
X164071429Y-143038688D01*
X164071429Y-143038688D02*
X164114286Y-143124402D01*
X164114286Y-143124402D02*
X164157143Y-143295831D01*
X164157143Y-143295831D02*
X164157143Y-143424402D01*
X164157143Y-143424402D02*
X164114286Y-143595831D01*
X164114286Y-143595831D02*
X164071429Y-143681545D01*
X164071429Y-143681545D02*
X163985714Y-143767260D01*
X163985714Y-143767260D02*
X163857143Y-143810117D01*
X163857143Y-143810117D02*
X163642857Y-143810117D01*
X164542857Y-142910117D02*
X164542857Y-143638688D01*
X164542857Y-143638688D02*
X164585714Y-143724402D01*
X164585714Y-143724402D02*
X164628572Y-143767260D01*
X164628572Y-143767260D02*
X164714286Y-143810117D01*
X164714286Y-143810117D02*
X164885714Y-143810117D01*
X164885714Y-143810117D02*
X164971429Y-143767260D01*
X164971429Y-143767260D02*
X165014286Y-143724402D01*
X165014286Y-143724402D02*
X165057143Y-143638688D01*
X165057143Y-143638688D02*
X165057143Y-142910117D01*
X165914286Y-143810117D02*
X165485714Y-143810117D01*
X165485714Y-143810117D02*
X165485714Y-142910117D01*
X166214285Y-143338688D02*
X166514285Y-143338688D01*
X166642857Y-143810117D02*
X166214285Y-143810117D01*
X166214285Y-143810117D02*
X166214285Y-142910117D01*
X166214285Y-142910117D02*
X166642857Y-142910117D01*
X168157142Y-154667260D02*
X168842857Y-154667260D01*
X168528571Y-154010117D02*
X168528571Y-153110117D01*
X168528571Y-153110117D02*
X168871428Y-153110117D01*
X168871428Y-153110117D02*
X168957143Y-153152974D01*
X168957143Y-153152974D02*
X169000000Y-153195831D01*
X169000000Y-153195831D02*
X169042857Y-153281545D01*
X169042857Y-153281545D02*
X169042857Y-153410117D01*
X169042857Y-153410117D02*
X169000000Y-153495831D01*
X169000000Y-153495831D02*
X168957143Y-153538688D01*
X168957143Y-153538688D02*
X168871428Y-153581545D01*
X168871428Y-153581545D02*
X168528571Y-153581545D01*
X169428571Y-153110117D02*
X169428571Y-153838688D01*
X169428571Y-153838688D02*
X169471428Y-153924402D01*
X169471428Y-153924402D02*
X169514286Y-153967260D01*
X169514286Y-153967260D02*
X169600000Y-154010117D01*
X169600000Y-154010117D02*
X169771428Y-154010117D01*
X169771428Y-154010117D02*
X169857143Y-153967260D01*
X169857143Y-153967260D02*
X169900000Y-153924402D01*
X169900000Y-153924402D02*
X169942857Y-153838688D01*
X169942857Y-153838688D02*
X169942857Y-153110117D01*
X170371428Y-154010117D02*
X170371428Y-153110117D01*
X170371428Y-153110117D02*
X170671428Y-153752974D01*
X170671428Y-153752974D02*
X170971428Y-153110117D01*
X170971428Y-153110117D02*
X170971428Y-154010117D01*
X171399999Y-154010117D02*
X171399999Y-153110117D01*
X171399999Y-153110117D02*
X171742856Y-153110117D01*
X171742856Y-153110117D02*
X171828571Y-153152974D01*
X171828571Y-153152974D02*
X171871428Y-153195831D01*
X171871428Y-153195831D02*
X171914285Y-153281545D01*
X171914285Y-153281545D02*
X171914285Y-153410117D01*
X171914285Y-153410117D02*
X171871428Y-153495831D01*
X171871428Y-153495831D02*
X171828571Y-153538688D01*
X171828571Y-153538688D02*
X171742856Y-153581545D01*
X171742856Y-153581545D02*
X171399999Y-153581545D01*
X171657142Y-154667260D02*
X172342857Y-154667260D01*
X171999999Y-155010117D02*
X171999999Y-154324402D01*
X176492857Y-140324402D02*
X176450000Y-140367260D01*
X176450000Y-140367260D02*
X176321428Y-140410117D01*
X176321428Y-140410117D02*
X176235714Y-140410117D01*
X176235714Y-140410117D02*
X176107143Y-140367260D01*
X176107143Y-140367260D02*
X176021428Y-140281545D01*
X176021428Y-140281545D02*
X175978571Y-140195831D01*
X175978571Y-140195831D02*
X175935714Y-140024402D01*
X175935714Y-140024402D02*
X175935714Y-139895831D01*
X175935714Y-139895831D02*
X175978571Y-139724402D01*
X175978571Y-139724402D02*
X176021428Y-139638688D01*
X176021428Y-139638688D02*
X176107143Y-139552974D01*
X176107143Y-139552974D02*
X176235714Y-139510117D01*
X176235714Y-139510117D02*
X176321428Y-139510117D01*
X176321428Y-139510117D02*
X176450000Y-139552974D01*
X176450000Y-139552974D02*
X176492857Y-139595831D01*
X177050000Y-139510117D02*
X177221428Y-139510117D01*
X177221428Y-139510117D02*
X177307143Y-139552974D01*
X177307143Y-139552974D02*
X177392857Y-139638688D01*
X177392857Y-139638688D02*
X177435714Y-139810117D01*
X177435714Y-139810117D02*
X177435714Y-140110117D01*
X177435714Y-140110117D02*
X177392857Y-140281545D01*
X177392857Y-140281545D02*
X177307143Y-140367260D01*
X177307143Y-140367260D02*
X177221428Y-140410117D01*
X177221428Y-140410117D02*
X177050000Y-140410117D01*
X177050000Y-140410117D02*
X176964286Y-140367260D01*
X176964286Y-140367260D02*
X176878571Y-140281545D01*
X176878571Y-140281545D02*
X176835714Y-140110117D01*
X176835714Y-140110117D02*
X176835714Y-139810117D01*
X176835714Y-139810117D02*
X176878571Y-139638688D01*
X176878571Y-139638688D02*
X176964286Y-139552974D01*
X176964286Y-139552974D02*
X177050000Y-139510117D01*
X177821428Y-140410117D02*
X177821428Y-139510117D01*
X177821428Y-139510117D02*
X178121428Y-140152974D01*
X178121428Y-140152974D02*
X178421428Y-139510117D01*
X178421428Y-139510117D02*
X178421428Y-140410117D01*
X176921429Y-113210117D02*
X176492857Y-113210117D01*
X176492857Y-113210117D02*
X176492857Y-112310117D01*
X177221428Y-112738688D02*
X177521428Y-112738688D01*
X177650000Y-113210117D02*
X177221428Y-113210117D01*
X177221428Y-113210117D02*
X177221428Y-112310117D01*
X177221428Y-112310117D02*
X177650000Y-112310117D01*
X178035714Y-113210117D02*
X178035714Y-112310117D01*
X178035714Y-112310117D02*
X178250000Y-112310117D01*
X178250000Y-112310117D02*
X178378571Y-112352974D01*
X178378571Y-112352974D02*
X178464286Y-112438688D01*
X178464286Y-112438688D02*
X178507143Y-112524402D01*
X178507143Y-112524402D02*
X178550000Y-112695831D01*
X178550000Y-112695831D02*
X178550000Y-112824402D01*
X178550000Y-112824402D02*
X178507143Y-112995831D01*
X178507143Y-112995831D02*
X178464286Y-113081545D01*
X178464286Y-113081545D02*
X178378571Y-113167260D01*
X178378571Y-113167260D02*
X178250000Y-113210117D01*
X178250000Y-113210117D02*
X178035714Y-113210117D01*
X176771428Y-143910117D02*
X176771428Y-143010117D01*
X176771428Y-143010117D02*
X177285714Y-143910117D01*
X177285714Y-143910117D02*
X177285714Y-143010117D01*
X177885714Y-143010117D02*
X178057142Y-143010117D01*
X178057142Y-143010117D02*
X178142857Y-143052974D01*
X178142857Y-143052974D02*
X178228571Y-143138688D01*
X178228571Y-143138688D02*
X178271428Y-143310117D01*
X178271428Y-143310117D02*
X178271428Y-143610117D01*
X178271428Y-143610117D02*
X178228571Y-143781545D01*
X178228571Y-143781545D02*
X178142857Y-143867260D01*
X178142857Y-143867260D02*
X178057142Y-143910117D01*
X178057142Y-143910117D02*
X177885714Y-143910117D01*
X177885714Y-143910117D02*
X177800000Y-143867260D01*
X177800000Y-143867260D02*
X177714285Y-143781545D01*
X177714285Y-143781545D02*
X177671428Y-143610117D01*
X177671428Y-143610117D02*
X177671428Y-143310117D01*
X177671428Y-143310117D02*
X177714285Y-143138688D01*
X177714285Y-143138688D02*
X177800000Y-143052974D01*
X177800000Y-143052974D02*
X177885714Y-143010117D01*
X176828571Y-116067260D02*
X177514286Y-116067260D01*
X177171428Y-116410117D02*
X177171428Y-115724402D01*
X178371429Y-115510117D02*
X177942857Y-115510117D01*
X177942857Y-115510117D02*
X177900000Y-115938688D01*
X177900000Y-115938688D02*
X177942857Y-115895831D01*
X177942857Y-115895831D02*
X178028572Y-115852974D01*
X178028572Y-115852974D02*
X178242857Y-115852974D01*
X178242857Y-115852974D02*
X178328572Y-115895831D01*
X178328572Y-115895831D02*
X178371429Y-115938688D01*
X178371429Y-115938688D02*
X178414286Y-116024402D01*
X178414286Y-116024402D02*
X178414286Y-116238688D01*
X178414286Y-116238688D02*
X178371429Y-116324402D01*
X178371429Y-116324402D02*
X178328572Y-116367260D01*
X178328572Y-116367260D02*
X178242857Y-116410117D01*
X178242857Y-116410117D02*
X178028572Y-116410117D01*
X178028572Y-116410117D02*
X177942857Y-116367260D01*
X177942857Y-116367260D02*
X177900000Y-116324402D01*
X177214286Y-119010117D02*
X177428572Y-119910117D01*
X177428572Y-119910117D02*
X177600000Y-119267260D01*
X177600000Y-119267260D02*
X177771429Y-119910117D01*
X177771429Y-119910117D02*
X177985715Y-119010117D01*
X177835714Y-122552974D02*
X177750000Y-122510117D01*
X177750000Y-122510117D02*
X177621428Y-122510117D01*
X177621428Y-122510117D02*
X177492857Y-122552974D01*
X177492857Y-122552974D02*
X177407142Y-122638688D01*
X177407142Y-122638688D02*
X177364285Y-122724402D01*
X177364285Y-122724402D02*
X177321428Y-122895831D01*
X177321428Y-122895831D02*
X177321428Y-123024402D01*
X177321428Y-123024402D02*
X177364285Y-123195831D01*
X177364285Y-123195831D02*
X177407142Y-123281545D01*
X177407142Y-123281545D02*
X177492857Y-123367260D01*
X177492857Y-123367260D02*
X177621428Y-123410117D01*
X177621428Y-123410117D02*
X177707142Y-123410117D01*
X177707142Y-123410117D02*
X177835714Y-123367260D01*
X177835714Y-123367260D02*
X177878571Y-123324402D01*
X177878571Y-123324402D02*
X177878571Y-123024402D01*
X177878571Y-123024402D02*
X177707142Y-123024402D01*
D11*
X121190478Y-158954819D02*
X121190478Y-157954819D01*
X121857144Y-157954819D02*
X122047620Y-157954819D01*
X122047620Y-157954819D02*
X122142858Y-158002438D01*
X122142858Y-158002438D02*
X122238096Y-158097676D01*
X122238096Y-158097676D02*
X122285715Y-158288152D01*
X122285715Y-158288152D02*
X122285715Y-158621485D01*
X122285715Y-158621485D02*
X122238096Y-158811961D01*
X122238096Y-158811961D02*
X122142858Y-158907200D01*
X122142858Y-158907200D02*
X122047620Y-158954819D01*
X122047620Y-158954819D02*
X121857144Y-158954819D01*
X121857144Y-158954819D02*
X121761906Y-158907200D01*
X121761906Y-158907200D02*
X121666668Y-158811961D01*
X121666668Y-158811961D02*
X121619049Y-158621485D01*
X121619049Y-158621485D02*
X121619049Y-158288152D01*
X121619049Y-158288152D02*
X121666668Y-158097676D01*
X121666668Y-158097676D02*
X121761906Y-158002438D01*
X121761906Y-158002438D02*
X121857144Y-157954819D01*
X123142858Y-157954819D02*
X122952382Y-157954819D01*
X122952382Y-157954819D02*
X122857144Y-158002438D01*
X122857144Y-158002438D02*
X122809525Y-158050057D01*
X122809525Y-158050057D02*
X122714287Y-158192914D01*
X122714287Y-158192914D02*
X122666668Y-158383390D01*
X122666668Y-158383390D02*
X122666668Y-158764342D01*
X122666668Y-158764342D02*
X122714287Y-158859580D01*
X122714287Y-158859580D02*
X122761906Y-158907200D01*
X122761906Y-158907200D02*
X122857144Y-158954819D01*
X122857144Y-158954819D02*
X123047620Y-158954819D01*
X123047620Y-158954819D02*
X123142858Y-158907200D01*
X123142858Y-158907200D02*
X123190477Y-158859580D01*
X123190477Y-158859580D02*
X123238096Y-158764342D01*
X123238096Y-158764342D02*
X123238096Y-158526247D01*
X123238096Y-158526247D02*
X123190477Y-158431009D01*
X123190477Y-158431009D02*
X123142858Y-158383390D01*
X123142858Y-158383390D02*
X123047620Y-158335771D01*
X123047620Y-158335771D02*
X122857144Y-158335771D01*
X122857144Y-158335771D02*
X122761906Y-158383390D01*
X122761906Y-158383390D02*
X122714287Y-158431009D01*
X122714287Y-158431009D02*
X122666668Y-158526247D01*
X123666668Y-158431009D02*
X124428573Y-158431009D01*
X124428573Y-158716723D02*
X123666668Y-158716723D01*
X124809525Y-157954819D02*
X125047620Y-158954819D01*
X125047620Y-158954819D02*
X125238096Y-158240533D01*
X125238096Y-158240533D02*
X125428572Y-158954819D01*
X125428572Y-158954819D02*
X125666668Y-157954819D01*
X126047620Y-158954819D02*
X126047620Y-157954819D01*
X126047620Y-158431009D02*
X126619048Y-158431009D01*
X126619048Y-158954819D02*
X126619048Y-157954819D01*
X127095239Y-158954819D02*
X127095239Y-157954819D01*
X127428572Y-157954819D02*
X128000000Y-157954819D01*
X127714286Y-158954819D02*
X127714286Y-157954819D01*
X128333334Y-158431009D02*
X128666667Y-158431009D01*
X128809524Y-158954819D02*
X128333334Y-158954819D01*
X128333334Y-158954819D02*
X128333334Y-157954819D01*
X128333334Y-157954819D02*
X128809524Y-157954819D01*
X130000001Y-158954819D02*
X130000001Y-157954819D01*
X130666667Y-157954819D02*
X130857143Y-157954819D01*
X130857143Y-157954819D02*
X130952381Y-158002438D01*
X130952381Y-158002438D02*
X131047619Y-158097676D01*
X131047619Y-158097676D02*
X131095238Y-158288152D01*
X131095238Y-158288152D02*
X131095238Y-158621485D01*
X131095238Y-158621485D02*
X131047619Y-158811961D01*
X131047619Y-158811961D02*
X130952381Y-158907200D01*
X130952381Y-158907200D02*
X130857143Y-158954819D01*
X130857143Y-158954819D02*
X130666667Y-158954819D01*
X130666667Y-158954819D02*
X130571429Y-158907200D01*
X130571429Y-158907200D02*
X130476191Y-158811961D01*
X130476191Y-158811961D02*
X130428572Y-158621485D01*
X130428572Y-158621485D02*
X130428572Y-158288152D01*
X130428572Y-158288152D02*
X130476191Y-158097676D01*
X130476191Y-158097676D02*
X130571429Y-158002438D01*
X130571429Y-158002438D02*
X130666667Y-157954819D01*
X131428572Y-157954819D02*
X132095238Y-157954819D01*
X132095238Y-157954819D02*
X131666667Y-158954819D01*
X132476191Y-158431009D02*
X133238096Y-158431009D01*
X133238096Y-158716723D02*
X132476191Y-158716723D01*
X133714286Y-158954819D02*
X133714286Y-157954819D01*
X133714286Y-157954819D02*
X134095238Y-157954819D01*
X134095238Y-157954819D02*
X134190476Y-158002438D01*
X134190476Y-158002438D02*
X134238095Y-158050057D01*
X134238095Y-158050057D02*
X134285714Y-158145295D01*
X134285714Y-158145295D02*
X134285714Y-158288152D01*
X134285714Y-158288152D02*
X134238095Y-158383390D01*
X134238095Y-158383390D02*
X134190476Y-158431009D01*
X134190476Y-158431009D02*
X134095238Y-158478628D01*
X134095238Y-158478628D02*
X133714286Y-158478628D01*
X134714286Y-157954819D02*
X134714286Y-158764342D01*
X134714286Y-158764342D02*
X134761905Y-158859580D01*
X134761905Y-158859580D02*
X134809524Y-158907200D01*
X134809524Y-158907200D02*
X134904762Y-158954819D01*
X134904762Y-158954819D02*
X135095238Y-158954819D01*
X135095238Y-158954819D02*
X135190476Y-158907200D01*
X135190476Y-158907200D02*
X135238095Y-158859580D01*
X135238095Y-158859580D02*
X135285714Y-158764342D01*
X135285714Y-158764342D02*
X135285714Y-157954819D01*
X135761905Y-158954819D02*
X135761905Y-157954819D01*
X135761905Y-157954819D02*
X136095238Y-158669104D01*
X136095238Y-158669104D02*
X136428571Y-157954819D01*
X136428571Y-157954819D02*
X136428571Y-158954819D01*
X136904762Y-158954819D02*
X136904762Y-157954819D01*
X136904762Y-157954819D02*
X137285714Y-157954819D01*
X137285714Y-157954819D02*
X137380952Y-158002438D01*
X137380952Y-158002438D02*
X137428571Y-158050057D01*
X137428571Y-158050057D02*
X137476190Y-158145295D01*
X137476190Y-158145295D02*
X137476190Y-158288152D01*
X137476190Y-158288152D02*
X137428571Y-158383390D01*
X137428571Y-158383390D02*
X137380952Y-158431009D01*
X137380952Y-158431009D02*
X137285714Y-158478628D01*
X137285714Y-158478628D02*
X136904762Y-158478628D01*
X138666667Y-158954819D02*
X138666667Y-157954819D01*
X139333333Y-157954819D02*
X139523809Y-157954819D01*
X139523809Y-157954819D02*
X139619047Y-158002438D01*
X139619047Y-158002438D02*
X139714285Y-158097676D01*
X139714285Y-158097676D02*
X139761904Y-158288152D01*
X139761904Y-158288152D02*
X139761904Y-158621485D01*
X139761904Y-158621485D02*
X139714285Y-158811961D01*
X139714285Y-158811961D02*
X139619047Y-158907200D01*
X139619047Y-158907200D02*
X139523809Y-158954819D01*
X139523809Y-158954819D02*
X139333333Y-158954819D01*
X139333333Y-158954819D02*
X139238095Y-158907200D01*
X139238095Y-158907200D02*
X139142857Y-158811961D01*
X139142857Y-158811961D02*
X139095238Y-158621485D01*
X139095238Y-158621485D02*
X139095238Y-158288152D01*
X139095238Y-158288152D02*
X139142857Y-158097676D01*
X139142857Y-158097676D02*
X139238095Y-158002438D01*
X139238095Y-158002438D02*
X139333333Y-157954819D01*
X140714285Y-158954819D02*
X140142857Y-158954819D01*
X140428571Y-158954819D02*
X140428571Y-157954819D01*
X140428571Y-157954819D02*
X140333333Y-158097676D01*
X140333333Y-158097676D02*
X140238095Y-158192914D01*
X140238095Y-158192914D02*
X140142857Y-158240533D01*
X141333333Y-157954819D02*
X141428571Y-157954819D01*
X141428571Y-157954819D02*
X141523809Y-158002438D01*
X141523809Y-158002438D02*
X141571428Y-158050057D01*
X141571428Y-158050057D02*
X141619047Y-158145295D01*
X141619047Y-158145295D02*
X141666666Y-158335771D01*
X141666666Y-158335771D02*
X141666666Y-158573866D01*
X141666666Y-158573866D02*
X141619047Y-158764342D01*
X141619047Y-158764342D02*
X141571428Y-158859580D01*
X141571428Y-158859580D02*
X141523809Y-158907200D01*
X141523809Y-158907200D02*
X141428571Y-158954819D01*
X141428571Y-158954819D02*
X141333333Y-158954819D01*
X141333333Y-158954819D02*
X141238095Y-158907200D01*
X141238095Y-158907200D02*
X141190476Y-158859580D01*
X141190476Y-158859580D02*
X141142857Y-158764342D01*
X141142857Y-158764342D02*
X141095238Y-158573866D01*
X141095238Y-158573866D02*
X141095238Y-158335771D01*
X141095238Y-158335771D02*
X141142857Y-158145295D01*
X141142857Y-158145295D02*
X141190476Y-158050057D01*
X141190476Y-158050057D02*
X141238095Y-158002438D01*
X141238095Y-158002438D02*
X141333333Y-157954819D01*
X142095238Y-158431009D02*
X142857143Y-158431009D01*
X142857143Y-158716723D02*
X142095238Y-158716723D01*
X143857142Y-158002438D02*
X143761904Y-157954819D01*
X143761904Y-157954819D02*
X143619047Y-157954819D01*
X143619047Y-157954819D02*
X143476190Y-158002438D01*
X143476190Y-158002438D02*
X143380952Y-158097676D01*
X143380952Y-158097676D02*
X143333333Y-158192914D01*
X143333333Y-158192914D02*
X143285714Y-158383390D01*
X143285714Y-158383390D02*
X143285714Y-158526247D01*
X143285714Y-158526247D02*
X143333333Y-158716723D01*
X143333333Y-158716723D02*
X143380952Y-158811961D01*
X143380952Y-158811961D02*
X143476190Y-158907200D01*
X143476190Y-158907200D02*
X143619047Y-158954819D01*
X143619047Y-158954819D02*
X143714285Y-158954819D01*
X143714285Y-158954819D02*
X143857142Y-158907200D01*
X143857142Y-158907200D02*
X143904761Y-158859580D01*
X143904761Y-158859580D02*
X143904761Y-158526247D01*
X143904761Y-158526247D02*
X143714285Y-158526247D01*
X144904761Y-158954819D02*
X144571428Y-158478628D01*
X144333333Y-158954819D02*
X144333333Y-157954819D01*
X144333333Y-157954819D02*
X144714285Y-157954819D01*
X144714285Y-157954819D02*
X144809523Y-158002438D01*
X144809523Y-158002438D02*
X144857142Y-158050057D01*
X144857142Y-158050057D02*
X144904761Y-158145295D01*
X144904761Y-158145295D02*
X144904761Y-158288152D01*
X144904761Y-158288152D02*
X144857142Y-158383390D01*
X144857142Y-158383390D02*
X144809523Y-158431009D01*
X144809523Y-158431009D02*
X144714285Y-158478628D01*
X144714285Y-158478628D02*
X144333333Y-158478628D01*
X145523809Y-157954819D02*
X145714285Y-157954819D01*
X145714285Y-157954819D02*
X145809523Y-158002438D01*
X145809523Y-158002438D02*
X145904761Y-158097676D01*
X145904761Y-158097676D02*
X145952380Y-158288152D01*
X145952380Y-158288152D02*
X145952380Y-158621485D01*
X145952380Y-158621485D02*
X145904761Y-158811961D01*
X145904761Y-158811961D02*
X145809523Y-158907200D01*
X145809523Y-158907200D02*
X145714285Y-158954819D01*
X145714285Y-158954819D02*
X145523809Y-158954819D01*
X145523809Y-158954819D02*
X145428571Y-158907200D01*
X145428571Y-158907200D02*
X145333333Y-158811961D01*
X145333333Y-158811961D02*
X145285714Y-158621485D01*
X145285714Y-158621485D02*
X145285714Y-158288152D01*
X145285714Y-158288152D02*
X145333333Y-158097676D01*
X145333333Y-158097676D02*
X145428571Y-158002438D01*
X145428571Y-158002438D02*
X145523809Y-157954819D01*
X146285714Y-157954819D02*
X146523809Y-158954819D01*
X146523809Y-158954819D02*
X146714285Y-158240533D01*
X146714285Y-158240533D02*
X146904761Y-158954819D01*
X146904761Y-158954819D02*
X147142857Y-157954819D01*
X148285714Y-158954819D02*
X148285714Y-157954819D01*
X148952380Y-157954819D02*
X149142856Y-157954819D01*
X149142856Y-157954819D02*
X149238094Y-158002438D01*
X149238094Y-158002438D02*
X149333332Y-158097676D01*
X149333332Y-158097676D02*
X149380951Y-158288152D01*
X149380951Y-158288152D02*
X149380951Y-158621485D01*
X149380951Y-158621485D02*
X149333332Y-158811961D01*
X149333332Y-158811961D02*
X149238094Y-158907200D01*
X149238094Y-158907200D02*
X149142856Y-158954819D01*
X149142856Y-158954819D02*
X148952380Y-158954819D01*
X148952380Y-158954819D02*
X148857142Y-158907200D01*
X148857142Y-158907200D02*
X148761904Y-158811961D01*
X148761904Y-158811961D02*
X148714285Y-158621485D01*
X148714285Y-158621485D02*
X148714285Y-158288152D01*
X148714285Y-158288152D02*
X148761904Y-158097676D01*
X148761904Y-158097676D02*
X148857142Y-158002438D01*
X148857142Y-158002438D02*
X148952380Y-157954819D01*
X149999999Y-157954819D02*
X150095237Y-157954819D01*
X150095237Y-157954819D02*
X150190475Y-158002438D01*
X150190475Y-158002438D02*
X150238094Y-158050057D01*
X150238094Y-158050057D02*
X150285713Y-158145295D01*
X150285713Y-158145295D02*
X150333332Y-158335771D01*
X150333332Y-158335771D02*
X150333332Y-158573866D01*
X150333332Y-158573866D02*
X150285713Y-158764342D01*
X150285713Y-158764342D02*
X150238094Y-158859580D01*
X150238094Y-158859580D02*
X150190475Y-158907200D01*
X150190475Y-158907200D02*
X150095237Y-158954819D01*
X150095237Y-158954819D02*
X149999999Y-158954819D01*
X149999999Y-158954819D02*
X149904761Y-158907200D01*
X149904761Y-158907200D02*
X149857142Y-158859580D01*
X149857142Y-158859580D02*
X149809523Y-158764342D01*
X149809523Y-158764342D02*
X149761904Y-158573866D01*
X149761904Y-158573866D02*
X149761904Y-158335771D01*
X149761904Y-158335771D02*
X149809523Y-158145295D01*
X149809523Y-158145295D02*
X149857142Y-158050057D01*
X149857142Y-158050057D02*
X149904761Y-158002438D01*
X149904761Y-158002438D02*
X149999999Y-157954819D01*
X150761904Y-158431009D02*
X151523809Y-158431009D01*
X151523809Y-158716723D02*
X150761904Y-158716723D01*
X151952380Y-158907200D02*
X152095237Y-158954819D01*
X152095237Y-158954819D02*
X152333332Y-158954819D01*
X152333332Y-158954819D02*
X152428570Y-158907200D01*
X152428570Y-158907200D02*
X152476189Y-158859580D01*
X152476189Y-158859580D02*
X152523808Y-158764342D01*
X152523808Y-158764342D02*
X152523808Y-158669104D01*
X152523808Y-158669104D02*
X152476189Y-158573866D01*
X152476189Y-158573866D02*
X152428570Y-158526247D01*
X152428570Y-158526247D02*
X152333332Y-158478628D01*
X152333332Y-158478628D02*
X152142856Y-158431009D01*
X152142856Y-158431009D02*
X152047618Y-158383390D01*
X152047618Y-158383390D02*
X151999999Y-158335771D01*
X151999999Y-158335771D02*
X151952380Y-158240533D01*
X151952380Y-158240533D02*
X151952380Y-158145295D01*
X151952380Y-158145295D02*
X151999999Y-158050057D01*
X151999999Y-158050057D02*
X152047618Y-158002438D01*
X152047618Y-158002438D02*
X152142856Y-157954819D01*
X152142856Y-157954819D02*
X152380951Y-157954819D01*
X152380951Y-157954819D02*
X152523808Y-158002438D01*
X153142856Y-157954819D02*
X153333332Y-157954819D01*
X153333332Y-157954819D02*
X153428570Y-158002438D01*
X153428570Y-158002438D02*
X153523808Y-158097676D01*
X153523808Y-158097676D02*
X153571427Y-158288152D01*
X153571427Y-158288152D02*
X153571427Y-158621485D01*
X153571427Y-158621485D02*
X153523808Y-158811961D01*
X153523808Y-158811961D02*
X153428570Y-158907200D01*
X153428570Y-158907200D02*
X153333332Y-158954819D01*
X153333332Y-158954819D02*
X153142856Y-158954819D01*
X153142856Y-158954819D02*
X153047618Y-158907200D01*
X153047618Y-158907200D02*
X152952380Y-158811961D01*
X152952380Y-158811961D02*
X152904761Y-158621485D01*
X152904761Y-158621485D02*
X152904761Y-158288152D01*
X152904761Y-158288152D02*
X152952380Y-158097676D01*
X152952380Y-158097676D02*
X153047618Y-158002438D01*
X153047618Y-158002438D02*
X153142856Y-157954819D01*
X153999999Y-158954819D02*
X153999999Y-157954819D01*
X154952379Y-158954819D02*
X154476189Y-158954819D01*
X154476189Y-158954819D02*
X154476189Y-157954819D01*
X102342857Y-124090200D02*
X103257143Y-124090200D01*
X102800000Y-124547342D02*
X102800000Y-123633057D01*
X102342857Y-129190200D02*
X103257143Y-129190200D01*
X133678571Y-103486128D02*
X133678571Y-101986128D01*
X133678571Y-101986128D02*
X134250000Y-101986128D01*
X134250000Y-101986128D02*
X134392857Y-102057557D01*
X134392857Y-102057557D02*
X134464286Y-102128985D01*
X134464286Y-102128985D02*
X134535714Y-102271842D01*
X134535714Y-102271842D02*
X134535714Y-102486128D01*
X134535714Y-102486128D02*
X134464286Y-102628985D01*
X134464286Y-102628985D02*
X134392857Y-102700414D01*
X134392857Y-102700414D02*
X134250000Y-102771842D01*
X134250000Y-102771842D02*
X133678571Y-102771842D01*
X135892857Y-103486128D02*
X135178571Y-103486128D01*
X135178571Y-103486128D02*
X135178571Y-101986128D01*
X136321429Y-103057557D02*
X137035715Y-103057557D01*
X136178572Y-103486128D02*
X136678572Y-101986128D01*
X136678572Y-101986128D02*
X137178572Y-103486128D01*
X137678571Y-103486128D02*
X137678571Y-101986128D01*
X137678571Y-101986128D02*
X138535714Y-103486128D01*
X138535714Y-103486128D02*
X138535714Y-101986128D01*
X139035715Y-101986128D02*
X139892858Y-101986128D01*
X139464286Y-103486128D02*
X139464286Y-101986128D01*
X141535714Y-103486128D02*
X141535714Y-101986128D01*
X141535714Y-102700414D02*
X142392857Y-102700414D01*
X142392857Y-103486128D02*
X142392857Y-101986128D01*
X143107143Y-101986128D02*
X143107143Y-103200414D01*
X143107143Y-103200414D02*
X143178572Y-103343271D01*
X143178572Y-103343271D02*
X143250001Y-103414700D01*
X143250001Y-103414700D02*
X143392858Y-103486128D01*
X143392858Y-103486128D02*
X143678572Y-103486128D01*
X143678572Y-103486128D02*
X143821429Y-103414700D01*
X143821429Y-103414700D02*
X143892858Y-103343271D01*
X143892858Y-103343271D02*
X143964286Y-103200414D01*
X143964286Y-103200414D02*
X143964286Y-101986128D01*
X145178572Y-102700414D02*
X145392858Y-102771842D01*
X145392858Y-102771842D02*
X145464287Y-102843271D01*
X145464287Y-102843271D02*
X145535715Y-102986128D01*
X145535715Y-102986128D02*
X145535715Y-103200414D01*
X145535715Y-103200414D02*
X145464287Y-103343271D01*
X145464287Y-103343271D02*
X145392858Y-103414700D01*
X145392858Y-103414700D02*
X145250001Y-103486128D01*
X145250001Y-103486128D02*
X144678572Y-103486128D01*
X144678572Y-103486128D02*
X144678572Y-101986128D01*
X144678572Y-101986128D02*
X145178572Y-101986128D01*
X145178572Y-101986128D02*
X145321430Y-102057557D01*
X145321430Y-102057557D02*
X145392858Y-102128985D01*
X145392858Y-102128985D02*
X145464287Y-102271842D01*
X145464287Y-102271842D02*
X145464287Y-102414700D01*
X145464287Y-102414700D02*
X145392858Y-102557557D01*
X145392858Y-102557557D02*
X145321430Y-102628985D01*
X145321430Y-102628985D02*
X145178572Y-102700414D01*
X145178572Y-102700414D02*
X144678572Y-102700414D01*
X147178572Y-102486128D02*
X147535715Y-103486128D01*
X147535715Y-103486128D02*
X147892858Y-102486128D01*
X149250001Y-103486128D02*
X148392858Y-103486128D01*
X148821429Y-103486128D02*
X148821429Y-101986128D01*
X148821429Y-101986128D02*
X148678572Y-102200414D01*
X148678572Y-102200414D02*
X148535715Y-102343271D01*
X148535715Y-102343271D02*
X148392858Y-102414700D01*
X149892857Y-103343271D02*
X149964286Y-103414700D01*
X149964286Y-103414700D02*
X149892857Y-103486128D01*
X149892857Y-103486128D02*
X149821429Y-103414700D01*
X149821429Y-103414700D02*
X149892857Y-103343271D01*
X149892857Y-103343271D02*
X149892857Y-103486128D01*
X150892858Y-101986128D02*
X151035715Y-101986128D01*
X151035715Y-101986128D02*
X151178572Y-102057557D01*
X151178572Y-102057557D02*
X151250001Y-102128985D01*
X151250001Y-102128985D02*
X151321429Y-102271842D01*
X151321429Y-102271842D02*
X151392858Y-102557557D01*
X151392858Y-102557557D02*
X151392858Y-102914700D01*
X151392858Y-102914700D02*
X151321429Y-103200414D01*
X151321429Y-103200414D02*
X151250001Y-103343271D01*
X151250001Y-103343271D02*
X151178572Y-103414700D01*
X151178572Y-103414700D02*
X151035715Y-103486128D01*
X151035715Y-103486128D02*
X150892858Y-103486128D01*
X150892858Y-103486128D02*
X150750001Y-103414700D01*
X150750001Y-103414700D02*
X150678572Y-103343271D01*
X150678572Y-103343271D02*
X150607143Y-103200414D01*
X150607143Y-103200414D02*
X150535715Y-102914700D01*
X150535715Y-102914700D02*
X150535715Y-102557557D01*
X150535715Y-102557557D02*
X150607143Y-102271842D01*
X150607143Y-102271842D02*
X150678572Y-102128985D01*
X150678572Y-102128985D02*
X150750001Y-102057557D01*
X150750001Y-102057557D02*
X150892858Y-101986128D01*
X153833333Y-113804819D02*
X153500000Y-113328628D01*
X153261905Y-113804819D02*
X153261905Y-112804819D01*
X153261905Y-112804819D02*
X153642857Y-112804819D01*
X153642857Y-112804819D02*
X153738095Y-112852438D01*
X153738095Y-112852438D02*
X153785714Y-112900057D01*
X153785714Y-112900057D02*
X153833333Y-112995295D01*
X153833333Y-112995295D02*
X153833333Y-113138152D01*
X153833333Y-113138152D02*
X153785714Y-113233390D01*
X153785714Y-113233390D02*
X153738095Y-113281009D01*
X153738095Y-113281009D02*
X153642857Y-113328628D01*
X153642857Y-113328628D02*
X153261905Y-113328628D01*
X154214286Y-112900057D02*
X154261905Y-112852438D01*
X154261905Y-112852438D02*
X154357143Y-112804819D01*
X154357143Y-112804819D02*
X154595238Y-112804819D01*
X154595238Y-112804819D02*
X154690476Y-112852438D01*
X154690476Y-112852438D02*
X154738095Y-112900057D01*
X154738095Y-112900057D02*
X154785714Y-112995295D01*
X154785714Y-112995295D02*
X154785714Y-113090533D01*
X154785714Y-113090533D02*
X154738095Y-113233390D01*
X154738095Y-113233390D02*
X154166667Y-113804819D01*
X154166667Y-113804819D02*
X154785714Y-113804819D01*
X105666666Y-135854819D02*
X105666666Y-136569104D01*
X105666666Y-136569104D02*
X105619047Y-136711961D01*
X105619047Y-136711961D02*
X105523809Y-136807200D01*
X105523809Y-136807200D02*
X105380952Y-136854819D01*
X105380952Y-136854819D02*
X105285714Y-136854819D01*
X106571428Y-136188152D02*
X106571428Y-136854819D01*
X106333333Y-135807200D02*
X106095238Y-136521485D01*
X106095238Y-136521485D02*
X106714285Y-136521485D01*
X149833333Y-127804819D02*
X149500000Y-127328628D01*
X149261905Y-127804819D02*
X149261905Y-126804819D01*
X149261905Y-126804819D02*
X149642857Y-126804819D01*
X149642857Y-126804819D02*
X149738095Y-126852438D01*
X149738095Y-126852438D02*
X149785714Y-126900057D01*
X149785714Y-126900057D02*
X149833333Y-126995295D01*
X149833333Y-126995295D02*
X149833333Y-127138152D01*
X149833333Y-127138152D02*
X149785714Y-127233390D01*
X149785714Y-127233390D02*
X149738095Y-127281009D01*
X149738095Y-127281009D02*
X149642857Y-127328628D01*
X149642857Y-127328628D02*
X149261905Y-127328628D01*
X150166667Y-126804819D02*
X150785714Y-126804819D01*
X150785714Y-126804819D02*
X150452381Y-127185771D01*
X150452381Y-127185771D02*
X150595238Y-127185771D01*
X150595238Y-127185771D02*
X150690476Y-127233390D01*
X150690476Y-127233390D02*
X150738095Y-127281009D01*
X150738095Y-127281009D02*
X150785714Y-127376247D01*
X150785714Y-127376247D02*
X150785714Y-127614342D01*
X150785714Y-127614342D02*
X150738095Y-127709580D01*
X150738095Y-127709580D02*
X150690476Y-127757200D01*
X150690476Y-127757200D02*
X150595238Y-127804819D01*
X150595238Y-127804819D02*
X150309524Y-127804819D01*
X150309524Y-127804819D02*
X150214286Y-127757200D01*
X150214286Y-127757200D02*
X150166667Y-127709580D01*
X160444761Y-108450057D02*
X160349523Y-108402438D01*
X160349523Y-108402438D02*
X160254285Y-108307200D01*
X160254285Y-108307200D02*
X160111428Y-108164342D01*
X160111428Y-108164342D02*
X160016190Y-108116723D01*
X160016190Y-108116723D02*
X159920952Y-108116723D01*
X159968571Y-108354819D02*
X159873333Y-108307200D01*
X159873333Y-108307200D02*
X159778095Y-108211961D01*
X159778095Y-108211961D02*
X159730476Y-108021485D01*
X159730476Y-108021485D02*
X159730476Y-107688152D01*
X159730476Y-107688152D02*
X159778095Y-107497676D01*
X159778095Y-107497676D02*
X159873333Y-107402438D01*
X159873333Y-107402438D02*
X159968571Y-107354819D01*
X159968571Y-107354819D02*
X160159047Y-107354819D01*
X160159047Y-107354819D02*
X160254285Y-107402438D01*
X160254285Y-107402438D02*
X160349523Y-107497676D01*
X160349523Y-107497676D02*
X160397142Y-107688152D01*
X160397142Y-107688152D02*
X160397142Y-108021485D01*
X160397142Y-108021485D02*
X160349523Y-108211961D01*
X160349523Y-108211961D02*
X160254285Y-108307200D01*
X160254285Y-108307200D02*
X160159047Y-108354819D01*
X160159047Y-108354819D02*
X159968571Y-108354819D01*
X161349523Y-108354819D02*
X160778095Y-108354819D01*
X161063809Y-108354819D02*
X161063809Y-107354819D01*
X161063809Y-107354819D02*
X160968571Y-107497676D01*
X160968571Y-107497676D02*
X160873333Y-107592914D01*
X160873333Y-107592914D02*
X160778095Y-107640533D01*
X104261905Y-111854819D02*
X104261905Y-110854819D01*
X104261905Y-110854819D02*
X104500000Y-110854819D01*
X104500000Y-110854819D02*
X104642857Y-110902438D01*
X104642857Y-110902438D02*
X104738095Y-110997676D01*
X104738095Y-110997676D02*
X104785714Y-111092914D01*
X104785714Y-111092914D02*
X104833333Y-111283390D01*
X104833333Y-111283390D02*
X104833333Y-111426247D01*
X104833333Y-111426247D02*
X104785714Y-111616723D01*
X104785714Y-111616723D02*
X104738095Y-111711961D01*
X104738095Y-111711961D02*
X104642857Y-111807200D01*
X104642857Y-111807200D02*
X104500000Y-111854819D01*
X104500000Y-111854819D02*
X104261905Y-111854819D01*
X105785714Y-111854819D02*
X105214286Y-111854819D01*
X105500000Y-111854819D02*
X105500000Y-110854819D01*
X105500000Y-110854819D02*
X105404762Y-110997676D01*
X105404762Y-110997676D02*
X105309524Y-111092914D01*
X105309524Y-111092914D02*
X105214286Y-111140533D01*
X179954819Y-137533333D02*
X180669104Y-137533333D01*
X180669104Y-137533333D02*
X180811961Y-137580952D01*
X180811961Y-137580952D02*
X180907200Y-137676190D01*
X180907200Y-137676190D02*
X180954819Y-137819047D01*
X180954819Y-137819047D02*
X180954819Y-137914285D01*
X179954819Y-136580952D02*
X179954819Y-137057142D01*
X179954819Y-137057142D02*
X180431009Y-137104761D01*
X180431009Y-137104761D02*
X180383390Y-137057142D01*
X180383390Y-137057142D02*
X180335771Y-136961904D01*
X180335771Y-136961904D02*
X180335771Y-136723809D01*
X180335771Y-136723809D02*
X180383390Y-136628571D01*
X180383390Y-136628571D02*
X180431009Y-136580952D01*
X180431009Y-136580952D02*
X180526247Y-136533333D01*
X180526247Y-136533333D02*
X180764342Y-136533333D01*
X180764342Y-136533333D02*
X180859580Y-136580952D01*
X180859580Y-136580952D02*
X180907200Y-136628571D01*
X180907200Y-136628571D02*
X180954819Y-136723809D01*
X180954819Y-136723809D02*
X180954819Y-136961904D01*
X180954819Y-136961904D02*
X180907200Y-137057142D01*
X180907200Y-137057142D02*
X180859580Y-137104761D01*
X153833333Y-127804819D02*
X153500000Y-127328628D01*
X153261905Y-127804819D02*
X153261905Y-126804819D01*
X153261905Y-126804819D02*
X153642857Y-126804819D01*
X153642857Y-126804819D02*
X153738095Y-126852438D01*
X153738095Y-126852438D02*
X153785714Y-126900057D01*
X153785714Y-126900057D02*
X153833333Y-126995295D01*
X153833333Y-126995295D02*
X153833333Y-127138152D01*
X153833333Y-127138152D02*
X153785714Y-127233390D01*
X153785714Y-127233390D02*
X153738095Y-127281009D01*
X153738095Y-127281009D02*
X153642857Y-127328628D01*
X153642857Y-127328628D02*
X153261905Y-127328628D01*
X154690476Y-127138152D02*
X154690476Y-127804819D01*
X154452381Y-126757200D02*
X154214286Y-127471485D01*
X154214286Y-127471485D02*
X154833333Y-127471485D01*
X154454819Y-147738094D02*
X153454819Y-147738094D01*
X154454819Y-147166666D02*
X153883390Y-147595237D01*
X153454819Y-147166666D02*
X154026247Y-147738094D01*
X154454819Y-146214285D02*
X154454819Y-146785713D01*
X154454819Y-146499999D02*
X153454819Y-146499999D01*
X153454819Y-146499999D02*
X153597676Y-146595237D01*
X153597676Y-146595237D02*
X153692914Y-146690475D01*
X153692914Y-146690475D02*
X153740533Y-146785713D01*
X149333333Y-120869580D02*
X149285714Y-120917200D01*
X149285714Y-120917200D02*
X149142857Y-120964819D01*
X149142857Y-120964819D02*
X149047619Y-120964819D01*
X149047619Y-120964819D02*
X148904762Y-120917200D01*
X148904762Y-120917200D02*
X148809524Y-120821961D01*
X148809524Y-120821961D02*
X148761905Y-120726723D01*
X148761905Y-120726723D02*
X148714286Y-120536247D01*
X148714286Y-120536247D02*
X148714286Y-120393390D01*
X148714286Y-120393390D02*
X148761905Y-120202914D01*
X148761905Y-120202914D02*
X148809524Y-120107676D01*
X148809524Y-120107676D02*
X148904762Y-120012438D01*
X148904762Y-120012438D02*
X149047619Y-119964819D01*
X149047619Y-119964819D02*
X149142857Y-119964819D01*
X149142857Y-119964819D02*
X149285714Y-120012438D01*
X149285714Y-120012438D02*
X149333333Y-120060057D01*
X149666667Y-119964819D02*
X150285714Y-119964819D01*
X150285714Y-119964819D02*
X149952381Y-120345771D01*
X149952381Y-120345771D02*
X150095238Y-120345771D01*
X150095238Y-120345771D02*
X150190476Y-120393390D01*
X150190476Y-120393390D02*
X150238095Y-120441009D01*
X150238095Y-120441009D02*
X150285714Y-120536247D01*
X150285714Y-120536247D02*
X150285714Y-120774342D01*
X150285714Y-120774342D02*
X150238095Y-120869580D01*
X150238095Y-120869580D02*
X150190476Y-120917200D01*
X150190476Y-120917200D02*
X150095238Y-120964819D01*
X150095238Y-120964819D02*
X149809524Y-120964819D01*
X149809524Y-120964819D02*
X149714286Y-120917200D01*
X149714286Y-120917200D02*
X149666667Y-120869580D01*
X105454819Y-120533333D02*
X106169104Y-120533333D01*
X106169104Y-120533333D02*
X106311961Y-120580952D01*
X106311961Y-120580952D02*
X106407200Y-120676190D01*
X106407200Y-120676190D02*
X106454819Y-120819047D01*
X106454819Y-120819047D02*
X106454819Y-120914285D01*
X106454819Y-119533333D02*
X106454819Y-120104761D01*
X106454819Y-119819047D02*
X105454819Y-119819047D01*
X105454819Y-119819047D02*
X105597676Y-119914285D01*
X105597676Y-119914285D02*
X105692914Y-120009523D01*
X105692914Y-120009523D02*
X105740533Y-120104761D01*
X174166666Y-152054819D02*
X174166666Y-152769104D01*
X174166666Y-152769104D02*
X174119047Y-152911961D01*
X174119047Y-152911961D02*
X174023809Y-153007200D01*
X174023809Y-153007200D02*
X173880952Y-153054819D01*
X173880952Y-153054819D02*
X173785714Y-153054819D01*
X174547619Y-152054819D02*
X175166666Y-152054819D01*
X175166666Y-152054819D02*
X174833333Y-152435771D01*
X174833333Y-152435771D02*
X174976190Y-152435771D01*
X174976190Y-152435771D02*
X175071428Y-152483390D01*
X175071428Y-152483390D02*
X175119047Y-152531009D01*
X175119047Y-152531009D02*
X175166666Y-152626247D01*
X175166666Y-152626247D02*
X175166666Y-152864342D01*
X175166666Y-152864342D02*
X175119047Y-152959580D01*
X175119047Y-152959580D02*
X175071428Y-153007200D01*
X175071428Y-153007200D02*
X174976190Y-153054819D01*
X174976190Y-153054819D02*
X174690476Y-153054819D01*
X174690476Y-153054819D02*
X174595238Y-153007200D01*
X174595238Y-153007200D02*
X174547619Y-152959580D01*
X160444761Y-122450057D02*
X160349523Y-122402438D01*
X160349523Y-122402438D02*
X160254285Y-122307200D01*
X160254285Y-122307200D02*
X160111428Y-122164342D01*
X160111428Y-122164342D02*
X160016190Y-122116723D01*
X160016190Y-122116723D02*
X159920952Y-122116723D01*
X159968571Y-122354819D02*
X159873333Y-122307200D01*
X159873333Y-122307200D02*
X159778095Y-122211961D01*
X159778095Y-122211961D02*
X159730476Y-122021485D01*
X159730476Y-122021485D02*
X159730476Y-121688152D01*
X159730476Y-121688152D02*
X159778095Y-121497676D01*
X159778095Y-121497676D02*
X159873333Y-121402438D01*
X159873333Y-121402438D02*
X159968571Y-121354819D01*
X159968571Y-121354819D02*
X160159047Y-121354819D01*
X160159047Y-121354819D02*
X160254285Y-121402438D01*
X160254285Y-121402438D02*
X160349523Y-121497676D01*
X160349523Y-121497676D02*
X160397142Y-121688152D01*
X160397142Y-121688152D02*
X160397142Y-122021485D01*
X160397142Y-122021485D02*
X160349523Y-122211961D01*
X160349523Y-122211961D02*
X160254285Y-122307200D01*
X160254285Y-122307200D02*
X160159047Y-122354819D01*
X160159047Y-122354819D02*
X159968571Y-122354819D01*
X160778095Y-121450057D02*
X160825714Y-121402438D01*
X160825714Y-121402438D02*
X160920952Y-121354819D01*
X160920952Y-121354819D02*
X161159047Y-121354819D01*
X161159047Y-121354819D02*
X161254285Y-121402438D01*
X161254285Y-121402438D02*
X161301904Y-121450057D01*
X161301904Y-121450057D02*
X161349523Y-121545295D01*
X161349523Y-121545295D02*
X161349523Y-121640533D01*
X161349523Y-121640533D02*
X161301904Y-121783390D01*
X161301904Y-121783390D02*
X160730476Y-122354819D01*
X160730476Y-122354819D02*
X161349523Y-122354819D01*
X137238095Y-112654819D02*
X137238095Y-113464342D01*
X137238095Y-113464342D02*
X137285714Y-113559580D01*
X137285714Y-113559580D02*
X137333333Y-113607200D01*
X137333333Y-113607200D02*
X137428571Y-113654819D01*
X137428571Y-113654819D02*
X137619047Y-113654819D01*
X137619047Y-113654819D02*
X137714285Y-113607200D01*
X137714285Y-113607200D02*
X137761904Y-113559580D01*
X137761904Y-113559580D02*
X137809523Y-113464342D01*
X137809523Y-113464342D02*
X137809523Y-112654819D01*
X138809523Y-113654819D02*
X138238095Y-113654819D01*
X138523809Y-113654819D02*
X138523809Y-112654819D01*
X138523809Y-112654819D02*
X138428571Y-112797676D01*
X138428571Y-112797676D02*
X138333333Y-112892914D01*
X138333333Y-112892914D02*
X138238095Y-112940533D01*
D10*
X126310577Y-117473855D02*
X126310577Y-116673855D01*
X126843910Y-116673855D02*
X126996291Y-116673855D01*
X126996291Y-116673855D02*
X127072481Y-116711950D01*
X127072481Y-116711950D02*
X127148672Y-116788140D01*
X127148672Y-116788140D02*
X127186767Y-116940521D01*
X127186767Y-116940521D02*
X127186767Y-117207188D01*
X127186767Y-117207188D02*
X127148672Y-117359569D01*
X127148672Y-117359569D02*
X127072481Y-117435760D01*
X127072481Y-117435760D02*
X126996291Y-117473855D01*
X126996291Y-117473855D02*
X126843910Y-117473855D01*
X126843910Y-117473855D02*
X126767719Y-117435760D01*
X126767719Y-117435760D02*
X126691529Y-117359569D01*
X126691529Y-117359569D02*
X126653433Y-117207188D01*
X126653433Y-117207188D02*
X126653433Y-116940521D01*
X126653433Y-116940521D02*
X126691529Y-116788140D01*
X126691529Y-116788140D02*
X126767719Y-116711950D01*
X126767719Y-116711950D02*
X126843910Y-116673855D01*
X127910576Y-116673855D02*
X127529624Y-116673855D01*
X127529624Y-116673855D02*
X127491528Y-117054807D01*
X127491528Y-117054807D02*
X127529624Y-117016712D01*
X127529624Y-117016712D02*
X127605814Y-116978617D01*
X127605814Y-116978617D02*
X127796290Y-116978617D01*
X127796290Y-116978617D02*
X127872481Y-117016712D01*
X127872481Y-117016712D02*
X127910576Y-117054807D01*
X127910576Y-117054807D02*
X127948671Y-117130998D01*
X127948671Y-117130998D02*
X127948671Y-117321474D01*
X127948671Y-117321474D02*
X127910576Y-117397664D01*
X127910576Y-117397664D02*
X127872481Y-117435760D01*
X127872481Y-117435760D02*
X127796290Y-117473855D01*
X127796290Y-117473855D02*
X127605814Y-117473855D01*
X127605814Y-117473855D02*
X127529624Y-117435760D01*
X127529624Y-117435760D02*
X127491528Y-117397664D01*
X126310577Y-120013855D02*
X126310577Y-119213855D01*
X126843910Y-119213855D02*
X126996291Y-119213855D01*
X126996291Y-119213855D02*
X127072481Y-119251950D01*
X127072481Y-119251950D02*
X127148672Y-119328140D01*
X127148672Y-119328140D02*
X127186767Y-119480521D01*
X127186767Y-119480521D02*
X127186767Y-119747188D01*
X127186767Y-119747188D02*
X127148672Y-119899569D01*
X127148672Y-119899569D02*
X127072481Y-119975760D01*
X127072481Y-119975760D02*
X126996291Y-120013855D01*
X126996291Y-120013855D02*
X126843910Y-120013855D01*
X126843910Y-120013855D02*
X126767719Y-119975760D01*
X126767719Y-119975760D02*
X126691529Y-119899569D01*
X126691529Y-119899569D02*
X126653433Y-119747188D01*
X126653433Y-119747188D02*
X126653433Y-119480521D01*
X126653433Y-119480521D02*
X126691529Y-119328140D01*
X126691529Y-119328140D02*
X126767719Y-119251950D01*
X126767719Y-119251950D02*
X126843910Y-119213855D01*
X127872481Y-119213855D02*
X127720100Y-119213855D01*
X127720100Y-119213855D02*
X127643909Y-119251950D01*
X127643909Y-119251950D02*
X127605814Y-119290045D01*
X127605814Y-119290045D02*
X127529624Y-119404331D01*
X127529624Y-119404331D02*
X127491528Y-119556712D01*
X127491528Y-119556712D02*
X127491528Y-119861474D01*
X127491528Y-119861474D02*
X127529624Y-119937664D01*
X127529624Y-119937664D02*
X127567719Y-119975760D01*
X127567719Y-119975760D02*
X127643909Y-120013855D01*
X127643909Y-120013855D02*
X127796290Y-120013855D01*
X127796290Y-120013855D02*
X127872481Y-119975760D01*
X127872481Y-119975760D02*
X127910576Y-119937664D01*
X127910576Y-119937664D02*
X127948671Y-119861474D01*
X127948671Y-119861474D02*
X127948671Y-119670998D01*
X127948671Y-119670998D02*
X127910576Y-119594807D01*
X127910576Y-119594807D02*
X127872481Y-119556712D01*
X127872481Y-119556712D02*
X127796290Y-119518617D01*
X127796290Y-119518617D02*
X127643909Y-119518617D01*
X127643909Y-119518617D02*
X127567719Y-119556712D01*
X127567719Y-119556712D02*
X127529624Y-119594807D01*
X127529624Y-119594807D02*
X127491528Y-119670998D01*
X126310577Y-122553855D02*
X126310577Y-121753855D01*
X126843910Y-121753855D02*
X126996291Y-121753855D01*
X126996291Y-121753855D02*
X127072481Y-121791950D01*
X127072481Y-121791950D02*
X127148672Y-121868140D01*
X127148672Y-121868140D02*
X127186767Y-122020521D01*
X127186767Y-122020521D02*
X127186767Y-122287188D01*
X127186767Y-122287188D02*
X127148672Y-122439569D01*
X127148672Y-122439569D02*
X127072481Y-122515760D01*
X127072481Y-122515760D02*
X126996291Y-122553855D01*
X126996291Y-122553855D02*
X126843910Y-122553855D01*
X126843910Y-122553855D02*
X126767719Y-122515760D01*
X126767719Y-122515760D02*
X126691529Y-122439569D01*
X126691529Y-122439569D02*
X126653433Y-122287188D01*
X126653433Y-122287188D02*
X126653433Y-122020521D01*
X126653433Y-122020521D02*
X126691529Y-121868140D01*
X126691529Y-121868140D02*
X126767719Y-121791950D01*
X126767719Y-121791950D02*
X126843910Y-121753855D01*
X127453433Y-121753855D02*
X127986767Y-121753855D01*
X127986767Y-121753855D02*
X127643909Y-122553855D01*
X126310577Y-125093855D02*
X126310577Y-124293855D01*
X126843910Y-124293855D02*
X126996291Y-124293855D01*
X126996291Y-124293855D02*
X127072481Y-124331950D01*
X127072481Y-124331950D02*
X127148672Y-124408140D01*
X127148672Y-124408140D02*
X127186767Y-124560521D01*
X127186767Y-124560521D02*
X127186767Y-124827188D01*
X127186767Y-124827188D02*
X127148672Y-124979569D01*
X127148672Y-124979569D02*
X127072481Y-125055760D01*
X127072481Y-125055760D02*
X126996291Y-125093855D01*
X126996291Y-125093855D02*
X126843910Y-125093855D01*
X126843910Y-125093855D02*
X126767719Y-125055760D01*
X126767719Y-125055760D02*
X126691529Y-124979569D01*
X126691529Y-124979569D02*
X126653433Y-124827188D01*
X126653433Y-124827188D02*
X126653433Y-124560521D01*
X126653433Y-124560521D02*
X126691529Y-124408140D01*
X126691529Y-124408140D02*
X126767719Y-124331950D01*
X126767719Y-124331950D02*
X126843910Y-124293855D01*
X127643909Y-124636712D02*
X127567719Y-124598617D01*
X127567719Y-124598617D02*
X127529624Y-124560521D01*
X127529624Y-124560521D02*
X127491528Y-124484331D01*
X127491528Y-124484331D02*
X127491528Y-124446236D01*
X127491528Y-124446236D02*
X127529624Y-124370045D01*
X127529624Y-124370045D02*
X127567719Y-124331950D01*
X127567719Y-124331950D02*
X127643909Y-124293855D01*
X127643909Y-124293855D02*
X127796290Y-124293855D01*
X127796290Y-124293855D02*
X127872481Y-124331950D01*
X127872481Y-124331950D02*
X127910576Y-124370045D01*
X127910576Y-124370045D02*
X127948671Y-124446236D01*
X127948671Y-124446236D02*
X127948671Y-124484331D01*
X127948671Y-124484331D02*
X127910576Y-124560521D01*
X127910576Y-124560521D02*
X127872481Y-124598617D01*
X127872481Y-124598617D02*
X127796290Y-124636712D01*
X127796290Y-124636712D02*
X127643909Y-124636712D01*
X127643909Y-124636712D02*
X127567719Y-124674807D01*
X127567719Y-124674807D02*
X127529624Y-124712902D01*
X127529624Y-124712902D02*
X127491528Y-124789093D01*
X127491528Y-124789093D02*
X127491528Y-124941474D01*
X127491528Y-124941474D02*
X127529624Y-125017664D01*
X127529624Y-125017664D02*
X127567719Y-125055760D01*
X127567719Y-125055760D02*
X127643909Y-125093855D01*
X127643909Y-125093855D02*
X127796290Y-125093855D01*
X127796290Y-125093855D02*
X127872481Y-125055760D01*
X127872481Y-125055760D02*
X127910576Y-125017664D01*
X127910576Y-125017664D02*
X127948671Y-124941474D01*
X127948671Y-124941474D02*
X127948671Y-124789093D01*
X127948671Y-124789093D02*
X127910576Y-124712902D01*
X127910576Y-124712902D02*
X127872481Y-124674807D01*
X127872481Y-124674807D02*
X127796290Y-124636712D01*
X126310577Y-127633855D02*
X126310577Y-126833855D01*
X126843910Y-126833855D02*
X126996291Y-126833855D01*
X126996291Y-126833855D02*
X127072481Y-126871950D01*
X127072481Y-126871950D02*
X127148672Y-126948140D01*
X127148672Y-126948140D02*
X127186767Y-127100521D01*
X127186767Y-127100521D02*
X127186767Y-127367188D01*
X127186767Y-127367188D02*
X127148672Y-127519569D01*
X127148672Y-127519569D02*
X127072481Y-127595760D01*
X127072481Y-127595760D02*
X126996291Y-127633855D01*
X126996291Y-127633855D02*
X126843910Y-127633855D01*
X126843910Y-127633855D02*
X126767719Y-127595760D01*
X126767719Y-127595760D02*
X126691529Y-127519569D01*
X126691529Y-127519569D02*
X126653433Y-127367188D01*
X126653433Y-127367188D02*
X126653433Y-127100521D01*
X126653433Y-127100521D02*
X126691529Y-126948140D01*
X126691529Y-126948140D02*
X126767719Y-126871950D01*
X126767719Y-126871950D02*
X126843910Y-126833855D01*
X127567719Y-127633855D02*
X127720100Y-127633855D01*
X127720100Y-127633855D02*
X127796290Y-127595760D01*
X127796290Y-127595760D02*
X127834386Y-127557664D01*
X127834386Y-127557664D02*
X127910576Y-127443379D01*
X127910576Y-127443379D02*
X127948671Y-127290998D01*
X127948671Y-127290998D02*
X127948671Y-126986236D01*
X127948671Y-126986236D02*
X127910576Y-126910045D01*
X127910576Y-126910045D02*
X127872481Y-126871950D01*
X127872481Y-126871950D02*
X127796290Y-126833855D01*
X127796290Y-126833855D02*
X127643909Y-126833855D01*
X127643909Y-126833855D02*
X127567719Y-126871950D01*
X127567719Y-126871950D02*
X127529624Y-126910045D01*
X127529624Y-126910045D02*
X127491528Y-126986236D01*
X127491528Y-126986236D02*
X127491528Y-127176712D01*
X127491528Y-127176712D02*
X127529624Y-127252902D01*
X127529624Y-127252902D02*
X127567719Y-127290998D01*
X127567719Y-127290998D02*
X127643909Y-127329093D01*
X127643909Y-127329093D02*
X127796290Y-127329093D01*
X127796290Y-127329093D02*
X127872481Y-127290998D01*
X127872481Y-127290998D02*
X127910576Y-127252902D01*
X127910576Y-127252902D02*
X127948671Y-127176712D01*
X125548672Y-130173855D02*
X125548672Y-129373855D01*
X126082005Y-129373855D02*
X126234386Y-129373855D01*
X126234386Y-129373855D02*
X126310576Y-129411950D01*
X126310576Y-129411950D02*
X126386767Y-129488140D01*
X126386767Y-129488140D02*
X126424862Y-129640521D01*
X126424862Y-129640521D02*
X126424862Y-129907188D01*
X126424862Y-129907188D02*
X126386767Y-130059569D01*
X126386767Y-130059569D02*
X126310576Y-130135760D01*
X126310576Y-130135760D02*
X126234386Y-130173855D01*
X126234386Y-130173855D02*
X126082005Y-130173855D01*
X126082005Y-130173855D02*
X126005814Y-130135760D01*
X126005814Y-130135760D02*
X125929624Y-130059569D01*
X125929624Y-130059569D02*
X125891528Y-129907188D01*
X125891528Y-129907188D02*
X125891528Y-129640521D01*
X125891528Y-129640521D02*
X125929624Y-129488140D01*
X125929624Y-129488140D02*
X126005814Y-129411950D01*
X126005814Y-129411950D02*
X126082005Y-129373855D01*
X127186766Y-130173855D02*
X126729623Y-130173855D01*
X126958195Y-130173855D02*
X126958195Y-129373855D01*
X126958195Y-129373855D02*
X126882004Y-129488140D01*
X126882004Y-129488140D02*
X126805814Y-129564331D01*
X126805814Y-129564331D02*
X126729623Y-129602426D01*
X127682005Y-129373855D02*
X127758195Y-129373855D01*
X127758195Y-129373855D02*
X127834386Y-129411950D01*
X127834386Y-129411950D02*
X127872481Y-129450045D01*
X127872481Y-129450045D02*
X127910576Y-129526236D01*
X127910576Y-129526236D02*
X127948671Y-129678617D01*
X127948671Y-129678617D02*
X127948671Y-129869093D01*
X127948671Y-129869093D02*
X127910576Y-130021474D01*
X127910576Y-130021474D02*
X127872481Y-130097664D01*
X127872481Y-130097664D02*
X127834386Y-130135760D01*
X127834386Y-130135760D02*
X127758195Y-130173855D01*
X127758195Y-130173855D02*
X127682005Y-130173855D01*
X127682005Y-130173855D02*
X127605814Y-130135760D01*
X127605814Y-130135760D02*
X127567719Y-130097664D01*
X127567719Y-130097664D02*
X127529624Y-130021474D01*
X127529624Y-130021474D02*
X127491528Y-129869093D01*
X127491528Y-129869093D02*
X127491528Y-129678617D01*
X127491528Y-129678617D02*
X127529624Y-129526236D01*
X127529624Y-129526236D02*
X127567719Y-129450045D01*
X127567719Y-129450045D02*
X127605814Y-129411950D01*
X127605814Y-129411950D02*
X127682005Y-129373855D01*
X125548672Y-132713855D02*
X125548672Y-131913855D01*
X126082005Y-131913855D02*
X126234386Y-131913855D01*
X126234386Y-131913855D02*
X126310576Y-131951950D01*
X126310576Y-131951950D02*
X126386767Y-132028140D01*
X126386767Y-132028140D02*
X126424862Y-132180521D01*
X126424862Y-132180521D02*
X126424862Y-132447188D01*
X126424862Y-132447188D02*
X126386767Y-132599569D01*
X126386767Y-132599569D02*
X126310576Y-132675760D01*
X126310576Y-132675760D02*
X126234386Y-132713855D01*
X126234386Y-132713855D02*
X126082005Y-132713855D01*
X126082005Y-132713855D02*
X126005814Y-132675760D01*
X126005814Y-132675760D02*
X125929624Y-132599569D01*
X125929624Y-132599569D02*
X125891528Y-132447188D01*
X125891528Y-132447188D02*
X125891528Y-132180521D01*
X125891528Y-132180521D02*
X125929624Y-132028140D01*
X125929624Y-132028140D02*
X126005814Y-131951950D01*
X126005814Y-131951950D02*
X126082005Y-131913855D01*
X126729623Y-131990045D02*
X126767719Y-131951950D01*
X126767719Y-131951950D02*
X126843909Y-131913855D01*
X126843909Y-131913855D02*
X127034385Y-131913855D01*
X127034385Y-131913855D02*
X127110576Y-131951950D01*
X127110576Y-131951950D02*
X127148671Y-131990045D01*
X127148671Y-131990045D02*
X127186766Y-132066236D01*
X127186766Y-132066236D02*
X127186766Y-132142426D01*
X127186766Y-132142426D02*
X127148671Y-132256712D01*
X127148671Y-132256712D02*
X126691528Y-132713855D01*
X126691528Y-132713855D02*
X127186766Y-132713855D01*
X127682005Y-131913855D02*
X127758195Y-131913855D01*
X127758195Y-131913855D02*
X127834386Y-131951950D01*
X127834386Y-131951950D02*
X127872481Y-131990045D01*
X127872481Y-131990045D02*
X127910576Y-132066236D01*
X127910576Y-132066236D02*
X127948671Y-132218617D01*
X127948671Y-132218617D02*
X127948671Y-132409093D01*
X127948671Y-132409093D02*
X127910576Y-132561474D01*
X127910576Y-132561474D02*
X127872481Y-132637664D01*
X127872481Y-132637664D02*
X127834386Y-132675760D01*
X127834386Y-132675760D02*
X127758195Y-132713855D01*
X127758195Y-132713855D02*
X127682005Y-132713855D01*
X127682005Y-132713855D02*
X127605814Y-132675760D01*
X127605814Y-132675760D02*
X127567719Y-132637664D01*
X127567719Y-132637664D02*
X127529624Y-132561474D01*
X127529624Y-132561474D02*
X127491528Y-132409093D01*
X127491528Y-132409093D02*
X127491528Y-132218617D01*
X127491528Y-132218617D02*
X127529624Y-132066236D01*
X127529624Y-132066236D02*
X127567719Y-131990045D01*
X127567719Y-131990045D02*
X127605814Y-131951950D01*
X127605814Y-131951950D02*
X127682005Y-131913855D01*
X125548672Y-135253855D02*
X125548672Y-134453855D01*
X126082005Y-134453855D02*
X126234386Y-134453855D01*
X126234386Y-134453855D02*
X126310576Y-134491950D01*
X126310576Y-134491950D02*
X126386767Y-134568140D01*
X126386767Y-134568140D02*
X126424862Y-134720521D01*
X126424862Y-134720521D02*
X126424862Y-134987188D01*
X126424862Y-134987188D02*
X126386767Y-135139569D01*
X126386767Y-135139569D02*
X126310576Y-135215760D01*
X126310576Y-135215760D02*
X126234386Y-135253855D01*
X126234386Y-135253855D02*
X126082005Y-135253855D01*
X126082005Y-135253855D02*
X126005814Y-135215760D01*
X126005814Y-135215760D02*
X125929624Y-135139569D01*
X125929624Y-135139569D02*
X125891528Y-134987188D01*
X125891528Y-134987188D02*
X125891528Y-134720521D01*
X125891528Y-134720521D02*
X125929624Y-134568140D01*
X125929624Y-134568140D02*
X126005814Y-134491950D01*
X126005814Y-134491950D02*
X126082005Y-134453855D01*
X126729623Y-134530045D02*
X126767719Y-134491950D01*
X126767719Y-134491950D02*
X126843909Y-134453855D01*
X126843909Y-134453855D02*
X127034385Y-134453855D01*
X127034385Y-134453855D02*
X127110576Y-134491950D01*
X127110576Y-134491950D02*
X127148671Y-134530045D01*
X127148671Y-134530045D02*
X127186766Y-134606236D01*
X127186766Y-134606236D02*
X127186766Y-134682426D01*
X127186766Y-134682426D02*
X127148671Y-134796712D01*
X127148671Y-134796712D02*
X126691528Y-135253855D01*
X126691528Y-135253855D02*
X127186766Y-135253855D01*
X127948671Y-135253855D02*
X127491528Y-135253855D01*
X127720100Y-135253855D02*
X127720100Y-134453855D01*
X127720100Y-134453855D02*
X127643909Y-134568140D01*
X127643909Y-134568140D02*
X127567719Y-134644331D01*
X127567719Y-134644331D02*
X127491528Y-134682426D01*
D11*
X136738095Y-115254819D02*
X136738095Y-116064342D01*
X136738095Y-116064342D02*
X136785714Y-116159580D01*
X136785714Y-116159580D02*
X136833333Y-116207200D01*
X136833333Y-116207200D02*
X136928571Y-116254819D01*
X136928571Y-116254819D02*
X137119047Y-116254819D01*
X137119047Y-116254819D02*
X137214285Y-116207200D01*
X137214285Y-116207200D02*
X137261904Y-116159580D01*
X137261904Y-116159580D02*
X137309523Y-116064342D01*
X137309523Y-116064342D02*
X137309523Y-115254819D01*
X137738095Y-116207200D02*
X137880952Y-116254819D01*
X137880952Y-116254819D02*
X138119047Y-116254819D01*
X138119047Y-116254819D02*
X138214285Y-116207200D01*
X138214285Y-116207200D02*
X138261904Y-116159580D01*
X138261904Y-116159580D02*
X138309523Y-116064342D01*
X138309523Y-116064342D02*
X138309523Y-115969104D01*
X138309523Y-115969104D02*
X138261904Y-115873866D01*
X138261904Y-115873866D02*
X138214285Y-115826247D01*
X138214285Y-115826247D02*
X138119047Y-115778628D01*
X138119047Y-115778628D02*
X137928571Y-115731009D01*
X137928571Y-115731009D02*
X137833333Y-115683390D01*
X137833333Y-115683390D02*
X137785714Y-115635771D01*
X137785714Y-115635771D02*
X137738095Y-115540533D01*
X137738095Y-115540533D02*
X137738095Y-115445295D01*
X137738095Y-115445295D02*
X137785714Y-115350057D01*
X137785714Y-115350057D02*
X137833333Y-115302438D01*
X137833333Y-115302438D02*
X137928571Y-115254819D01*
X137928571Y-115254819D02*
X138166666Y-115254819D01*
X138166666Y-115254819D02*
X138309523Y-115302438D01*
X139071428Y-115731009D02*
X139214285Y-115778628D01*
X139214285Y-115778628D02*
X139261904Y-115826247D01*
X139261904Y-115826247D02*
X139309523Y-115921485D01*
X139309523Y-115921485D02*
X139309523Y-116064342D01*
X139309523Y-116064342D02*
X139261904Y-116159580D01*
X139261904Y-116159580D02*
X139214285Y-116207200D01*
X139214285Y-116207200D02*
X139119047Y-116254819D01*
X139119047Y-116254819D02*
X138738095Y-116254819D01*
X138738095Y-116254819D02*
X138738095Y-115254819D01*
X138738095Y-115254819D02*
X139071428Y-115254819D01*
X139071428Y-115254819D02*
X139166666Y-115302438D01*
X139166666Y-115302438D02*
X139214285Y-115350057D01*
X139214285Y-115350057D02*
X139261904Y-115445295D01*
X139261904Y-115445295D02*
X139261904Y-115540533D01*
X139261904Y-115540533D02*
X139214285Y-115635771D01*
X139214285Y-115635771D02*
X139166666Y-115683390D01*
X139166666Y-115683390D02*
X139071428Y-115731009D01*
X139071428Y-115731009D02*
X138738095Y-115731009D01*
D10*
X148470375Y-116673855D02*
X148089423Y-116673855D01*
X148089423Y-116673855D02*
X148051327Y-117054807D01*
X148051327Y-117054807D02*
X148089423Y-117016712D01*
X148089423Y-117016712D02*
X148165613Y-116978617D01*
X148165613Y-116978617D02*
X148356089Y-116978617D01*
X148356089Y-116978617D02*
X148432280Y-117016712D01*
X148432280Y-117016712D02*
X148470375Y-117054807D01*
X148470375Y-117054807D02*
X148508470Y-117130998D01*
X148508470Y-117130998D02*
X148508470Y-117321474D01*
X148508470Y-117321474D02*
X148470375Y-117397664D01*
X148470375Y-117397664D02*
X148432280Y-117435760D01*
X148432280Y-117435760D02*
X148356089Y-117473855D01*
X148356089Y-117473855D02*
X148165613Y-117473855D01*
X148165613Y-117473855D02*
X148089423Y-117435760D01*
X148089423Y-117435760D02*
X148051327Y-117397664D01*
X148737042Y-116673855D02*
X149003709Y-117473855D01*
X149003709Y-117473855D02*
X149270375Y-116673855D01*
X148508470Y-119251950D02*
X148432280Y-119213855D01*
X148432280Y-119213855D02*
X148317994Y-119213855D01*
X148317994Y-119213855D02*
X148203708Y-119251950D01*
X148203708Y-119251950D02*
X148127518Y-119328140D01*
X148127518Y-119328140D02*
X148089423Y-119404331D01*
X148089423Y-119404331D02*
X148051327Y-119556712D01*
X148051327Y-119556712D02*
X148051327Y-119670998D01*
X148051327Y-119670998D02*
X148089423Y-119823379D01*
X148089423Y-119823379D02*
X148127518Y-119899569D01*
X148127518Y-119899569D02*
X148203708Y-119975760D01*
X148203708Y-119975760D02*
X148317994Y-120013855D01*
X148317994Y-120013855D02*
X148394185Y-120013855D01*
X148394185Y-120013855D02*
X148508470Y-119975760D01*
X148508470Y-119975760D02*
X148546566Y-119937664D01*
X148546566Y-119937664D02*
X148546566Y-119670998D01*
X148546566Y-119670998D02*
X148394185Y-119670998D01*
X148889423Y-120013855D02*
X148889423Y-119213855D01*
X148889423Y-119213855D02*
X149346566Y-120013855D01*
X149346566Y-120013855D02*
X149346566Y-119213855D01*
X149727518Y-120013855D02*
X149727518Y-119213855D01*
X149727518Y-119213855D02*
X149917994Y-119213855D01*
X149917994Y-119213855D02*
X150032280Y-119251950D01*
X150032280Y-119251950D02*
X150108470Y-119328140D01*
X150108470Y-119328140D02*
X150146565Y-119404331D01*
X150146565Y-119404331D02*
X150184661Y-119556712D01*
X150184661Y-119556712D02*
X150184661Y-119670998D01*
X150184661Y-119670998D02*
X150146565Y-119823379D01*
X150146565Y-119823379D02*
X150108470Y-119899569D01*
X150108470Y-119899569D02*
X150032280Y-119975760D01*
X150032280Y-119975760D02*
X149917994Y-120013855D01*
X149917994Y-120013855D02*
X149727518Y-120013855D01*
X148013232Y-121753855D02*
X148508470Y-121753855D01*
X148508470Y-121753855D02*
X148241804Y-122058617D01*
X148241804Y-122058617D02*
X148356089Y-122058617D01*
X148356089Y-122058617D02*
X148432280Y-122096712D01*
X148432280Y-122096712D02*
X148470375Y-122134807D01*
X148470375Y-122134807D02*
X148508470Y-122210998D01*
X148508470Y-122210998D02*
X148508470Y-122401474D01*
X148508470Y-122401474D02*
X148470375Y-122477664D01*
X148470375Y-122477664D02*
X148432280Y-122515760D01*
X148432280Y-122515760D02*
X148356089Y-122553855D01*
X148356089Y-122553855D02*
X148127518Y-122553855D01*
X148127518Y-122553855D02*
X148051327Y-122515760D01*
X148051327Y-122515760D02*
X148013232Y-122477664D01*
X148737042Y-121753855D02*
X149003709Y-122553855D01*
X149003709Y-122553855D02*
X149270375Y-121753855D01*
X149460851Y-121753855D02*
X149956089Y-121753855D01*
X149956089Y-121753855D02*
X149689423Y-122058617D01*
X149689423Y-122058617D02*
X149803708Y-122058617D01*
X149803708Y-122058617D02*
X149879899Y-122096712D01*
X149879899Y-122096712D02*
X149917994Y-122134807D01*
X149917994Y-122134807D02*
X149956089Y-122210998D01*
X149956089Y-122210998D02*
X149956089Y-122401474D01*
X149956089Y-122401474D02*
X149917994Y-122477664D01*
X149917994Y-122477664D02*
X149879899Y-122515760D01*
X149879899Y-122515760D02*
X149803708Y-122553855D01*
X149803708Y-122553855D02*
X149575137Y-122553855D01*
X149575137Y-122553855D02*
X149498946Y-122515760D01*
X149498946Y-122515760D02*
X149460851Y-122477664D01*
X148089423Y-125093855D02*
X148089423Y-124293855D01*
X148622756Y-124293855D02*
X148775137Y-124293855D01*
X148775137Y-124293855D02*
X148851327Y-124331950D01*
X148851327Y-124331950D02*
X148927518Y-124408140D01*
X148927518Y-124408140D02*
X148965613Y-124560521D01*
X148965613Y-124560521D02*
X148965613Y-124827188D01*
X148965613Y-124827188D02*
X148927518Y-124979569D01*
X148927518Y-124979569D02*
X148851327Y-125055760D01*
X148851327Y-125055760D02*
X148775137Y-125093855D01*
X148775137Y-125093855D02*
X148622756Y-125093855D01*
X148622756Y-125093855D02*
X148546565Y-125055760D01*
X148546565Y-125055760D02*
X148470375Y-124979569D01*
X148470375Y-124979569D02*
X148432279Y-124827188D01*
X148432279Y-124827188D02*
X148432279Y-124560521D01*
X148432279Y-124560521D02*
X148470375Y-124408140D01*
X148470375Y-124408140D02*
X148546565Y-124331950D01*
X148546565Y-124331950D02*
X148622756Y-124293855D01*
X149651327Y-124560521D02*
X149651327Y-125093855D01*
X149460851Y-124255760D02*
X149270374Y-124827188D01*
X149270374Y-124827188D02*
X149765613Y-124827188D01*
X148089423Y-127633855D02*
X148089423Y-126833855D01*
X148622756Y-126833855D02*
X148775137Y-126833855D01*
X148775137Y-126833855D02*
X148851327Y-126871950D01*
X148851327Y-126871950D02*
X148927518Y-126948140D01*
X148927518Y-126948140D02*
X148965613Y-127100521D01*
X148965613Y-127100521D02*
X148965613Y-127367188D01*
X148965613Y-127367188D02*
X148927518Y-127519569D01*
X148927518Y-127519569D02*
X148851327Y-127595760D01*
X148851327Y-127595760D02*
X148775137Y-127633855D01*
X148775137Y-127633855D02*
X148622756Y-127633855D01*
X148622756Y-127633855D02*
X148546565Y-127595760D01*
X148546565Y-127595760D02*
X148470375Y-127519569D01*
X148470375Y-127519569D02*
X148432279Y-127367188D01*
X148432279Y-127367188D02*
X148432279Y-127100521D01*
X148432279Y-127100521D02*
X148470375Y-126948140D01*
X148470375Y-126948140D02*
X148546565Y-126871950D01*
X148546565Y-126871950D02*
X148622756Y-126833855D01*
X149232279Y-126833855D02*
X149727517Y-126833855D01*
X149727517Y-126833855D02*
X149460851Y-127138617D01*
X149460851Y-127138617D02*
X149575136Y-127138617D01*
X149575136Y-127138617D02*
X149651327Y-127176712D01*
X149651327Y-127176712D02*
X149689422Y-127214807D01*
X149689422Y-127214807D02*
X149727517Y-127290998D01*
X149727517Y-127290998D02*
X149727517Y-127481474D01*
X149727517Y-127481474D02*
X149689422Y-127557664D01*
X149689422Y-127557664D02*
X149651327Y-127595760D01*
X149651327Y-127595760D02*
X149575136Y-127633855D01*
X149575136Y-127633855D02*
X149346565Y-127633855D01*
X149346565Y-127633855D02*
X149270374Y-127595760D01*
X149270374Y-127595760D02*
X149232279Y-127557664D01*
X148089423Y-130173855D02*
X148089423Y-129373855D01*
X148622756Y-129373855D02*
X148775137Y-129373855D01*
X148775137Y-129373855D02*
X148851327Y-129411950D01*
X148851327Y-129411950D02*
X148927518Y-129488140D01*
X148927518Y-129488140D02*
X148965613Y-129640521D01*
X148965613Y-129640521D02*
X148965613Y-129907188D01*
X148965613Y-129907188D02*
X148927518Y-130059569D01*
X148927518Y-130059569D02*
X148851327Y-130135760D01*
X148851327Y-130135760D02*
X148775137Y-130173855D01*
X148775137Y-130173855D02*
X148622756Y-130173855D01*
X148622756Y-130173855D02*
X148546565Y-130135760D01*
X148546565Y-130135760D02*
X148470375Y-130059569D01*
X148470375Y-130059569D02*
X148432279Y-129907188D01*
X148432279Y-129907188D02*
X148432279Y-129640521D01*
X148432279Y-129640521D02*
X148470375Y-129488140D01*
X148470375Y-129488140D02*
X148546565Y-129411950D01*
X148546565Y-129411950D02*
X148622756Y-129373855D01*
X149270374Y-129450045D02*
X149308470Y-129411950D01*
X149308470Y-129411950D02*
X149384660Y-129373855D01*
X149384660Y-129373855D02*
X149575136Y-129373855D01*
X149575136Y-129373855D02*
X149651327Y-129411950D01*
X149651327Y-129411950D02*
X149689422Y-129450045D01*
X149689422Y-129450045D02*
X149727517Y-129526236D01*
X149727517Y-129526236D02*
X149727517Y-129602426D01*
X149727517Y-129602426D02*
X149689422Y-129716712D01*
X149689422Y-129716712D02*
X149232279Y-130173855D01*
X149232279Y-130173855D02*
X149727517Y-130173855D01*
X148089423Y-132713855D02*
X148089423Y-131913855D01*
X148622756Y-131913855D02*
X148775137Y-131913855D01*
X148775137Y-131913855D02*
X148851327Y-131951950D01*
X148851327Y-131951950D02*
X148927518Y-132028140D01*
X148927518Y-132028140D02*
X148965613Y-132180521D01*
X148965613Y-132180521D02*
X148965613Y-132447188D01*
X148965613Y-132447188D02*
X148927518Y-132599569D01*
X148927518Y-132599569D02*
X148851327Y-132675760D01*
X148851327Y-132675760D02*
X148775137Y-132713855D01*
X148775137Y-132713855D02*
X148622756Y-132713855D01*
X148622756Y-132713855D02*
X148546565Y-132675760D01*
X148546565Y-132675760D02*
X148470375Y-132599569D01*
X148470375Y-132599569D02*
X148432279Y-132447188D01*
X148432279Y-132447188D02*
X148432279Y-132180521D01*
X148432279Y-132180521D02*
X148470375Y-132028140D01*
X148470375Y-132028140D02*
X148546565Y-131951950D01*
X148546565Y-131951950D02*
X148622756Y-131913855D01*
X149727517Y-132713855D02*
X149270374Y-132713855D01*
X149498946Y-132713855D02*
X149498946Y-131913855D01*
X149498946Y-131913855D02*
X149422755Y-132028140D01*
X149422755Y-132028140D02*
X149346565Y-132104331D01*
X149346565Y-132104331D02*
X149270374Y-132142426D01*
X148089423Y-135253855D02*
X148089423Y-134453855D01*
X148622756Y-134453855D02*
X148775137Y-134453855D01*
X148775137Y-134453855D02*
X148851327Y-134491950D01*
X148851327Y-134491950D02*
X148927518Y-134568140D01*
X148927518Y-134568140D02*
X148965613Y-134720521D01*
X148965613Y-134720521D02*
X148965613Y-134987188D01*
X148965613Y-134987188D02*
X148927518Y-135139569D01*
X148927518Y-135139569D02*
X148851327Y-135215760D01*
X148851327Y-135215760D02*
X148775137Y-135253855D01*
X148775137Y-135253855D02*
X148622756Y-135253855D01*
X148622756Y-135253855D02*
X148546565Y-135215760D01*
X148546565Y-135215760D02*
X148470375Y-135139569D01*
X148470375Y-135139569D02*
X148432279Y-134987188D01*
X148432279Y-134987188D02*
X148432279Y-134720521D01*
X148432279Y-134720521D02*
X148470375Y-134568140D01*
X148470375Y-134568140D02*
X148546565Y-134491950D01*
X148546565Y-134491950D02*
X148622756Y-134453855D01*
X149460851Y-134453855D02*
X149537041Y-134453855D01*
X149537041Y-134453855D02*
X149613232Y-134491950D01*
X149613232Y-134491950D02*
X149651327Y-134530045D01*
X149651327Y-134530045D02*
X149689422Y-134606236D01*
X149689422Y-134606236D02*
X149727517Y-134758617D01*
X149727517Y-134758617D02*
X149727517Y-134949093D01*
X149727517Y-134949093D02*
X149689422Y-135101474D01*
X149689422Y-135101474D02*
X149651327Y-135177664D01*
X149651327Y-135177664D02*
X149613232Y-135215760D01*
X149613232Y-135215760D02*
X149537041Y-135253855D01*
X149537041Y-135253855D02*
X149460851Y-135253855D01*
X149460851Y-135253855D02*
X149384660Y-135215760D01*
X149384660Y-135215760D02*
X149346565Y-135177664D01*
X149346565Y-135177664D02*
X149308470Y-135101474D01*
X149308470Y-135101474D02*
X149270374Y-134949093D01*
X149270374Y-134949093D02*
X149270374Y-134758617D01*
X149270374Y-134758617D02*
X149308470Y-134606236D01*
X149308470Y-134606236D02*
X149346565Y-134530045D01*
X149346565Y-134530045D02*
X149384660Y-134491950D01*
X149384660Y-134491950D02*
X149460851Y-134453855D01*
D11*
X147174761Y-140990057D02*
X147079523Y-140942438D01*
X147079523Y-140942438D02*
X146984285Y-140847200D01*
X146984285Y-140847200D02*
X146841428Y-140704342D01*
X146841428Y-140704342D02*
X146746190Y-140656723D01*
X146746190Y-140656723D02*
X146650952Y-140656723D01*
X146698571Y-140894819D02*
X146603333Y-140847200D01*
X146603333Y-140847200D02*
X146508095Y-140751961D01*
X146508095Y-140751961D02*
X146460476Y-140561485D01*
X146460476Y-140561485D02*
X146460476Y-140228152D01*
X146460476Y-140228152D02*
X146508095Y-140037676D01*
X146508095Y-140037676D02*
X146603333Y-139942438D01*
X146603333Y-139942438D02*
X146698571Y-139894819D01*
X146698571Y-139894819D02*
X146889047Y-139894819D01*
X146889047Y-139894819D02*
X146984285Y-139942438D01*
X146984285Y-139942438D02*
X147079523Y-140037676D01*
X147079523Y-140037676D02*
X147127142Y-140228152D01*
X147127142Y-140228152D02*
X147127142Y-140561485D01*
X147127142Y-140561485D02*
X147079523Y-140751961D01*
X147079523Y-140751961D02*
X146984285Y-140847200D01*
X146984285Y-140847200D02*
X146889047Y-140894819D01*
X146889047Y-140894819D02*
X146698571Y-140894819D01*
X147460476Y-139894819D02*
X148079523Y-139894819D01*
X148079523Y-139894819D02*
X147746190Y-140275771D01*
X147746190Y-140275771D02*
X147889047Y-140275771D01*
X147889047Y-140275771D02*
X147984285Y-140323390D01*
X147984285Y-140323390D02*
X148031904Y-140371009D01*
X148031904Y-140371009D02*
X148079523Y-140466247D01*
X148079523Y-140466247D02*
X148079523Y-140704342D01*
X148079523Y-140704342D02*
X148031904Y-140799580D01*
X148031904Y-140799580D02*
X147984285Y-140847200D01*
X147984285Y-140847200D02*
X147889047Y-140894819D01*
X147889047Y-140894819D02*
X147603333Y-140894819D01*
X147603333Y-140894819D02*
X147508095Y-140847200D01*
X147508095Y-140847200D02*
X147460476Y-140799580D01*
X152333333Y-139804819D02*
X152000000Y-139328628D01*
X151761905Y-139804819D02*
X151761905Y-138804819D01*
X151761905Y-138804819D02*
X152142857Y-138804819D01*
X152142857Y-138804819D02*
X152238095Y-138852438D01*
X152238095Y-138852438D02*
X152285714Y-138900057D01*
X152285714Y-138900057D02*
X152333333Y-138995295D01*
X152333333Y-138995295D02*
X152333333Y-139138152D01*
X152333333Y-139138152D02*
X152285714Y-139233390D01*
X152285714Y-139233390D02*
X152238095Y-139281009D01*
X152238095Y-139281009D02*
X152142857Y-139328628D01*
X152142857Y-139328628D02*
X151761905Y-139328628D01*
X152666667Y-138804819D02*
X153333333Y-138804819D01*
X153333333Y-138804819D02*
X152904762Y-139804819D01*
X179954819Y-126733333D02*
X180669104Y-126733333D01*
X180669104Y-126733333D02*
X180811961Y-126780952D01*
X180811961Y-126780952D02*
X180907200Y-126876190D01*
X180907200Y-126876190D02*
X180954819Y-127019047D01*
X180954819Y-127019047D02*
X180954819Y-127114285D01*
X180050057Y-126304761D02*
X180002438Y-126257142D01*
X180002438Y-126257142D02*
X179954819Y-126161904D01*
X179954819Y-126161904D02*
X179954819Y-125923809D01*
X179954819Y-125923809D02*
X180002438Y-125828571D01*
X180002438Y-125828571D02*
X180050057Y-125780952D01*
X180050057Y-125780952D02*
X180145295Y-125733333D01*
X180145295Y-125733333D02*
X180240533Y-125733333D01*
X180240533Y-125733333D02*
X180383390Y-125780952D01*
X180383390Y-125780952D02*
X180954819Y-126352380D01*
X180954819Y-126352380D02*
X180954819Y-125733333D01*
X109304819Y-118166666D02*
X108828628Y-118499999D01*
X109304819Y-118738094D02*
X108304819Y-118738094D01*
X108304819Y-118738094D02*
X108304819Y-118357142D01*
X108304819Y-118357142D02*
X108352438Y-118261904D01*
X108352438Y-118261904D02*
X108400057Y-118214285D01*
X108400057Y-118214285D02*
X108495295Y-118166666D01*
X108495295Y-118166666D02*
X108638152Y-118166666D01*
X108638152Y-118166666D02*
X108733390Y-118214285D01*
X108733390Y-118214285D02*
X108781009Y-118261904D01*
X108781009Y-118261904D02*
X108828628Y-118357142D01*
X108828628Y-118357142D02*
X108828628Y-118738094D01*
X108304819Y-117309523D02*
X108304819Y-117499999D01*
X108304819Y-117499999D02*
X108352438Y-117595237D01*
X108352438Y-117595237D02*
X108400057Y-117642856D01*
X108400057Y-117642856D02*
X108542914Y-117738094D01*
X108542914Y-117738094D02*
X108733390Y-117785713D01*
X108733390Y-117785713D02*
X109114342Y-117785713D01*
X109114342Y-117785713D02*
X109209580Y-117738094D01*
X109209580Y-117738094D02*
X109257200Y-117690475D01*
X109257200Y-117690475D02*
X109304819Y-117595237D01*
X109304819Y-117595237D02*
X109304819Y-117404761D01*
X109304819Y-117404761D02*
X109257200Y-117309523D01*
X109257200Y-117309523D02*
X109209580Y-117261904D01*
X109209580Y-117261904D02*
X109114342Y-117214285D01*
X109114342Y-117214285D02*
X108876247Y-117214285D01*
X108876247Y-117214285D02*
X108781009Y-117261904D01*
X108781009Y-117261904D02*
X108733390Y-117309523D01*
X108733390Y-117309523D02*
X108685771Y-117404761D01*
X108685771Y-117404761D02*
X108685771Y-117595237D01*
X108685771Y-117595237D02*
X108733390Y-117690475D01*
X108733390Y-117690475D02*
X108781009Y-117738094D01*
X108781009Y-117738094D02*
X108876247Y-117785713D01*
X116359580Y-120966666D02*
X116407200Y-121014285D01*
X116407200Y-121014285D02*
X116454819Y-121157142D01*
X116454819Y-121157142D02*
X116454819Y-121252380D01*
X116454819Y-121252380D02*
X116407200Y-121395237D01*
X116407200Y-121395237D02*
X116311961Y-121490475D01*
X116311961Y-121490475D02*
X116216723Y-121538094D01*
X116216723Y-121538094D02*
X116026247Y-121585713D01*
X116026247Y-121585713D02*
X115883390Y-121585713D01*
X115883390Y-121585713D02*
X115692914Y-121538094D01*
X115692914Y-121538094D02*
X115597676Y-121490475D01*
X115597676Y-121490475D02*
X115502438Y-121395237D01*
X115502438Y-121395237D02*
X115454819Y-121252380D01*
X115454819Y-121252380D02*
X115454819Y-121157142D01*
X115454819Y-121157142D02*
X115502438Y-121014285D01*
X115502438Y-121014285D02*
X115550057Y-120966666D01*
X116454819Y-120014285D02*
X116454819Y-120585713D01*
X116454819Y-120299999D02*
X115454819Y-120299999D01*
X115454819Y-120299999D02*
X115597676Y-120395237D01*
X115597676Y-120395237D02*
X115692914Y-120490475D01*
X115692914Y-120490475D02*
X115740533Y-120585713D01*
X152104819Y-138166666D02*
X151628628Y-138499999D01*
X152104819Y-138738094D02*
X151104819Y-138738094D01*
X151104819Y-138738094D02*
X151104819Y-138357142D01*
X151104819Y-138357142D02*
X151152438Y-138261904D01*
X151152438Y-138261904D02*
X151200057Y-138214285D01*
X151200057Y-138214285D02*
X151295295Y-138166666D01*
X151295295Y-138166666D02*
X151438152Y-138166666D01*
X151438152Y-138166666D02*
X151533390Y-138214285D01*
X151533390Y-138214285D02*
X151581009Y-138261904D01*
X151581009Y-138261904D02*
X151628628Y-138357142D01*
X151628628Y-138357142D02*
X151628628Y-138738094D01*
X151104819Y-137261904D02*
X151104819Y-137738094D01*
X151104819Y-137738094D02*
X151581009Y-137785713D01*
X151581009Y-137785713D02*
X151533390Y-137738094D01*
X151533390Y-137738094D02*
X151485771Y-137642856D01*
X151485771Y-137642856D02*
X151485771Y-137404761D01*
X151485771Y-137404761D02*
X151533390Y-137309523D01*
X151533390Y-137309523D02*
X151581009Y-137261904D01*
X151581009Y-137261904D02*
X151676247Y-137214285D01*
X151676247Y-137214285D02*
X151914342Y-137214285D01*
X151914342Y-137214285D02*
X152009580Y-137261904D01*
X152009580Y-137261904D02*
X152057200Y-137309523D01*
X152057200Y-137309523D02*
X152104819Y-137404761D01*
X152104819Y-137404761D02*
X152104819Y-137642856D01*
X152104819Y-137642856D02*
X152057200Y-137738094D01*
X152057200Y-137738094D02*
X152009580Y-137785713D01*
X147833333Y-111179580D02*
X147785714Y-111227200D01*
X147785714Y-111227200D02*
X147642857Y-111274819D01*
X147642857Y-111274819D02*
X147547619Y-111274819D01*
X147547619Y-111274819D02*
X147404762Y-111227200D01*
X147404762Y-111227200D02*
X147309524Y-111131961D01*
X147309524Y-111131961D02*
X147261905Y-111036723D01*
X147261905Y-111036723D02*
X147214286Y-110846247D01*
X147214286Y-110846247D02*
X147214286Y-110703390D01*
X147214286Y-110703390D02*
X147261905Y-110512914D01*
X147261905Y-110512914D02*
X147309524Y-110417676D01*
X147309524Y-110417676D02*
X147404762Y-110322438D01*
X147404762Y-110322438D02*
X147547619Y-110274819D01*
X147547619Y-110274819D02*
X147642857Y-110274819D01*
X147642857Y-110274819D02*
X147785714Y-110322438D01*
X147785714Y-110322438D02*
X147833333Y-110370057D01*
X148214286Y-110370057D02*
X148261905Y-110322438D01*
X148261905Y-110322438D02*
X148357143Y-110274819D01*
X148357143Y-110274819D02*
X148595238Y-110274819D01*
X148595238Y-110274819D02*
X148690476Y-110322438D01*
X148690476Y-110322438D02*
X148738095Y-110370057D01*
X148738095Y-110370057D02*
X148785714Y-110465295D01*
X148785714Y-110465295D02*
X148785714Y-110560533D01*
X148785714Y-110560533D02*
X148738095Y-110703390D01*
X148738095Y-110703390D02*
X148166667Y-111274819D01*
X148166667Y-111274819D02*
X148785714Y-111274819D01*
X149833333Y-113804819D02*
X149500000Y-113328628D01*
X149261905Y-113804819D02*
X149261905Y-112804819D01*
X149261905Y-112804819D02*
X149642857Y-112804819D01*
X149642857Y-112804819D02*
X149738095Y-112852438D01*
X149738095Y-112852438D02*
X149785714Y-112900057D01*
X149785714Y-112900057D02*
X149833333Y-112995295D01*
X149833333Y-112995295D02*
X149833333Y-113138152D01*
X149833333Y-113138152D02*
X149785714Y-113233390D01*
X149785714Y-113233390D02*
X149738095Y-113281009D01*
X149738095Y-113281009D02*
X149642857Y-113328628D01*
X149642857Y-113328628D02*
X149261905Y-113328628D01*
X150785714Y-113804819D02*
X150214286Y-113804819D01*
X150500000Y-113804819D02*
X150500000Y-112804819D01*
X150500000Y-112804819D02*
X150404762Y-112947676D01*
X150404762Y-112947676D02*
X150309524Y-113042914D01*
X150309524Y-113042914D02*
X150214286Y-113090533D01*
%TO.C,R2*%
D10*
X153772936Y-114265000D02*
X154227064Y-114265000D01*
X153772936Y-115735000D02*
X154227064Y-115735000D01*
%TO.C,J4*%
X104620000Y-138620000D02*
X106000000Y-138620000D01*
X104620000Y-140000000D02*
X104620000Y-138620000D01*
X104620000Y-141270000D02*
X104620000Y-146460000D01*
X104620000Y-141270000D02*
X107380000Y-141270000D01*
X104620000Y-146460000D02*
X107380000Y-146460000D01*
X107380000Y-141270000D02*
X107380000Y-146460000D01*
%TO.C,R3*%
X149772936Y-128265000D02*
X150227064Y-128265000D01*
X149772936Y-129735000D02*
X150227064Y-129735000D01*
%TO.C,Q1*%
X155430000Y-108740000D02*
X165650000Y-108740000D01*
X155430000Y-110120000D02*
X165650000Y-110120000D01*
X155430000Y-113360000D02*
X155430000Y-108740000D01*
X158690000Y-108740000D02*
X158690000Y-110120000D01*
X162390000Y-108740000D02*
X162390000Y-110120000D01*
X165650000Y-108740000D02*
X165650000Y-113360000D01*
X165650000Y-113360000D02*
X155430000Y-113360000D01*
%TO.C,D1*%
X104710000Y-112764000D02*
X104710000Y-112920000D01*
X104710000Y-115080000D02*
X104710000Y-115236000D01*
X104710000Y-112764484D02*
G75*
G02*
X107941437Y-112920000I1560000J-1235516D01*
G01*
X105229039Y-112920000D02*
G75*
G02*
X107310961Y-112920000I1040961J-1080000D01*
G01*
X107310961Y-115080000D02*
G75*
G02*
X105229039Y-115080000I-1040961J1080000D01*
G01*
X107941437Y-115080000D02*
G75*
G02*
X104710000Y-115235516I-1671437J1080000D01*
G01*
%TO.C,J5*%
X175880000Y-138130000D02*
X183720000Y-138130000D01*
X175880000Y-139700000D02*
X175880000Y-138130000D01*
X175880000Y-145370000D02*
X175880000Y-140300000D01*
X176400000Y-138130000D02*
X176400000Y-145370000D01*
X177500000Y-138130000D02*
X177500000Y-145370000D01*
X183720000Y-138130000D02*
X183720000Y-145370000D01*
X183720000Y-145370000D02*
X175880000Y-145370000D01*
X175880000Y-140000000D02*
X175270000Y-140440000D01*
X175270000Y-139560000D01*
X175880000Y-140000000D01*
G36*
X175880000Y-140000000D02*
G01*
X175270000Y-140440000D01*
X175270000Y-139560000D01*
X175880000Y-140000000D01*
G37*
%TO.C,R4*%
X153772936Y-128265000D02*
X154227064Y-128265000D01*
X153772936Y-129735000D02*
X154227064Y-129735000D01*
%TO.C,K1*%
X156670000Y-145670000D02*
X158000000Y-145670000D01*
X156670000Y-147000000D02*
X156670000Y-145670000D01*
X159270000Y-145670000D02*
X166950000Y-145670000D01*
X159270000Y-148330000D02*
X159270000Y-145670000D01*
X159270000Y-148330000D02*
X166950000Y-148330000D01*
X166950000Y-148330000D02*
X166950000Y-145670000D01*
%TO.C,C3*%
X149238748Y-121455000D02*
X149761252Y-121455000D01*
X149238748Y-122925000D02*
X149761252Y-122925000D01*
%TO.C,J1*%
X101280000Y-121340000D02*
X111320000Y-121340000D01*
X101280000Y-123700000D02*
X101280000Y-121340000D01*
X101280000Y-131740000D02*
X101280000Y-124300000D01*
X101900000Y-121340000D02*
X101900000Y-131740000D01*
X103400000Y-121340000D02*
X103400000Y-131740000D01*
X108300000Y-121340000D02*
X108300000Y-131740000D01*
X111320000Y-121340000D02*
X111320000Y-131740000D01*
X111320000Y-131740000D02*
X101280000Y-131740000D01*
X101280000Y-124000000D02*
X100670000Y-124440000D01*
X100670000Y-123560000D01*
X101280000Y-124000000D01*
G36*
X101280000Y-124000000D02*
G01*
X100670000Y-124440000D01*
X100670000Y-123560000D01*
X101280000Y-124000000D01*
G37*
%TO.C,J3*%
X166630000Y-151380000D02*
X171700000Y-151380000D01*
X166630000Y-159220000D02*
X166630000Y-151380000D01*
X172300000Y-151380000D02*
X173870000Y-151380000D01*
X173870000Y-151380000D02*
X173870000Y-159220000D01*
X173870000Y-151900000D02*
X166630000Y-151900000D01*
X173870000Y-153000000D02*
X166630000Y-153000000D01*
X173870000Y-159220000D02*
X166630000Y-159220000D01*
X172000000Y-151380000D02*
X171560000Y-150770000D01*
X172440000Y-150770000D01*
X172000000Y-151380000D01*
G36*
X172000000Y-151380000D02*
G01*
X171560000Y-150770000D01*
X172440000Y-150770000D01*
X172000000Y-151380000D01*
G37*
%TO.C,Q2*%
X155430000Y-122740000D02*
X165650000Y-122740000D01*
X155430000Y-124120000D02*
X165650000Y-124120000D01*
X155430000Y-127360000D02*
X155430000Y-122740000D01*
X158690000Y-122740000D02*
X158690000Y-124120000D01*
X162390000Y-122740000D02*
X162390000Y-124120000D01*
X165650000Y-122740000D02*
X165650000Y-127360000D01*
X165650000Y-127360000D02*
X155430000Y-127360000D01*
%TO.C,U1*%
D11*
X129110000Y-114570000D02*
X146890000Y-114570000D01*
X129110000Y-137430000D02*
X129110000Y-114570000D01*
X146890000Y-114570000D02*
X146890000Y-137430000D01*
X146890000Y-137430000D02*
X129110000Y-137430000D01*
%TO.C,Q3*%
D10*
X145470000Y-145850000D02*
X149070000Y-145850000D01*
X145431522Y-145838478D02*
G75*
G02*
X147270000Y-141399999I1838478J1838478D01*
G01*
X147270000Y-141400000D02*
G75*
G02*
X149108478Y-145838478I0J-2600000D01*
G01*
%TO.C,R7*%
X152272936Y-140265000D02*
X152727064Y-140265000D01*
X152272936Y-141735000D02*
X152727064Y-141735000D01*
%TO.C,J2*%
X175880000Y-114130000D02*
X183720000Y-114130000D01*
X175880000Y-115700000D02*
X175880000Y-114130000D01*
X175880000Y-124870000D02*
X175880000Y-116300000D01*
X176400000Y-114130000D02*
X176400000Y-124870000D01*
X177500000Y-114130000D02*
X177500000Y-124870000D01*
X183720000Y-114130000D02*
X183720000Y-124870000D01*
X183720000Y-124870000D02*
X175880000Y-124870000D01*
X175880000Y-116000000D02*
X175270000Y-116440000D01*
X175270000Y-115560000D01*
X175880000Y-116000000D01*
G36*
X175880000Y-116000000D02*
G01*
X175270000Y-116440000D01*
X175270000Y-115560000D01*
X175880000Y-116000000D01*
G37*
%TO.C,R6*%
X109765000Y-118227064D02*
X109765000Y-117772936D01*
X111235000Y-118227064D02*
X111235000Y-117772936D01*
%TO.C,C1*%
X114960000Y-128470000D02*
X111983000Y-128470000D01*
X114960000Y-128510000D02*
X111991000Y-128510000D01*
X114960000Y-128550000D02*
X111998000Y-128550000D01*
X114960000Y-128590000D02*
X112007000Y-128590000D01*
X114960000Y-128630000D02*
X112015000Y-128630000D01*
X114960000Y-128670000D02*
X112024000Y-128670000D01*
X114960000Y-128710000D02*
X112033000Y-128710000D01*
X114960000Y-128750000D02*
X112043000Y-128750000D01*
X114960000Y-128790000D02*
X112053000Y-128790000D01*
X114960000Y-128830000D02*
X112064000Y-128830000D01*
X114960000Y-128870000D02*
X112075000Y-128870000D01*
X114960000Y-128910000D02*
X112087000Y-128910000D01*
X114960000Y-128950000D02*
X112099000Y-128950000D01*
X114960000Y-128990000D02*
X112111000Y-128990000D01*
X114960000Y-129030000D02*
X112124000Y-129030000D01*
X114960000Y-129070000D02*
X112137000Y-129070000D01*
X114960000Y-129110000D02*
X112151000Y-129110000D01*
X114960000Y-129150000D02*
X112165000Y-129150000D01*
X114960000Y-129190000D02*
X112180000Y-129190000D01*
X114960000Y-129230000D02*
X112195000Y-129230000D01*
X114960000Y-129270000D02*
X112211000Y-129270000D01*
X114960000Y-129310000D02*
X112227000Y-129310000D01*
X114960000Y-129350000D02*
X112243000Y-129350000D01*
X114960000Y-129390000D02*
X112260000Y-129390000D01*
X114960000Y-129430000D02*
X112278000Y-129430000D01*
X114960000Y-129470000D02*
X112296000Y-129470000D01*
X114960000Y-129510000D02*
X112315000Y-129510000D01*
X114960000Y-129550000D02*
X112334000Y-129550000D01*
X114960000Y-129590000D02*
X112354000Y-129590000D01*
X114960000Y-129630000D02*
X112374000Y-129630000D01*
X114960000Y-129670000D02*
X112395000Y-129670000D01*
X114960000Y-129710000D02*
X112416000Y-129710000D01*
X114960000Y-129750000D02*
X112438000Y-129750000D01*
X114960000Y-129790000D02*
X112461000Y-129790000D01*
X114960000Y-129830000D02*
X112484000Y-129830000D01*
X114960000Y-129870000D02*
X112507000Y-129870000D01*
X114960000Y-129910000D02*
X112532000Y-129910000D01*
X114960000Y-129950000D02*
X112557000Y-129950000D01*
X114960000Y-129990000D02*
X112582000Y-129990000D01*
X114960000Y-130030000D02*
X112608000Y-130030000D01*
X114960000Y-130070000D02*
X112635000Y-130070000D01*
X114960000Y-130110000D02*
X112663000Y-130110000D01*
X114960000Y-130150000D02*
X112691000Y-130150000D01*
X114960000Y-130190000D02*
X112720000Y-130190000D01*
X114960000Y-130230000D02*
X112750000Y-130230000D01*
X114960000Y-130270000D02*
X112781000Y-130270000D01*
X114960000Y-130310000D02*
X112812000Y-130310000D01*
X114960000Y-130350000D02*
X112844000Y-130350000D01*
X114960000Y-130390000D02*
X112877000Y-130390000D01*
X114960000Y-130430000D02*
X112911000Y-130430000D01*
X114960000Y-130470000D02*
X112945000Y-130470000D01*
X114960000Y-130510000D02*
X112981000Y-130510000D01*
X116533000Y-131830000D02*
X115467000Y-131830000D01*
X116768000Y-131790000D02*
X115232000Y-131790000D01*
X116947000Y-131750000D02*
X115053000Y-131750000D01*
X117097000Y-131710000D02*
X114903000Y-131710000D01*
X117228000Y-131670000D02*
X114772000Y-131670000D01*
X117346000Y-131630000D02*
X114654000Y-131630000D01*
X117453000Y-131590000D02*
X114547000Y-131590000D01*
X117552000Y-131550000D02*
X114448000Y-131550000D01*
X117644000Y-131510000D02*
X114356000Y-131510000D01*
X117731000Y-131470000D02*
X114269000Y-131470000D01*
X117813000Y-131430000D02*
X114187000Y-131430000D01*
X117890000Y-131390000D02*
X114110000Y-131390000D01*
X117964000Y-131350000D02*
X114036000Y-131350000D01*
X118034000Y-131310000D02*
X113966000Y-131310000D01*
X118101000Y-131270000D02*
X113899000Y-131270000D01*
X118165000Y-131230000D02*
X113835000Y-131230000D01*
X118227000Y-131190000D02*
X113773000Y-131190000D01*
X118287000Y-131150000D02*
X113713000Y-131150000D01*
X118315000Y-123340302D02*
X118315000Y-124140302D01*
X118344000Y-131110000D02*
X113656000Y-131110000D01*
X118400000Y-131070000D02*
X113600000Y-131070000D01*
X118453000Y-131030000D02*
X113547000Y-131030000D01*
X118505000Y-130990000D02*
X113495000Y-130990000D01*
X118555000Y-130950000D02*
X113445000Y-130950000D01*
X118604000Y-130910000D02*
X113396000Y-130910000D01*
X118651000Y-130870000D02*
X113349000Y-130870000D01*
X118696000Y-130830000D02*
X113304000Y-130830000D01*
X118715000Y-123740302D02*
X117915000Y-123740302D01*
X118741000Y-130790000D02*
X113259000Y-130790000D01*
X118784000Y-130750000D02*
X113216000Y-130750000D01*
X118826000Y-130710000D02*
X113174000Y-130710000D01*
X118867000Y-130670000D02*
X113133000Y-130670000D01*
X118906000Y-130630000D02*
X113094000Y-130630000D01*
X118945000Y-130590000D02*
X113055000Y-130590000D01*
X118982000Y-130550000D02*
X113018000Y-130550000D01*
X119019000Y-130510000D02*
X117040000Y-130510000D01*
X119055000Y-130470000D02*
X117040000Y-130470000D01*
X119089000Y-130430000D02*
X117040000Y-130430000D01*
X119123000Y-130390000D02*
X117040000Y-130390000D01*
X119156000Y-130350000D02*
X117040000Y-130350000D01*
X119188000Y-130310000D02*
X117040000Y-130310000D01*
X119219000Y-130270000D02*
X117040000Y-130270000D01*
X119250000Y-130230000D02*
X117040000Y-130230000D01*
X119280000Y-130190000D02*
X117040000Y-130190000D01*
X119309000Y-130150000D02*
X117040000Y-130150000D01*
X119337000Y-130110000D02*
X117040000Y-130110000D01*
X119365000Y-130070000D02*
X117040000Y-130070000D01*
X119392000Y-130030000D02*
X117040000Y-130030000D01*
X119418000Y-129990000D02*
X117040000Y-129990000D01*
X119443000Y-129950000D02*
X117040000Y-129950000D01*
X119468000Y-129910000D02*
X117040000Y-129910000D01*
X119493000Y-129870000D02*
X117040000Y-129870000D01*
X119516000Y-129830000D02*
X117040000Y-129830000D01*
X119539000Y-129790000D02*
X117040000Y-129790000D01*
X119562000Y-129750000D02*
X117040000Y-129750000D01*
X119584000Y-129710000D02*
X117040000Y-129710000D01*
X119605000Y-129670000D02*
X117040000Y-129670000D01*
X119626000Y-129630000D02*
X117040000Y-129630000D01*
X119646000Y-129590000D02*
X117040000Y-129590000D01*
X119666000Y-129550000D02*
X117040000Y-129550000D01*
X119685000Y-129510000D02*
X117040000Y-129510000D01*
X119704000Y-129470000D02*
X117040000Y-129470000D01*
X119722000Y-129430000D02*
X117040000Y-129430000D01*
X119740000Y-129390000D02*
X117040000Y-129390000D01*
X119757000Y-129350000D02*
X117040000Y-129350000D01*
X119773000Y-129310000D02*
X117040000Y-129310000D01*
X119789000Y-129270000D02*
X117040000Y-129270000D01*
X119805000Y-129230000D02*
X117040000Y-129230000D01*
X119820000Y-129190000D02*
X117040000Y-129190000D01*
X119835000Y-129150000D02*
X117040000Y-129150000D01*
X119849000Y-129110000D02*
X117040000Y-129110000D01*
X119863000Y-129070000D02*
X117040000Y-129070000D01*
X119876000Y-129030000D02*
X117040000Y-129030000D01*
X119889000Y-128990000D02*
X117040000Y-128990000D01*
X119901000Y-128950000D02*
X117040000Y-128950000D01*
X119913000Y-128910000D02*
X117040000Y-128910000D01*
X119925000Y-128870000D02*
X117040000Y-128870000D01*
X119936000Y-128830000D02*
X117040000Y-128830000D01*
X119947000Y-128790000D02*
X117040000Y-128790000D01*
X119957000Y-128750000D02*
X117040000Y-128750000D01*
X119967000Y-128710000D02*
X117040000Y-128710000D01*
X119976000Y-128670000D02*
X117040000Y-128670000D01*
X119985000Y-128630000D02*
X117040000Y-128630000D01*
X119993000Y-128590000D02*
X117040000Y-128590000D01*
X120002000Y-128550000D02*
X117040000Y-128550000D01*
X120009000Y-128510000D02*
X117040000Y-128510000D01*
X120017000Y-128470000D02*
X117040000Y-128470000D01*
X120023000Y-128430000D02*
X111977000Y-128430000D01*
X120030000Y-128390000D02*
X111970000Y-128390000D01*
X120036000Y-128350000D02*
X111964000Y-128350000D01*
X120042000Y-128310000D02*
X111958000Y-128310000D01*
X120047000Y-128270000D02*
X111953000Y-128270000D01*
X120052000Y-128230000D02*
X111948000Y-128230000D01*
X120056000Y-128190000D02*
X111944000Y-128190000D01*
X120061000Y-128150000D02*
X111939000Y-128150000D01*
X120064000Y-128110000D02*
X111936000Y-128110000D01*
X120068000Y-128070000D02*
X111932000Y-128070000D01*
X120070000Y-128030000D02*
X111930000Y-128030000D01*
X120073000Y-127990000D02*
X111927000Y-127990000D01*
X120075000Y-127950000D02*
X111925000Y-127950000D01*
X120077000Y-127910000D02*
X111923000Y-127910000D01*
X120078000Y-127870000D02*
X111922000Y-127870000D01*
X120079000Y-127830000D02*
X111921000Y-127830000D01*
X120080000Y-127750000D02*
X111920000Y-127750000D01*
X120080000Y-127790000D02*
X111920000Y-127790000D01*
X120120000Y-127750000D02*
G75*
G02*
X111880000Y-127750000I-4120000J0D01*
G01*
X111880000Y-127750000D02*
G75*
G02*
X120120000Y-127750000I4120000J0D01*
G01*
%TO.C,R5*%
X149265000Y-137772936D02*
X149265000Y-138227064D01*
X150735000Y-137772936D02*
X150735000Y-138227064D01*
%TO.C,C2*%
X147738748Y-111765000D02*
X148261252Y-111765000D01*
X147738748Y-113235000D02*
X148261252Y-113235000D01*
%TO.C,R1*%
X149772936Y-114265000D02*
X150227064Y-114265000D01*
X149772936Y-115735000D02*
X150227064Y-115735000D01*
%TD*%
%LPC*%
D12*
%TO.C,R2*%
X153000000Y-115000000D03*
X155000000Y-115000000D03*
%TD*%
D13*
%TO.C,J4*%
X106000000Y-140000000D03*
D14*
X106000000Y-142540000D03*
X106000000Y-145080000D03*
%TD*%
D12*
%TO.C,R3*%
X149000000Y-129000000D03*
X151000000Y-129000000D03*
%TD*%
D15*
%TO.C,Q1*%
X158000000Y-112000000D03*
D16*
X160540000Y-112000000D03*
X163080000Y-112000000D03*
%TD*%
D17*
%TO.C,D1*%
X105000000Y-114000000D03*
D18*
X107540000Y-114000000D03*
%TD*%
D19*
%TO.C,J5*%
X180500000Y-140000000D03*
D20*
X180500000Y-143500000D03*
%TD*%
D21*
%TO.C,H2*%
X178600000Y-104000000D03*
X179302944Y-102302944D03*
X179302944Y-105697056D03*
X181000000Y-101600000D03*
D22*
X181000000Y-104000000D03*
D21*
X181000000Y-106400000D03*
X182697056Y-102302944D03*
X182697056Y-105697056D03*
X183400000Y-104000000D03*
%TD*%
D12*
%TO.C,R4*%
X153000000Y-129000000D03*
X155000000Y-129000000D03*
%TD*%
D21*
%TO.C,H4*%
X178600000Y-156000000D03*
X179302944Y-154302944D03*
X179302944Y-157697056D03*
X181000000Y-153600000D03*
D22*
X181000000Y-156000000D03*
D21*
X181000000Y-158400000D03*
X182697056Y-154302944D03*
X182697056Y-157697056D03*
X183400000Y-156000000D03*
%TD*%
D13*
%TO.C,K1*%
X158000000Y-147000000D03*
D14*
X160540000Y-147000000D03*
X163080000Y-147000000D03*
X165620000Y-147000000D03*
%TD*%
D23*
%TO.C,C3*%
X148462500Y-122190000D03*
X150537500Y-122190000D03*
%TD*%
D24*
%TO.C,J1*%
X106000000Y-124000000D03*
D25*
X106000000Y-129080000D03*
%TD*%
D21*
%TO.C,H1*%
X101600000Y-104000000D03*
X102302944Y-102302944D03*
X102302944Y-105697056D03*
X104000000Y-101600000D03*
D22*
X104000000Y-104000000D03*
D21*
X104000000Y-106400000D03*
X105697056Y-102302944D03*
X105697056Y-105697056D03*
X106400000Y-104000000D03*
%TD*%
D26*
%TO.C,J3*%
X172000000Y-156000000D03*
D20*
X168500000Y-156000000D03*
%TD*%
D15*
%TO.C,Q2*%
X158000000Y-126000000D03*
D16*
X160540000Y-126000000D03*
X163080000Y-126000000D03*
%TD*%
D13*
%TO.C,U1*%
X130380000Y-117110000D03*
D14*
X130380000Y-119650000D03*
X130380000Y-122190000D03*
X130380000Y-124730000D03*
X130380000Y-127270000D03*
X130380000Y-129810000D03*
X130380000Y-132350000D03*
X130380000Y-134890000D03*
X145620000Y-117110000D03*
X145620000Y-119650000D03*
X145620000Y-122190000D03*
X145620000Y-124730000D03*
X145620000Y-127270000D03*
X145620000Y-129810000D03*
X145620000Y-132350000D03*
X145620000Y-134890000D03*
%TD*%
D27*
%TO.C,Q3*%
X146000000Y-144000000D03*
D28*
X147270000Y-144000000D03*
X148540000Y-144000000D03*
%TD*%
D12*
%TO.C,R7*%
X151500000Y-141000000D03*
X153500000Y-141000000D03*
%TD*%
D21*
%TO.C,H3*%
X101600000Y-156000000D03*
X102302944Y-154302944D03*
X102302944Y-157697056D03*
X104000000Y-153600000D03*
D22*
X104000000Y-156000000D03*
D21*
X104000000Y-158400000D03*
X105697056Y-154302944D03*
X105697056Y-157697056D03*
X106400000Y-156000000D03*
%TD*%
D19*
%TO.C,J2*%
X180500000Y-116000000D03*
D20*
X180500000Y-119500000D03*
X180500000Y-123000000D03*
%TD*%
D29*
%TO.C,R6*%
X110500000Y-119000000D03*
X110500000Y-117000000D03*
%TD*%
D30*
%TO.C,C1*%
X116000000Y-126000000D03*
D31*
X116000000Y-129500000D03*
%TD*%
D32*
%TO.C,R5*%
X150000000Y-137000000D03*
X150000000Y-139000000D03*
%TD*%
D23*
%TO.C,C2*%
X146962500Y-112500000D03*
X149037500Y-112500000D03*
%TD*%
D12*
%TO.C,R1*%
X149000000Y-115000000D03*
X151000000Y-115000000D03*
%TD*%
%LPD*%
M02*
