%TF.GenerationSoftware,KiCad,Pcbnew,10.0.3*%
%TF.CreationDate,2026-07-13T12:45:48-05:00*%
%TF.ProjectId,plant-hub-v1.0,706c616e-742d-4687-9562-2d76312e302e,rev?*%
%TF.SameCoordinates,Original*%
%TF.FileFunction,Copper,L1,Top*%
%TF.FilePolarity,Positive*%
%FSLAX46Y46*%
G04 Gerber Fmt 4.6, Leading zero omitted, Abs format (unit mm)*
G04 Created by KiCad (PCBNEW 10.0.3) date 2026-07-13 12:45:48*
%MOMM*%
%LPD*%
G01*
G04 APERTURE LIST*
G04 Aperture macros list*
%AMRoundRect*
0 Rectangle with rounded corners*
0 $1 Rounding radius*
0 $2 $3 $4 $5 $6 $7 $8 $9 X,Y pos of 4 corners*
0 Add a 4 corners polygon primitive as box body*
4,1,4,$2,$3,$4,$5,$6,$7,$8,$9,$2,$3,0*
0 Add four circle primitives for the rounded corners*
1,1,$1+$1,$2,$3*
1,1,$1+$1,$4,$5*
1,1,$1+$1,$6,$7*
1,1,$1+$1,$8,$9*
0 Add four rect primitives between the rounded corners*
20,1,$1+$1,$2,$3,$4,$5,0*
20,1,$1+$1,$4,$5,$6,$7,0*
20,1,$1+$1,$6,$7,$8,$9,0*
20,1,$1+$1,$8,$9,$2,$3,0*%
G04 Aperture macros list end*
%TA.AperFunction,SMDPad,CuDef*%
%ADD10RoundRect,0.250000X-0.350000X-0.450000X0.350000X-0.450000X0.350000X0.450000X-0.350000X0.450000X0*%
%TD*%
%TA.AperFunction,ComponentPad*%
%ADD11R,1.700000X1.700000*%
%TD*%
%TA.AperFunction,ComponentPad*%
%ADD12C,1.700000*%
%TD*%
%TA.AperFunction,ComponentPad*%
%ADD13R,1.905000X2.000000*%
%TD*%
%TA.AperFunction,ComponentPad*%
%ADD14O,1.905000X2.000000*%
%TD*%
%TA.AperFunction,ComponentPad*%
%ADD15R,1.800000X1.800000*%
%TD*%
%TA.AperFunction,ComponentPad*%
%ADD16C,1.800000*%
%TD*%
%TA.AperFunction,ComponentPad*%
%ADD17RoundRect,0.250001X-0.949999X0.949999X-0.949999X-0.949999X0.949999X-0.949999X0.949999X0.949999X0*%
%TD*%
%TA.AperFunction,ComponentPad*%
%ADD18C,2.400000*%
%TD*%
%TA.AperFunction,ComponentPad*%
%ADD19C,0.800000*%
%TD*%
%TA.AperFunction,ComponentPad*%
%ADD20C,6.400000*%
%TD*%
%TA.AperFunction,SMDPad,CuDef*%
%ADD21RoundRect,0.250000X-0.337500X-0.475000X0.337500X-0.475000X0.337500X0.475000X-0.337500X0.475000X0*%
%TD*%
%TA.AperFunction,ComponentPad*%
%ADD22RoundRect,0.250000X-1.050000X1.050000X-1.050000X-1.050000X1.050000X-1.050000X1.050000X1.050000X0*%
%TD*%
%TA.AperFunction,ComponentPad*%
%ADD23C,2.600000*%
%TD*%
%TA.AperFunction,ComponentPad*%
%ADD24RoundRect,0.250001X0.949999X0.949999X-0.949999X0.949999X-0.949999X-0.949999X0.949999X-0.949999X0*%
%TD*%
%TA.AperFunction,ComponentPad*%
%ADD25R,1.050000X1.500000*%
%TD*%
%TA.AperFunction,ComponentPad*%
%ADD26O,1.050000X1.500000*%
%TD*%
%TA.AperFunction,SMDPad,CuDef*%
%ADD27RoundRect,0.250000X0.450000X-0.350000X0.450000X0.350000X-0.450000X0.350000X-0.450000X-0.350000X0*%
%TD*%
%TA.AperFunction,ComponentPad*%
%ADD28RoundRect,0.250000X-0.550000X0.550000X-0.550000X-0.550000X0.550000X-0.550000X0.550000X0.550000X0*%
%TD*%
%TA.AperFunction,ComponentPad*%
%ADD29C,1.600000*%
%TD*%
%TA.AperFunction,SMDPad,CuDef*%
%ADD30RoundRect,0.250000X-0.450000X0.350000X-0.450000X-0.350000X0.450000X-0.350000X0.450000X0.350000X0*%
%TD*%
%TA.AperFunction,ViaPad*%
%ADD31C,0.800000*%
%TD*%
%TA.AperFunction,Conductor*%
%ADD32C,0.250000*%
%TD*%
%TA.AperFunction,Conductor*%
%ADD33C,0.400000*%
%TD*%
%TA.AperFunction,Conductor*%
%ADD34C,1.000000*%
%TD*%
%TA.AperFunction,Conductor*%
%ADD35C,0.500000*%
%TD*%
G04 APERTURE END LIST*
D10*
%TO.P,R2,1*%
%TO.N,G_WHITE*%
X153000000Y-115000000D03*
%TO.P,R2,2*%
%TO.N,GND*%
X155000000Y-115000000D03*
%TD*%
D11*
%TO.P,J4,1*%
%TO.N,+3V3*%
X106000000Y-140000000D03*
D12*
%TO.P,J4,2*%
%TO.N,GND*%
X106000000Y-142540000D03*
%TO.P,J4,3*%
%TO.N,SOIL_ADC*%
X106000000Y-145080000D03*
%TD*%
D10*
%TO.P,R3,1*%
%TO.N,CTRL_GROW*%
X149000000Y-129000000D03*
%TO.P,R3,2*%
%TO.N,G_GROW*%
X151000000Y-129000000D03*
%TD*%
D13*
%TO.P,Q1,1*%
%TO.N,G_WHITE*%
X158000000Y-112000000D03*
D14*
%TO.P,Q1,2*%
%TO.N,LED_WHITE*%
X160540000Y-112000000D03*
%TO.P,Q1,3*%
%TO.N,GND*%
X163080000Y-112000000D03*
%TD*%
D15*
%TO.P,D1,1*%
%TO.N,GND*%
X105000000Y-114000000D03*
D16*
%TO.P,D1,2*%
%TO.N,PWR_LED*%
X107540000Y-114000000D03*
%TD*%
D17*
%TO.P,J5,1*%
%TO.N,+5V*%
X180500000Y-140000000D03*
D18*
%TO.P,J5,2*%
%TO.N,PUMP_SW*%
X180500000Y-143500000D03*
%TD*%
D19*
%TO.P,H2,1*%
%TO.N,GND*%
X178600000Y-104000000D03*
X179302944Y-102302944D03*
X179302944Y-105697056D03*
X181000000Y-101600000D03*
D20*
X181000000Y-104000000D03*
D19*
X181000000Y-106400000D03*
X182697056Y-102302944D03*
X182697056Y-105697056D03*
X183400000Y-104000000D03*
%TD*%
D10*
%TO.P,R4,1*%
%TO.N,G_GROW*%
X153000000Y-129000000D03*
%TO.P,R4,2*%
%TO.N,GND*%
X155000000Y-129000000D03*
%TD*%
D19*
%TO.P,H4,1*%
%TO.N,GND*%
X178600000Y-156000000D03*
X179302944Y-154302944D03*
X179302944Y-157697056D03*
X181000000Y-153600000D03*
D20*
X181000000Y-156000000D03*
D19*
X181000000Y-158400000D03*
X182697056Y-154302944D03*
X182697056Y-157697056D03*
X183400000Y-156000000D03*
%TD*%
D11*
%TO.P,K1,1*%
%TO.N,+5V*%
X158000000Y-147000000D03*
D12*
%TO.P,K1,2*%
%TO.N,GND*%
X160540000Y-147000000D03*
%TO.P,K1,3*%
%TO.N,RELAY_IN*%
X163080000Y-147000000D03*
%TO.P,K1,4*%
%TO.N,N/C*%
X165620000Y-147000000D03*
%TD*%
D21*
%TO.P,C3,1*%
%TO.N,+3V3*%
X148462500Y-122190000D03*
%TO.P,C3,2*%
%TO.N,GND*%
X150537500Y-122190000D03*
%TD*%
D22*
%TO.P,J1,1*%
%TO.N,+5V*%
X106000000Y-124000000D03*
D23*
%TO.P,J1,2*%
%TO.N,GND*%
X106000000Y-129080000D03*
%TD*%
D19*
%TO.P,H1,1*%
%TO.N,GND*%
X101600000Y-104000000D03*
X102302944Y-102302944D03*
X102302944Y-105697056D03*
X104000000Y-101600000D03*
D20*
X104000000Y-104000000D03*
D19*
X104000000Y-106400000D03*
X105697056Y-102302944D03*
X105697056Y-105697056D03*
X106400000Y-104000000D03*
%TD*%
D24*
%TO.P,J3,1*%
%TO.N,PUMP_SW*%
X172000000Y-156000000D03*
D18*
%TO.P,J3,2*%
%TO.N,GND*%
X168500000Y-156000000D03*
%TD*%
D13*
%TO.P,Q2,1*%
%TO.N,G_GROW*%
X158000000Y-126000000D03*
D14*
%TO.P,Q2,2*%
%TO.N,LED_GROW*%
X160540000Y-126000000D03*
%TO.P,Q2,3*%
%TO.N,GND*%
X163080000Y-126000000D03*
%TD*%
D11*
%TO.P,U1,1*%
%TO.N,N/C*%
X130380000Y-117110000D03*
D12*
%TO.P,U1,2*%
%TO.N,CTRL_WHITE*%
X130380000Y-119650000D03*
%TO.P,U1,3*%
%TO.N,CTRL_PUMP*%
X130380000Y-122190000D03*
%TO.P,U1,4*%
%TO.N,N/C*%
X130380000Y-124730000D03*
%TO.P,U1,5*%
X130380000Y-127270000D03*
%TO.P,U1,6*%
%TO.N,CTRL_GROW*%
X130380000Y-129810000D03*
%TO.P,U1,7*%
%TO.N,N/C*%
X130380000Y-132350000D03*
%TO.P,U1,8*%
X130380000Y-134890000D03*
%TO.P,U1,9*%
%TO.N,+5V*%
X145620000Y-117110000D03*
%TO.P,U1,10*%
%TO.N,GND*%
X145620000Y-119650000D03*
%TO.P,U1,11*%
%TO.N,+3V3*%
X145620000Y-122190000D03*
%TO.P,U1,12*%
%TO.N,N/C*%
X145620000Y-124730000D03*
%TO.P,U1,13*%
X145620000Y-127270000D03*
%TO.P,U1,14*%
X145620000Y-129810000D03*
%TO.P,U1,15*%
X145620000Y-132350000D03*
%TO.P,U1,16*%
%TO.N,SOIL_ADC*%
X145620000Y-134890000D03*
%TD*%
D25*
%TO.P,Q3,1*%
%TO.N,GND*%
X146000000Y-144000000D03*
D26*
%TO.P,Q3,2*%
%TO.N,G_PUMP*%
X147270000Y-144000000D03*
%TO.P,Q3,3*%
%TO.N,RELAY_IN*%
X148540000Y-144000000D03*
%TD*%
D10*
%TO.P,R7,1*%
%TO.N,G_PUMP*%
X151500000Y-141000000D03*
%TO.P,R7,2*%
%TO.N,GND*%
X153500000Y-141000000D03*
%TD*%
D19*
%TO.P,H3,1*%
%TO.N,GND*%
X101600000Y-156000000D03*
X102302944Y-154302944D03*
X102302944Y-157697056D03*
X104000000Y-153600000D03*
D20*
X104000000Y-156000000D03*
D19*
X104000000Y-158400000D03*
X105697056Y-154302944D03*
X105697056Y-157697056D03*
X106400000Y-156000000D03*
%TD*%
D17*
%TO.P,J2,1*%
%TO.N,+5V*%
X180500000Y-116000000D03*
D18*
%TO.P,J2,2*%
%TO.N,LED_WHITE*%
X180500000Y-119500000D03*
%TO.P,J2,3*%
%TO.N,LED_GROW*%
X180500000Y-123000000D03*
%TD*%
D27*
%TO.P,R6,1*%
%TO.N,+5V*%
X110500000Y-119000000D03*
%TO.P,R6,2*%
%TO.N,PWR_LED*%
X110500000Y-117000000D03*
%TD*%
D28*
%TO.P,C1,1*%
%TO.N,+5V*%
X116000000Y-126000000D03*
D29*
%TO.P,C1,2*%
%TO.N,GND*%
X116000000Y-129500000D03*
%TD*%
D30*
%TO.P,R5,1*%
%TO.N,CTRL_PUMP*%
X150000000Y-137000000D03*
%TO.P,R5,2*%
%TO.N,G_PUMP*%
X150000000Y-139000000D03*
%TD*%
D21*
%TO.P,C2,1*%
%TO.N,+5V*%
X146962500Y-112500000D03*
%TO.P,C2,2*%
%TO.N,GND*%
X149037500Y-112500000D03*
%TD*%
D10*
%TO.P,R1,1*%
%TO.N,CTRL_WHITE*%
X149000000Y-115000000D03*
%TO.P,R1,2*%
%TO.N,G_WHITE*%
X151000000Y-115000000D03*
%TD*%
D31*
%TO.N,GND*%
X147500000Y-126800000D03*
X163079999Y-114500000D03*
X125500000Y-141000000D03*
X165000000Y-128500000D03*
X160000000Y-157500000D03*
X136000000Y-120900000D03*
X148960000Y-110800000D03*
X144000000Y-146500000D03*
X110000000Y-154000000D03*
X136000000Y-125500000D03*
X136000000Y-145000000D03*
X138000000Y-131000000D03*
X110000000Y-110000000D03*
X120000000Y-135000000D03*
X174000000Y-111000000D03*
X140000000Y-155000000D03*
%TD*%
%TO.N,G_WHITE*%
D32*
X151000000Y-115000000D02*
X153000000Y-115000000D01*
X152000000Y-115000000D02*
X152000000Y-112000000D01*
X152000000Y-112000000D02*
X158000000Y-112000000D01*
%TO.N,+3V3*%
D33*
X145620000Y-122190000D02*
X148462500Y-122190000D01*
%TO.N,CTRL_GROW*%
D32*
X143000000Y-128539999D02*
X147800000Y-128539999D01*
X130380000Y-129810000D02*
X143000000Y-128539999D01*
X147800000Y-128539999D02*
X149000000Y-129000000D01*
%TO.N,G_GROW*%
X152000000Y-129000000D02*
X152000000Y-126000000D01*
X152000000Y-126000000D02*
X158000000Y-126000000D01*
X151000000Y-129000000D02*
X153000000Y-129000000D01*
%TO.N,LED_WHITE*%
D34*
X174000000Y-115000000D02*
X174000000Y-119500000D01*
X160540000Y-112000000D02*
X160540000Y-109700000D01*
X160540000Y-109700000D02*
X168000000Y-109700000D01*
X174000000Y-119500000D02*
X180500000Y-119500000D01*
X168000000Y-109700000D02*
X174000000Y-115000000D01*
%TO.N,PWR_LED*%
D32*
X110500000Y-117000000D02*
X110500000Y-114000000D01*
X110500000Y-114000000D02*
X107540000Y-114000000D01*
%TO.N,+5V*%
D34*
X116000000Y-124000000D02*
X116000000Y-126000000D01*
X179000000Y-116000000D02*
X180500000Y-116000000D01*
X106000000Y-124000000D02*
X114000000Y-124000000D01*
X179000000Y-108000000D02*
X179000000Y-116000000D01*
X145620000Y-108000000D02*
X145620000Y-117110000D01*
X176000000Y-140000000D02*
X180500000Y-140000000D01*
D35*
X110500000Y-124000000D02*
X110500000Y-119000000D01*
D34*
X176000000Y-152000000D02*
X176000000Y-140000000D01*
X158000000Y-152000000D02*
X158000000Y-147000000D01*
D35*
X145620000Y-112500000D02*
X146962500Y-112500000D01*
D34*
X122000000Y-152000000D02*
X122000000Y-108000000D01*
X122000000Y-152000000D02*
X176000000Y-152000000D01*
X114000000Y-124000000D02*
X122000000Y-124000000D01*
X122000000Y-108000000D02*
X179000000Y-108000000D01*
%TO.N,PUMP_SW*%
X180500000Y-143500000D02*
X180500000Y-150000000D01*
X177000000Y-153000000D02*
X172000000Y-156000000D01*
X180500000Y-150000000D02*
X177000000Y-153000000D01*
%TO.N,RELAY_IN*%
D35*
X161500000Y-144400000D02*
X163080000Y-147000000D01*
X151079999Y-144400000D02*
X161500000Y-144400000D01*
X148540000Y-144000000D02*
X151079999Y-144400000D01*
%TO.N,LED_GROW*%
D34*
X160540000Y-126000000D02*
X160540000Y-122800000D01*
X160540000Y-122800000D02*
X166000000Y-122800000D01*
X166000000Y-122800000D02*
X180500000Y-123000000D01*
%TO.N,CTRL_WHITE*%
D32*
X130380000Y-119650000D02*
X143500000Y-118380000D01*
X147300000Y-118380000D02*
X149000000Y-115000000D01*
X143500000Y-118380000D02*
X147300000Y-118380000D01*
%TO.N,CTRL_PUMP*%
X143000000Y-123460000D02*
X147000000Y-123460000D01*
X150000000Y-125500000D02*
X150000000Y-137000000D01*
X130380000Y-122190000D02*
X143000000Y-123460000D01*
X147000000Y-123460000D02*
X150000000Y-125500000D01*
%TO.N,G_PUMP*%
X150000000Y-141000000D02*
X151500000Y-141000000D01*
X150000000Y-139000000D02*
X150000000Y-141000000D01*
X150000000Y-141000000D02*
X147270000Y-142800000D01*
X147270000Y-142800000D02*
X147270000Y-144000000D01*
%TD*%
%TA.AperFunction,Conductor*%
%TO.N,GND*%
G36*
X144762539Y-108820185D02*
G01*
X144808294Y-108872989D01*
X144819500Y-108924500D01*
X144819500Y-116232084D01*
X144799815Y-116299123D01*
X144783181Y-116319765D01*
X144742445Y-116360500D01*
X144742441Y-116360505D01*
X144636006Y-116507002D01*
X144553788Y-116668360D01*
X144553787Y-116668363D01*
X144497829Y-116840589D01*
X144469500Y-117019448D01*
X144469500Y-117200551D01*
X144497829Y-117379410D01*
X144553787Y-117551636D01*
X144553788Y-117551639D01*
X144636006Y-117712997D01*
X144668422Y-117757615D01*
X144691902Y-117823422D01*
X144676076Y-117891475D01*
X144625970Y-117940170D01*
X144568104Y-117954500D01*
X143535249Y-117954500D01*
X143514761Y-117951082D01*
X143479451Y-117954500D01*
X143443976Y-117954500D01*
X143433838Y-117957217D01*
X143413696Y-117960864D01*
X131487047Y-119115350D01*
X131418423Y-119102216D01*
X131367793Y-119054066D01*
X131364612Y-119048215D01*
X131363994Y-119047003D01*
X131257558Y-118900505D01*
X131257554Y-118900500D01*
X131129499Y-118772445D01*
X131129494Y-118772441D01*
X130982997Y-118666006D01*
X130982996Y-118666005D01*
X130982994Y-118666004D01*
X130913322Y-118630504D01*
X130821639Y-118583788D01*
X130821636Y-118583787D01*
X130649410Y-118527829D01*
X130517728Y-118506972D01*
X130454594Y-118477042D01*
X130417663Y-118417731D01*
X130418661Y-118347868D01*
X130457271Y-118289636D01*
X130521235Y-118261522D01*
X130537120Y-118260499D01*
X131274864Y-118260499D01*
X131274879Y-118260497D01*
X131274882Y-118260497D01*
X131299987Y-118257586D01*
X131299988Y-118257585D01*
X131299991Y-118257585D01*
X131402765Y-118212206D01*
X131482206Y-118132765D01*
X131527585Y-118029991D01*
X131530500Y-118004865D01*
X131530499Y-116215136D01*
X131530497Y-116215117D01*
X131527586Y-116190012D01*
X131527585Y-116190010D01*
X131527585Y-116190009D01*
X131482206Y-116087235D01*
X131402765Y-116007794D01*
X131362187Y-115989877D01*
X131299992Y-115962415D01*
X131274865Y-115959500D01*
X129485143Y-115959500D01*
X129485117Y-115959502D01*
X129460012Y-115962413D01*
X129460008Y-115962415D01*
X129357235Y-116007793D01*
X129277794Y-116087234D01*
X129232415Y-116190006D01*
X129232415Y-116190008D01*
X129229500Y-116215131D01*
X129229500Y-118004856D01*
X129229502Y-118004882D01*
X129232413Y-118029987D01*
X129232415Y-118029991D01*
X129277793Y-118132764D01*
X129277794Y-118132765D01*
X129357235Y-118212206D01*
X129460009Y-118257585D01*
X129485135Y-118260500D01*
X130222873Y-118260499D01*
X130289910Y-118280183D01*
X130335665Y-118332987D01*
X130345609Y-118402146D01*
X130316584Y-118465702D01*
X130257806Y-118503476D01*
X130242270Y-118506972D01*
X130110589Y-118527829D01*
X129938363Y-118583787D01*
X129938360Y-118583788D01*
X129777002Y-118666006D01*
X129630505Y-118772441D01*
X129630500Y-118772445D01*
X129502445Y-118900500D01*
X129502441Y-118900505D01*
X129396006Y-119047002D01*
X129313788Y-119208360D01*
X129313787Y-119208363D01*
X129257829Y-119380589D01*
X129229500Y-119559448D01*
X129229500Y-119740551D01*
X129257829Y-119919410D01*
X129313787Y-120091636D01*
X129313788Y-120091639D01*
X129396006Y-120252997D01*
X129502441Y-120399494D01*
X129502445Y-120399499D01*
X129630500Y-120527554D01*
X129630505Y-120527558D01*
X129758287Y-120620396D01*
X129777006Y-120633996D01*
X129882484Y-120687740D01*
X129938360Y-120716211D01*
X129938363Y-120716212D01*
X130024476Y-120744191D01*
X130110591Y-120772171D01*
X130181122Y-120783342D01*
X130270678Y-120797527D01*
X130333813Y-120827456D01*
X130370744Y-120886768D01*
X130369746Y-120956631D01*
X130331136Y-121014863D01*
X130270678Y-121042473D01*
X130110589Y-121067829D01*
X129938363Y-121123787D01*
X129938360Y-121123788D01*
X129777002Y-121206006D01*
X129630505Y-121312441D01*
X129630500Y-121312445D01*
X129502445Y-121440500D01*
X129502441Y-121440505D01*
X129396006Y-121587002D01*
X129313788Y-121748360D01*
X129313787Y-121748363D01*
X129257829Y-121920589D01*
X129229500Y-122099448D01*
X129229500Y-122280551D01*
X129257829Y-122459410D01*
X129313787Y-122631636D01*
X129313788Y-122631639D01*
X129352396Y-122707409D01*
X129396003Y-122792993D01*
X129396006Y-122792997D01*
X129502441Y-122939494D01*
X129502445Y-122939499D01*
X129630500Y-123067554D01*
X129630505Y-123067558D01*
X129733709Y-123142539D01*
X129777006Y-123173996D01*
X129858462Y-123215500D01*
X129938360Y-123256211D01*
X129938363Y-123256212D01*
X130024476Y-123284191D01*
X130110591Y-123312171D01*
X130183639Y-123323740D01*
X130270678Y-123337527D01*
X130333813Y-123367456D01*
X130370744Y-123426768D01*
X130369746Y-123496631D01*
X130331136Y-123554863D01*
X130270678Y-123582473D01*
X130110589Y-123607829D01*
X129938363Y-123663787D01*
X129938360Y-123663788D01*
X129777002Y-123746006D01*
X129630505Y-123852441D01*
X129630500Y-123852445D01*
X129502445Y-123980500D01*
X129502441Y-123980505D01*
X129396006Y-124127002D01*
X129313788Y-124288360D01*
X129313787Y-124288363D01*
X129257829Y-124460589D01*
X129229500Y-124639448D01*
X129229500Y-124820551D01*
X129257829Y-124999410D01*
X129313787Y-125171636D01*
X129313788Y-125171639D01*
X129369664Y-125281300D01*
X129395533Y-125332070D01*
X129396006Y-125332997D01*
X129502441Y-125479494D01*
X129502445Y-125479499D01*
X129630500Y-125607554D01*
X129630505Y-125607558D01*
X129705841Y-125662292D01*
X129777006Y-125713996D01*
X129882484Y-125767740D01*
X129938360Y-125796211D01*
X129938363Y-125796212D01*
X130024476Y-125824191D01*
X130110591Y-125852171D01*
X130183639Y-125863740D01*
X130270678Y-125877527D01*
X130333813Y-125907456D01*
X130370744Y-125966768D01*
X130369746Y-126036631D01*
X130331136Y-126094863D01*
X130270678Y-126122473D01*
X130110589Y-126147829D01*
X129938363Y-126203787D01*
X129938360Y-126203788D01*
X129777002Y-126286006D01*
X129630505Y-126392441D01*
X129630500Y-126392445D01*
X129502445Y-126520500D01*
X129502441Y-126520505D01*
X129396006Y-126667002D01*
X129313788Y-126828360D01*
X129313787Y-126828363D01*
X129257829Y-127000589D01*
X129229500Y-127179448D01*
X129229500Y-127360551D01*
X129257829Y-127539410D01*
X129313787Y-127711636D01*
X129313788Y-127711639D01*
X129369664Y-127821300D01*
X129396003Y-127872993D01*
X129396006Y-127872997D01*
X129502441Y-128019494D01*
X129502445Y-128019499D01*
X129630500Y-128147554D01*
X129630505Y-128147558D01*
X129710284Y-128205520D01*
X129777006Y-128253996D01*
X129882484Y-128307740D01*
X129938360Y-128336211D01*
X129938363Y-128336212D01*
X130024476Y-128364191D01*
X130110591Y-128392171D01*
X130183639Y-128403740D01*
X130270678Y-128417527D01*
X130333813Y-128447456D01*
X130370744Y-128506768D01*
X130369746Y-128576631D01*
X130331136Y-128634863D01*
X130270678Y-128662473D01*
X130110589Y-128687829D01*
X129938363Y-128743787D01*
X129938360Y-128743788D01*
X129777002Y-128826006D01*
X129630505Y-128932441D01*
X129630500Y-128932445D01*
X129502445Y-129060500D01*
X129502441Y-129060505D01*
X129396006Y-129207002D01*
X129313788Y-129368360D01*
X129313787Y-129368363D01*
X129257829Y-129540589D01*
X129229500Y-129719448D01*
X129229500Y-129900551D01*
X129257829Y-130079410D01*
X129313787Y-130251636D01*
X129313788Y-130251639D01*
X129396006Y-130412997D01*
X129502441Y-130559494D01*
X129502445Y-130559499D01*
X129630500Y-130687554D01*
X129630505Y-130687558D01*
X129717704Y-130750911D01*
X129777006Y-130793996D01*
X129882484Y-130847740D01*
X129938360Y-130876211D01*
X129938363Y-130876212D01*
X130024476Y-130904191D01*
X130110591Y-130932171D01*
X130183639Y-130943740D01*
X130270678Y-130957527D01*
X130333813Y-130987456D01*
X130370744Y-131046768D01*
X130369746Y-131116631D01*
X130331136Y-131174863D01*
X130270678Y-131202473D01*
X130110589Y-131227829D01*
X129938363Y-131283787D01*
X129938360Y-131283788D01*
X129777002Y-131366006D01*
X129630505Y-131472441D01*
X129630500Y-131472445D01*
X129502445Y-131600500D01*
X129502441Y-131600505D01*
X129396006Y-131747002D01*
X129313788Y-131908360D01*
X129313787Y-131908363D01*
X129257829Y-132080589D01*
X129229500Y-132259448D01*
X129229500Y-132440551D01*
X129257829Y-132619410D01*
X129313787Y-132791636D01*
X129313788Y-132791639D01*
X129396006Y-132952997D01*
X129502441Y-133099494D01*
X129502445Y-133099499D01*
X129630500Y-133227554D01*
X129630505Y-133227558D01*
X129758287Y-133320396D01*
X129777006Y-133333996D01*
X129882484Y-133387740D01*
X129938360Y-133416211D01*
X129938363Y-133416212D01*
X130024476Y-133444191D01*
X130110591Y-133472171D01*
X130183639Y-133483740D01*
X130270678Y-133497527D01*
X130333813Y-133527456D01*
X130370744Y-133586768D01*
X130369746Y-133656631D01*
X130331136Y-133714863D01*
X130270678Y-133742473D01*
X130110589Y-133767829D01*
X129938363Y-133823787D01*
X129938360Y-133823788D01*
X129777002Y-133906006D01*
X129630505Y-134012441D01*
X129630500Y-134012445D01*
X129502445Y-134140500D01*
X129502441Y-134140505D01*
X129396006Y-134287002D01*
X129313788Y-134448360D01*
X129313787Y-134448363D01*
X129257829Y-134620589D01*
X129229500Y-134799448D01*
X129229500Y-134980551D01*
X129257829Y-135159410D01*
X129313787Y-135331636D01*
X129313788Y-135331639D01*
X129396006Y-135492997D01*
X129502441Y-135639494D01*
X129502445Y-135639499D01*
X129630500Y-135767554D01*
X129630505Y-135767558D01*
X129758287Y-135860396D01*
X129777006Y-135873996D01*
X129882484Y-135927740D01*
X129938360Y-135956211D01*
X129938363Y-135956212D01*
X130024476Y-135984191D01*
X130110591Y-136012171D01*
X130193429Y-136025291D01*
X130289449Y-136040500D01*
X130289454Y-136040500D01*
X130470551Y-136040500D01*
X130557259Y-136026765D01*
X130649409Y-136012171D01*
X130821639Y-135956211D01*
X130982994Y-135873996D01*
X131129501Y-135767553D01*
X131257553Y-135639501D01*
X131363996Y-135492994D01*
X131446211Y-135331639D01*
X131502171Y-135159409D01*
X131516765Y-135067259D01*
X131530500Y-134980551D01*
X131530500Y-134799448D01*
X131514019Y-134695397D01*
X131502171Y-134620591D01*
X131446211Y-134448361D01*
X131446211Y-134448360D01*
X131417740Y-134392484D01*
X131363996Y-134287006D01*
X131350396Y-134268287D01*
X131257558Y-134140505D01*
X131257554Y-134140500D01*
X131129499Y-134012445D01*
X131129494Y-134012441D01*
X130982997Y-133906006D01*
X130982996Y-133906005D01*
X130982994Y-133906004D01*
X130931300Y-133879664D01*
X130821639Y-133823788D01*
X130821636Y-133823787D01*
X130649410Y-133767829D01*
X130489321Y-133742473D01*
X130426186Y-133712544D01*
X130389255Y-133653232D01*
X130390253Y-133583370D01*
X130428863Y-133525137D01*
X130489321Y-133497527D01*
X130559425Y-133486422D01*
X130649409Y-133472171D01*
X130821639Y-133416211D01*
X130982994Y-133333996D01*
X131129501Y-133227553D01*
X131257553Y-133099501D01*
X131363996Y-132952994D01*
X131446211Y-132791639D01*
X131502171Y-132619409D01*
X131516765Y-132527259D01*
X131530500Y-132440551D01*
X131530500Y-132259448D01*
X131514019Y-132155397D01*
X131502171Y-132080591D01*
X131446211Y-131908361D01*
X131446211Y-131908360D01*
X131417740Y-131852484D01*
X131363996Y-131747006D01*
X131350396Y-131728287D01*
X131257558Y-131600505D01*
X131257554Y-131600500D01*
X131129499Y-131472445D01*
X131129494Y-131472441D01*
X130982997Y-131366006D01*
X130982996Y-131366005D01*
X130982994Y-131366004D01*
X130931300Y-131339664D01*
X130821639Y-131283788D01*
X130821636Y-131283787D01*
X130649410Y-131227829D01*
X130489321Y-131202473D01*
X130426186Y-131172544D01*
X130389255Y-131113232D01*
X130390253Y-131043370D01*
X130428863Y-130985137D01*
X130489321Y-130957527D01*
X130559425Y-130946422D01*
X130649409Y-130932171D01*
X130821639Y-130876211D01*
X130982994Y-130793996D01*
X131129501Y-130687553D01*
X131257553Y-130559501D01*
X131363996Y-130412994D01*
X131446211Y-130251639D01*
X131461946Y-130203209D01*
X131501381Y-130145534D01*
X131565739Y-130118335D01*
X131567344Y-130118161D01*
X143015168Y-128966121D01*
X143027584Y-128965499D01*
X144568105Y-128965499D01*
X144635144Y-128985184D01*
X144680899Y-129037988D01*
X144690843Y-129107146D01*
X144668423Y-129162384D01*
X144636006Y-129207002D01*
X144553788Y-129368360D01*
X144553787Y-129368363D01*
X144497829Y-129540589D01*
X144469500Y-129719448D01*
X144469500Y-129900551D01*
X144497829Y-130079410D01*
X144553787Y-130251636D01*
X144553788Y-130251639D01*
X144636006Y-130412997D01*
X144742441Y-130559494D01*
X144742445Y-130559499D01*
X144870500Y-130687554D01*
X144870505Y-130687558D01*
X144957704Y-130750911D01*
X145017006Y-130793996D01*
X145122484Y-130847740D01*
X145178360Y-130876211D01*
X145178363Y-130876212D01*
X145264476Y-130904191D01*
X145350591Y-130932171D01*
X145423639Y-130943740D01*
X145510678Y-130957527D01*
X145573813Y-130987456D01*
X145610744Y-131046768D01*
X145609746Y-131116631D01*
X145571136Y-131174863D01*
X145510678Y-131202473D01*
X145350589Y-131227829D01*
X145178363Y-131283787D01*
X145178360Y-131283788D01*
X145017002Y-131366006D01*
X144870505Y-131472441D01*
X144870500Y-131472445D01*
X144742445Y-131600500D01*
X144742441Y-131600505D01*
X144636006Y-131747002D01*
X144553788Y-131908360D01*
X144553787Y-131908363D01*
X144497829Y-132080589D01*
X144469500Y-132259448D01*
X144469500Y-132440551D01*
X144497829Y-132619410D01*
X144553787Y-132791636D01*
X144553788Y-132791639D01*
X144636006Y-132952997D01*
X144742441Y-133099494D01*
X144742445Y-133099499D01*
X144870500Y-133227554D01*
X144870505Y-133227558D01*
X144998287Y-133320396D01*
X145017006Y-133333996D01*
X145122484Y-133387740D01*
X145178360Y-133416211D01*
X145178363Y-133416212D01*
X145264476Y-133444191D01*
X145350591Y-133472171D01*
X145423639Y-133483740D01*
X145510678Y-133497527D01*
X145573813Y-133527456D01*
X145610744Y-133586768D01*
X145609746Y-133656631D01*
X145571136Y-133714863D01*
X145510678Y-133742473D01*
X145350589Y-133767829D01*
X145178363Y-133823787D01*
X145178360Y-133823788D01*
X145017002Y-133906006D01*
X144870505Y-134012441D01*
X144870500Y-134012445D01*
X144742445Y-134140500D01*
X144742441Y-134140505D01*
X144636006Y-134287002D01*
X144553788Y-134448360D01*
X144553787Y-134448363D01*
X144497829Y-134620589D01*
X144469500Y-134799448D01*
X144469500Y-134980551D01*
X144497829Y-135159410D01*
X144553787Y-135331636D01*
X144553788Y-135331639D01*
X144636006Y-135492997D01*
X144742441Y-135639494D01*
X144742445Y-135639499D01*
X144870500Y-135767554D01*
X144870505Y-135767558D01*
X144998287Y-135860396D01*
X145017006Y-135873996D01*
X145122484Y-135927740D01*
X145178360Y-135956211D01*
X145178363Y-135956212D01*
X145264476Y-135984191D01*
X145350591Y-136012171D01*
X145433429Y-136025291D01*
X145529449Y-136040500D01*
X145529454Y-136040500D01*
X145710551Y-136040500D01*
X145797259Y-136026765D01*
X145889409Y-136012171D01*
X146061639Y-135956211D01*
X146222994Y-135873996D01*
X146369501Y-135767553D01*
X146497553Y-135639501D01*
X146603996Y-135492994D01*
X146686211Y-135331639D01*
X146742171Y-135159409D01*
X146756765Y-135067259D01*
X146770500Y-134980551D01*
X146770500Y-134799448D01*
X146754019Y-134695397D01*
X146742171Y-134620591D01*
X146686211Y-134448361D01*
X146686211Y-134448360D01*
X146657740Y-134392484D01*
X146603996Y-134287006D01*
X146590396Y-134268287D01*
X146497558Y-134140505D01*
X146497554Y-134140500D01*
X146369499Y-134012445D01*
X146369494Y-134012441D01*
X146222997Y-133906006D01*
X146222996Y-133906005D01*
X146222994Y-133906004D01*
X146171300Y-133879664D01*
X146061639Y-133823788D01*
X146061636Y-133823787D01*
X145889410Y-133767829D01*
X145729321Y-133742473D01*
X145666186Y-133712544D01*
X145629255Y-133653232D01*
X145630253Y-133583370D01*
X145668863Y-133525137D01*
X145729321Y-133497527D01*
X145799425Y-133486422D01*
X145889409Y-133472171D01*
X146061639Y-133416211D01*
X146222994Y-133333996D01*
X146369501Y-133227553D01*
X146497553Y-133099501D01*
X146603996Y-132952994D01*
X146686211Y-132791639D01*
X146742171Y-132619409D01*
X146756765Y-132527259D01*
X146770500Y-132440551D01*
X146770500Y-132259448D01*
X146754019Y-132155397D01*
X146742171Y-132080591D01*
X146686211Y-131908361D01*
X146686211Y-131908360D01*
X146657740Y-131852484D01*
X146603996Y-131747006D01*
X146590396Y-131728287D01*
X146497558Y-131600505D01*
X146497554Y-131600500D01*
X146369499Y-131472445D01*
X146369494Y-131472441D01*
X146222997Y-131366006D01*
X146222996Y-131366005D01*
X146222994Y-131366004D01*
X146171300Y-131339664D01*
X146061639Y-131283788D01*
X146061636Y-131283787D01*
X145889410Y-131227829D01*
X145729321Y-131202473D01*
X145666186Y-131172544D01*
X145629255Y-131113232D01*
X145630253Y-131043370D01*
X145668863Y-130985137D01*
X145729321Y-130957527D01*
X145799425Y-130946422D01*
X145889409Y-130932171D01*
X146061639Y-130876211D01*
X146222994Y-130793996D01*
X146369501Y-130687553D01*
X146497553Y-130559501D01*
X146603996Y-130412994D01*
X146686211Y-130251639D01*
X146742171Y-130079409D01*
X146759866Y-129967685D01*
X146770500Y-129900551D01*
X146770500Y-129719448D01*
X146749187Y-129584888D01*
X146742171Y-129540591D01*
X146698295Y-129405552D01*
X146686212Y-129368363D01*
X146686211Y-129368360D01*
X146657740Y-129312484D01*
X146603996Y-129207006D01*
X146584317Y-129179920D01*
X146571577Y-129162384D01*
X146548097Y-129096578D01*
X146563923Y-129028524D01*
X146614028Y-128979829D01*
X146671895Y-128965499D01*
X147698285Y-128965499D01*
X147742669Y-128973714D01*
X147772591Y-128985184D01*
X148019885Y-129079980D01*
X148075436Y-129122355D01*
X148099259Y-129188038D01*
X148099500Y-129195764D01*
X148099500Y-129493102D01*
X148102206Y-129515634D01*
X148110122Y-129581561D01*
X148110122Y-129581563D01*
X148110123Y-129581564D01*
X148115354Y-129594829D01*
X148165639Y-129722343D01*
X148257077Y-129842922D01*
X148377656Y-129934360D01*
X148377657Y-129934360D01*
X148377658Y-129934361D01*
X148518436Y-129989877D01*
X148606898Y-130000500D01*
X148606903Y-130000500D01*
X149393095Y-130000500D01*
X149393102Y-130000500D01*
X149435718Y-129995382D01*
X149504624Y-130006934D01*
X149556348Y-130053906D01*
X149574500Y-130118498D01*
X149574500Y-135981381D01*
X149554815Y-136048420D01*
X149502011Y-136094175D01*
X149465285Y-136104496D01*
X149418441Y-136110121D01*
X149277656Y-136165639D01*
X149157077Y-136257077D01*
X149065639Y-136377656D01*
X149010122Y-136518438D01*
X149004188Y-136567853D01*
X148999500Y-136606898D01*
X148999500Y-137393102D01*
X149005126Y-137439954D01*
X149010122Y-137481561D01*
X149065639Y-137622343D01*
X149157077Y-137742922D01*
X149277656Y-137834360D01*
X149277657Y-137834360D01*
X149277658Y-137834361D01*
X149405171Y-137884646D01*
X149460314Y-137927551D01*
X149483507Y-137993459D01*
X149467386Y-138061444D01*
X149417070Y-138109920D01*
X149405178Y-138115351D01*
X149353663Y-138135665D01*
X149277656Y-138165639D01*
X149157077Y-138257077D01*
X149065639Y-138377656D01*
X149010122Y-138518438D01*
X149004455Y-138565639D01*
X148999500Y-138606898D01*
X148999500Y-139393102D01*
X149005126Y-139439954D01*
X149010122Y-139481561D01*
X149065639Y-139622343D01*
X149157077Y-139742922D01*
X149277656Y-139834360D01*
X149277657Y-139834360D01*
X149277658Y-139834361D01*
X149418436Y-139889877D01*
X149465285Y-139895502D01*
X149529497Y-139923039D01*
X149568631Y-139980921D01*
X149574500Y-140018618D01*
X149574500Y-140704114D01*
X149554815Y-140771153D01*
X149518757Y-140807637D01*
X147049394Y-142435789D01*
X147049393Y-142435789D01*
X147046308Y-142437822D01*
X147008737Y-142459515D01*
X146999695Y-142468555D01*
X146989199Y-142475476D01*
X146989194Y-142475481D01*
X146989014Y-142475599D01*
X146989009Y-142475603D01*
X146962644Y-142505297D01*
X146957606Y-142510643D01*
X146929518Y-142538732D01*
X146929508Y-142538745D01*
X146929417Y-142538903D01*
X146929418Y-142538904D01*
X146926268Y-142544359D01*
X146923119Y-142549813D01*
X146914626Y-142559380D01*
X146895195Y-142598177D01*
X146893356Y-142601364D01*
X146873496Y-142635762D01*
X146873495Y-142635766D01*
X146873443Y-142635962D01*
X146864555Y-142659359D01*
X146864459Y-142659549D01*
X146864456Y-142659558D01*
X146856468Y-142698464D01*
X146856469Y-142698465D01*
X146855726Y-142702083D01*
X146844500Y-142743982D01*
X146844500Y-142756768D01*
X146841968Y-142769103D01*
X146841968Y-142769105D01*
X146840294Y-142777261D01*
X146839035Y-142777002D01*
X146817495Y-142834704D01*
X146761550Y-142876560D01*
X146691857Y-142881525D01*
X146661955Y-142870851D01*
X146650147Y-142864835D01*
X146650144Y-142864833D01*
X146556486Y-142850000D01*
X146250000Y-142850000D01*
X146250000Y-143719670D01*
X146230255Y-143699925D01*
X146144745Y-143650556D01*
X146049370Y-143625000D01*
X145950630Y-143625000D01*
X145855255Y-143650556D01*
X145769745Y-143699925D01*
X145750000Y-143719670D01*
X145750000Y-142850000D01*
X145443520Y-142850000D01*
X145349850Y-142864835D01*
X145349844Y-142864837D01*
X145236958Y-142922356D01*
X145236949Y-142922363D01*
X145147363Y-143011949D01*
X145147360Y-143011953D01*
X145089833Y-143124855D01*
X145075000Y-143218513D01*
X145075000Y-143750000D01*
X145719670Y-143750000D01*
X145699925Y-143769745D01*
X145650556Y-143855255D01*
X145625000Y-143950630D01*
X145625000Y-144049370D01*
X145650556Y-144144745D01*
X145699925Y-144230255D01*
X145719670Y-144250000D01*
X145075001Y-144250000D01*
X145075001Y-144781479D01*
X145089835Y-144875149D01*
X145089837Y-144875155D01*
X145147356Y-144988041D01*
X145147363Y-144988050D01*
X145236949Y-145077636D01*
X145236953Y-145077639D01*
X145349855Y-145135166D01*
X145443514Y-145149999D01*
X145749999Y-145149999D01*
X145750000Y-145149998D01*
X145750000Y-144280330D01*
X145769745Y-144300075D01*
X145855255Y-144349444D01*
X145950630Y-144375000D01*
X146049370Y-144375000D01*
X146144745Y-144349444D01*
X146230255Y-144300075D01*
X146250000Y-144280330D01*
X146250000Y-145149999D01*
X146556479Y-145149999D01*
X146650149Y-145135164D01*
X146650155Y-145135162D01*
X146763041Y-145077643D01*
X146824038Y-145016646D01*
X146885361Y-144983160D01*
X146955053Y-144988144D01*
X146959136Y-144989750D01*
X147029211Y-145018776D01*
X147029215Y-145018776D01*
X147029216Y-145018777D01*
X147188692Y-145050500D01*
X147188695Y-145050500D01*
X147351307Y-145050500D01*
X147458598Y-145029157D01*
X147510789Y-145018776D01*
X147661021Y-144956548D01*
X147661023Y-144956547D01*
X147728169Y-144911680D01*
X147796225Y-144866208D01*
X147817319Y-144845113D01*
X147878640Y-144811629D01*
X147948331Y-144816612D01*
X147992680Y-144845113D01*
X148013772Y-144866205D01*
X148013777Y-144866210D01*
X148013779Y-144866211D01*
X148148976Y-144956547D01*
X148148980Y-144956549D01*
X148278275Y-145010104D01*
X148299211Y-145018776D01*
X148299215Y-145018776D01*
X148299216Y-145018777D01*
X148458692Y-145050500D01*
X148458695Y-145050500D01*
X148621307Y-145050500D01*
X148728598Y-145029157D01*
X148780789Y-145018776D01*
X148931021Y-144956548D01*
X148931023Y-144956547D01*
X148998169Y-144911680D01*
X149066225Y-144866208D01*
X149181208Y-144751225D01*
X149193352Y-144733048D01*
X149246960Y-144688245D01*
X149315743Y-144679449D01*
X150965625Y-144939273D01*
X151007524Y-144950500D01*
X151036915Y-144950500D01*
X151065954Y-144955073D01*
X151102578Y-144951190D01*
X151115648Y-144950500D01*
X161120610Y-144950500D01*
X161187649Y-144970185D01*
X161226577Y-145010103D01*
X161311591Y-145149999D01*
X162047958Y-146361742D01*
X162049166Y-146366275D01*
X162052391Y-146369680D01*
X162058076Y-146399708D01*
X162065951Y-146429255D01*
X162064758Y-146435000D01*
X162065389Y-146438330D01*
X162060854Y-146453816D01*
X162056956Y-146472602D01*
X162054925Y-146477625D01*
X162013789Y-146558361D01*
X161978904Y-146665725D01*
X161977275Y-146669758D01*
X161958169Y-146693888D01*
X161940802Y-146719288D01*
X161936681Y-146721029D01*
X161933904Y-146724537D01*
X161904794Y-146734505D01*
X161876444Y-146746486D01*
X161872034Y-146745722D01*
X161867803Y-146747172D01*
X161837922Y-146739819D01*
X161807597Y-146734571D01*
X161804301Y-146731545D01*
X161799957Y-146730477D01*
X161778794Y-146708136D01*
X161756122Y-146687327D01*
X161753364Y-146681290D01*
X161751908Y-146679752D01*
X161751373Y-146676929D01*
X161744378Y-146661612D01*
X161698418Y-146520164D01*
X161609096Y-146344858D01*
X161583678Y-146309873D01*
X161583677Y-146309873D01*
X161022962Y-146870589D01*
X161005925Y-146807007D01*
X160940099Y-146692993D01*
X160847007Y-146599901D01*
X160732993Y-146534075D01*
X160669409Y-146517037D01*
X161230125Y-145956320D01*
X161230125Y-145956319D01*
X161195145Y-145930905D01*
X161019835Y-145841581D01*
X160832705Y-145780778D01*
X160638382Y-145750000D01*
X160441618Y-145750000D01*
X160247294Y-145780778D01*
X160060161Y-145841582D01*
X159884863Y-145930899D01*
X159884859Y-145930902D01*
X159849873Y-145956320D01*
X159849872Y-145956320D01*
X160410590Y-146517037D01*
X160347007Y-146534075D01*
X160232993Y-146599901D01*
X160139901Y-146692993D01*
X160074075Y-146807007D01*
X160057037Y-146870590D01*
X159496320Y-146309872D01*
X159496320Y-146309873D01*
X159470902Y-146344859D01*
X159384984Y-146513485D01*
X159337010Y-146564281D01*
X159269189Y-146581076D01*
X159203054Y-146558539D01*
X159159602Y-146503824D01*
X159150499Y-146457190D01*
X159150499Y-146105143D01*
X159150499Y-146105136D01*
X159150497Y-146105117D01*
X159147586Y-146080012D01*
X159147585Y-146080011D01*
X159147585Y-146080009D01*
X159102206Y-145977235D01*
X159022765Y-145897794D01*
X159022763Y-145897793D01*
X158919992Y-145852415D01*
X158894865Y-145849500D01*
X157105143Y-145849500D01*
X157105117Y-145849502D01*
X157080012Y-145852413D01*
X157080008Y-145852415D01*
X156977235Y-145897793D01*
X156897794Y-145977234D01*
X156852415Y-146080006D01*
X156852415Y-146080008D01*
X156849500Y-146105131D01*
X156849500Y-147894856D01*
X156849502Y-147894882D01*
X156852413Y-147919987D01*
X156852415Y-147919991D01*
X156897793Y-148022764D01*
X156897794Y-148022765D01*
X156977235Y-148102206D01*
X157022452Y-148122171D01*
X157080006Y-148147584D01*
X157080009Y-148147585D01*
X157089786Y-148148719D01*
X157154111Y-148175996D01*
X157193478Y-148233720D01*
X157199500Y-148271893D01*
X157199500Y-151075500D01*
X157179815Y-151142539D01*
X157127011Y-151188294D01*
X157075500Y-151199500D01*
X122924500Y-151199500D01*
X122857461Y-151179815D01*
X122811706Y-151127011D01*
X122800500Y-151075500D01*
X122800500Y-108924500D01*
X122820185Y-108857461D01*
X122872989Y-108811706D01*
X122924500Y-108800500D01*
X144695500Y-108800500D01*
X144762539Y-108820185D01*
G37*
%TD.AperFunction*%
%TA.AperFunction,Conductor*%
G36*
X131485352Y-122728885D02*
G01*
X142923135Y-123879914D01*
X142943982Y-123885500D01*
X142978641Y-123885500D01*
X142984832Y-123886123D01*
X142984831Y-123886123D01*
X142987398Y-123886381D01*
X143013132Y-123888971D01*
X143024530Y-123887114D01*
X143044470Y-123885500D01*
X144568104Y-123885500D01*
X144635143Y-123905185D01*
X144680898Y-123957989D01*
X144690842Y-124027147D01*
X144668422Y-124082385D01*
X144636006Y-124127002D01*
X144553788Y-124288360D01*
X144553787Y-124288363D01*
X144497829Y-124460589D01*
X144469500Y-124639448D01*
X144469500Y-124820551D01*
X144497829Y-124999410D01*
X144553787Y-125171636D01*
X144553788Y-125171639D01*
X144609664Y-125281300D01*
X144635533Y-125332070D01*
X144636006Y-125332997D01*
X144742441Y-125479494D01*
X144742445Y-125479499D01*
X144870500Y-125607554D01*
X144870505Y-125607558D01*
X144945841Y-125662292D01*
X145017006Y-125713996D01*
X145122484Y-125767740D01*
X145178360Y-125796211D01*
X145178363Y-125796212D01*
X145264476Y-125824191D01*
X145350591Y-125852171D01*
X145423639Y-125863740D01*
X145510678Y-125877527D01*
X145573813Y-125907456D01*
X145610744Y-125966768D01*
X145609746Y-126036631D01*
X145571136Y-126094863D01*
X145510678Y-126122473D01*
X145350589Y-126147829D01*
X145178363Y-126203787D01*
X145178360Y-126203788D01*
X145017002Y-126286006D01*
X144870505Y-126392441D01*
X144870500Y-126392445D01*
X144742445Y-126520500D01*
X144742441Y-126520505D01*
X144636006Y-126667002D01*
X144553788Y-126828360D01*
X144553787Y-126828363D01*
X144497829Y-127000589D01*
X144469500Y-127179448D01*
X144469500Y-127360551D01*
X144497829Y-127539410D01*
X144553787Y-127711636D01*
X144553788Y-127711639D01*
X144636003Y-127872993D01*
X144668422Y-127917614D01*
X144691901Y-127983421D01*
X144676075Y-128051475D01*
X144625969Y-128100169D01*
X144568103Y-128114499D01*
X143034436Y-128114499D01*
X143013132Y-128111028D01*
X142978641Y-128114499D01*
X142943981Y-128114499D01*
X142932823Y-128117488D01*
X142913154Y-128121088D01*
X131485380Y-129271111D01*
X131416706Y-129258238D01*
X131366712Y-129211053D01*
X131366541Y-129211158D01*
X131366153Y-129210526D01*
X131365894Y-129210281D01*
X131364994Y-129208634D01*
X131363996Y-129207006D01*
X131257558Y-129060505D01*
X131257554Y-129060500D01*
X131129499Y-128932445D01*
X131129494Y-128932441D01*
X130982997Y-128826006D01*
X130982996Y-128826005D01*
X130982994Y-128826004D01*
X130931300Y-128799664D01*
X130821639Y-128743788D01*
X130821636Y-128743787D01*
X130649410Y-128687829D01*
X130489321Y-128662473D01*
X130426186Y-128632544D01*
X130389255Y-128573232D01*
X130390253Y-128503370D01*
X130428863Y-128445137D01*
X130489321Y-128417527D01*
X130559425Y-128406422D01*
X130649409Y-128392171D01*
X130821639Y-128336211D01*
X130982994Y-128253996D01*
X131129501Y-128147553D01*
X131257553Y-128019501D01*
X131363996Y-127872994D01*
X131446211Y-127711639D01*
X131502171Y-127539409D01*
X131522812Y-127409088D01*
X131530500Y-127360551D01*
X131530500Y-127179448D01*
X131509186Y-127044882D01*
X131502171Y-127000591D01*
X131446211Y-126828361D01*
X131446211Y-126828360D01*
X131409526Y-126756364D01*
X131363996Y-126667006D01*
X131310298Y-126593096D01*
X131257558Y-126520505D01*
X131257554Y-126520500D01*
X131129499Y-126392445D01*
X131129494Y-126392441D01*
X130982997Y-126286006D01*
X130982996Y-126286005D01*
X130982994Y-126286004D01*
X130912333Y-126250000D01*
X130821639Y-126203788D01*
X130821636Y-126203787D01*
X130649410Y-126147829D01*
X130489321Y-126122473D01*
X130426186Y-126092544D01*
X130389255Y-126033232D01*
X130390253Y-125963370D01*
X130428863Y-125905137D01*
X130489321Y-125877527D01*
X130559425Y-125866422D01*
X130649409Y-125852171D01*
X130821639Y-125796211D01*
X130982994Y-125713996D01*
X131129501Y-125607553D01*
X131257553Y-125479501D01*
X131363996Y-125332994D01*
X131446211Y-125171639D01*
X131502171Y-124999409D01*
X131522194Y-124872989D01*
X131530500Y-124820551D01*
X131530500Y-124639448D01*
X131508492Y-124500500D01*
X131502171Y-124460591D01*
X131446211Y-124288361D01*
X131446211Y-124288360D01*
X131372918Y-124144517D01*
X131363996Y-124127006D01*
X131331577Y-124082385D01*
X131257558Y-123980505D01*
X131257554Y-123980500D01*
X131129499Y-123852445D01*
X131129494Y-123852441D01*
X130982997Y-123746006D01*
X130982996Y-123746005D01*
X130982994Y-123746004D01*
X130931300Y-123719664D01*
X130821639Y-123663788D01*
X130821636Y-123663787D01*
X130649410Y-123607829D01*
X130489321Y-123582473D01*
X130426186Y-123552544D01*
X130389255Y-123493232D01*
X130390253Y-123423370D01*
X130428863Y-123365137D01*
X130489321Y-123337527D01*
X130559425Y-123326422D01*
X130649409Y-123312171D01*
X130821639Y-123256211D01*
X130982994Y-123173996D01*
X131129501Y-123067553D01*
X131257553Y-122939501D01*
X131363996Y-122792994D01*
X131363999Y-122792988D01*
X131366541Y-122788842D01*
X131368245Y-122789886D01*
X131410391Y-122745210D01*
X131478202Y-122728375D01*
X131485352Y-122728885D01*
G37*
%TD.AperFunction*%
%TA.AperFunction,Conductor*%
G36*
X146897908Y-123905185D02*
G01*
X146900595Y-123906961D01*
X147158572Y-124082385D01*
X149520227Y-125688310D01*
X149564594Y-125742284D01*
X149574500Y-125790848D01*
X149574500Y-127881501D01*
X149554815Y-127948540D01*
X149502011Y-127994295D01*
X149435719Y-128004617D01*
X149407829Y-128001268D01*
X149393102Y-127999500D01*
X148606898Y-127999500D01*
X148567853Y-128004188D01*
X148518438Y-128010122D01*
X148377656Y-128065639D01*
X148257082Y-128157074D01*
X148257079Y-128157076D01*
X148256217Y-128158213D01*
X148253140Y-128162269D01*
X148231752Y-128178072D01*
X148212780Y-128196705D01*
X148204086Y-128198513D01*
X148196947Y-128203789D01*
X148170413Y-128205520D01*
X148144375Y-128210938D01*
X148131652Y-128208049D01*
X148127226Y-128208338D01*
X148109957Y-128203123D01*
X147992801Y-128158213D01*
X147975189Y-128149818D01*
X147964243Y-128143498D01*
X147964237Y-128143496D01*
X147956469Y-128141414D01*
X147937817Y-128136416D01*
X147937817Y-128136415D01*
X147931557Y-128134737D01*
X147899995Y-128122639D01*
X147877692Y-128120304D01*
X147868244Y-128117773D01*
X147868240Y-128117773D01*
X147856020Y-128114499D01*
X147856018Y-128114499D01*
X147822199Y-128114499D01*
X147788567Y-128110980D01*
X147766415Y-128114499D01*
X146671897Y-128114499D01*
X146604858Y-128094814D01*
X146559103Y-128042010D01*
X146549159Y-127972852D01*
X146571578Y-127917614D01*
X146597815Y-127881501D01*
X146603996Y-127872994D01*
X146686211Y-127711639D01*
X146742171Y-127539409D01*
X146762812Y-127409088D01*
X146770500Y-127360551D01*
X146770500Y-127179448D01*
X146749186Y-127044882D01*
X146742171Y-127000591D01*
X146686211Y-126828361D01*
X146686211Y-126828360D01*
X146649526Y-126756364D01*
X146603996Y-126667006D01*
X146550298Y-126593096D01*
X146497558Y-126520505D01*
X146497554Y-126520500D01*
X146369499Y-126392445D01*
X146369494Y-126392441D01*
X146222997Y-126286006D01*
X146222996Y-126286005D01*
X146222994Y-126286004D01*
X146152333Y-126250000D01*
X146061639Y-126203788D01*
X146061636Y-126203787D01*
X145889410Y-126147829D01*
X145729321Y-126122473D01*
X145666186Y-126092544D01*
X145629255Y-126033232D01*
X145630253Y-125963370D01*
X145668863Y-125905137D01*
X145729321Y-125877527D01*
X145799425Y-125866422D01*
X145889409Y-125852171D01*
X146061639Y-125796211D01*
X146222994Y-125713996D01*
X146369501Y-125607553D01*
X146497553Y-125479501D01*
X146603996Y-125332994D01*
X146686211Y-125171639D01*
X146742171Y-124999409D01*
X146762194Y-124872989D01*
X146770500Y-124820551D01*
X146770500Y-124639448D01*
X146748492Y-124500500D01*
X146742171Y-124460591D01*
X146686211Y-124288361D01*
X146686211Y-124288360D01*
X146612918Y-124144517D01*
X146603996Y-124127006D01*
X146600874Y-124122709D01*
X146571578Y-124082385D01*
X146567346Y-124070525D01*
X146559102Y-124061011D01*
X146555828Y-124038243D01*
X146548098Y-124016578D01*
X146550949Y-124004314D01*
X146549158Y-123991853D01*
X146558714Y-123970928D01*
X146563924Y-123948525D01*
X146572952Y-123939751D01*
X146578183Y-123928297D01*
X146597535Y-123915860D01*
X146614030Y-123899830D01*
X146627775Y-123896426D01*
X146636961Y-123890523D01*
X146671896Y-123885500D01*
X146830869Y-123885500D01*
X146897908Y-123905185D01*
G37*
%TD.AperFunction*%
%TA.AperFunction,Conductor*%
G36*
X144512563Y-118825185D02*
G01*
X144558318Y-118877989D01*
X144568262Y-118947147D01*
X144552691Y-118990299D01*
X144553116Y-118990516D01*
X144551393Y-118993896D01*
X144551252Y-118994289D01*
X144550905Y-118994854D01*
X144461581Y-119170164D01*
X144400778Y-119357294D01*
X144370000Y-119551617D01*
X144370000Y-119748382D01*
X144400778Y-119942705D01*
X144461581Y-120129835D01*
X144550905Y-120305145D01*
X144576319Y-120340125D01*
X144576320Y-120340125D01*
X145137037Y-119779408D01*
X145154075Y-119842993D01*
X145219901Y-119957007D01*
X145312993Y-120050099D01*
X145427007Y-120115925D01*
X145490590Y-120132962D01*
X144929873Y-120693677D01*
X144929873Y-120693678D01*
X144964858Y-120719096D01*
X145140164Y-120808418D01*
X145281612Y-120854378D01*
X145339288Y-120893815D01*
X145366486Y-120958174D01*
X145354571Y-121027020D01*
X145307327Y-121078496D01*
X145281612Y-121090240D01*
X145178363Y-121123787D01*
X145178360Y-121123788D01*
X145017002Y-121206006D01*
X144870505Y-121312441D01*
X144870500Y-121312445D01*
X144742445Y-121440500D01*
X144742441Y-121440505D01*
X144636006Y-121587002D01*
X144553788Y-121748360D01*
X144553787Y-121748363D01*
X144497829Y-121920589D01*
X144469500Y-122099448D01*
X144469500Y-122280551D01*
X144497829Y-122459410D01*
X144553787Y-122631636D01*
X144553788Y-122631639D01*
X144592396Y-122707409D01*
X144636003Y-122792993D01*
X144636006Y-122792997D01*
X144668422Y-122837615D01*
X144691902Y-122903422D01*
X144676076Y-122971475D01*
X144625970Y-123020170D01*
X144568104Y-123034500D01*
X143027584Y-123034500D01*
X143015168Y-123033877D01*
X142878961Y-123020170D01*
X140582053Y-122789023D01*
X131567461Y-121881849D01*
X131502730Y-121855551D01*
X131462492Y-121798431D01*
X131461945Y-121796788D01*
X131446211Y-121748363D01*
X131446211Y-121748361D01*
X131363996Y-121587006D01*
X131267948Y-121454806D01*
X131257558Y-121440505D01*
X131257554Y-121440500D01*
X131129499Y-121312445D01*
X131129494Y-121312441D01*
X130982997Y-121206006D01*
X130982996Y-121206005D01*
X130982994Y-121206004D01*
X130922385Y-121175122D01*
X130821639Y-121123788D01*
X130821636Y-121123787D01*
X130649410Y-121067829D01*
X130489321Y-121042473D01*
X130426186Y-121012544D01*
X130389255Y-120953232D01*
X130390253Y-120883370D01*
X130428863Y-120825137D01*
X130489321Y-120797527D01*
X130559425Y-120786422D01*
X130649409Y-120772171D01*
X130821639Y-120716211D01*
X130982994Y-120633996D01*
X131129501Y-120527553D01*
X131257553Y-120399501D01*
X131363996Y-120252994D01*
X131446211Y-120091639D01*
X131460472Y-120047746D01*
X131499908Y-119990072D01*
X131564266Y-119962873D01*
X131566423Y-119962644D01*
X143514583Y-118806076D01*
X143526530Y-118805500D01*
X144445524Y-118805500D01*
X144512563Y-118825185D01*
G37*
%TD.AperFunction*%
%TA.AperFunction,Conductor*%
G36*
X160103600Y-108820185D02*
G01*
X160149355Y-108872989D01*
X160159299Y-108942147D01*
X160130274Y-109005703D01*
X160105452Y-109027602D01*
X160029711Y-109078210D01*
X160029707Y-109078213D01*
X159918213Y-109189707D01*
X159918210Y-109189711D01*
X159830609Y-109320814D01*
X159830602Y-109320827D01*
X159770264Y-109466498D01*
X159770261Y-109466510D01*
X159739500Y-109621153D01*
X159739500Y-110929627D01*
X159719815Y-110996666D01*
X159703182Y-111017308D01*
X159584264Y-111136226D01*
X159477317Y-111283426D01*
X159421987Y-111326091D01*
X159352373Y-111332070D01*
X159290578Y-111299464D01*
X159256221Y-111238625D01*
X159252999Y-111210540D01*
X159252999Y-110955143D01*
X159252999Y-110955136D01*
X159252997Y-110955117D01*
X159250086Y-110930012D01*
X159250085Y-110930010D01*
X159250085Y-110930009D01*
X159204706Y-110827235D01*
X159125265Y-110747794D01*
X159125263Y-110747793D01*
X159022492Y-110702415D01*
X158997365Y-110699500D01*
X157002643Y-110699500D01*
X157002617Y-110699502D01*
X156977512Y-110702413D01*
X156977508Y-110702415D01*
X156874735Y-110747793D01*
X156795294Y-110827234D01*
X156749915Y-110930006D01*
X156749915Y-110930008D01*
X156747000Y-110955131D01*
X156747000Y-111450500D01*
X156727315Y-111517539D01*
X156674511Y-111563294D01*
X156623000Y-111574500D01*
X151943982Y-111574500D01*
X151835763Y-111603497D01*
X151835760Y-111603498D01*
X151738740Y-111659513D01*
X151738734Y-111659517D01*
X151659517Y-111738734D01*
X151659513Y-111738740D01*
X151603498Y-111835760D01*
X151603497Y-111835763D01*
X151574500Y-111943982D01*
X151574500Y-113881501D01*
X151554815Y-113948540D01*
X151502011Y-113994295D01*
X151435719Y-114004617D01*
X151407829Y-114001268D01*
X151393102Y-113999500D01*
X150606898Y-113999500D01*
X150567853Y-114004188D01*
X150518438Y-114010122D01*
X150377656Y-114065639D01*
X150257077Y-114157077D01*
X150165639Y-114277656D01*
X150139156Y-114344814D01*
X150115353Y-114405171D01*
X150072449Y-114460314D01*
X150006541Y-114483507D01*
X149938556Y-114467386D01*
X149890080Y-114417070D01*
X149884648Y-114405178D01*
X149834361Y-114277658D01*
X149834360Y-114277657D01*
X149834360Y-114277656D01*
X149742922Y-114157077D01*
X149622343Y-114065639D01*
X149481561Y-114010122D01*
X149435713Y-114004617D01*
X149393102Y-113999500D01*
X148606898Y-113999500D01*
X148567853Y-114004188D01*
X148518438Y-114010122D01*
X148377656Y-114065639D01*
X148257077Y-114157077D01*
X148165639Y-114277656D01*
X148110122Y-114418438D01*
X148106063Y-114452243D01*
X148099500Y-114506898D01*
X148099500Y-115493102D01*
X148102206Y-115515634D01*
X148110122Y-115581563D01*
X148142978Y-115664881D01*
X148149259Y-115734468D01*
X148138401Y-115766086D01*
X147072065Y-117886216D01*
X147024356Y-117937263D01*
X146961287Y-117954500D01*
X146671896Y-117954500D01*
X146604857Y-117934815D01*
X146559102Y-117882011D01*
X146549158Y-117812853D01*
X146571578Y-117757615D01*
X146588369Y-117734502D01*
X146603996Y-117712994D01*
X146686211Y-117551639D01*
X146742171Y-117379409D01*
X146767048Y-117222342D01*
X146770500Y-117200551D01*
X146770500Y-117019448D01*
X146749890Y-116889330D01*
X146742171Y-116840591D01*
X146686211Y-116668361D01*
X146686211Y-116668360D01*
X146654894Y-116606898D01*
X146603996Y-116507006D01*
X146590396Y-116488287D01*
X146497558Y-116360505D01*
X146497554Y-116360500D01*
X146456819Y-116319765D01*
X146423334Y-116258442D01*
X146420500Y-116232084D01*
X146420500Y-113645899D01*
X146440185Y-113578860D01*
X146492989Y-113533105D01*
X146559284Y-113522784D01*
X146581898Y-113525500D01*
X146581900Y-113525500D01*
X147343097Y-113525500D01*
X147343102Y-113525500D01*
X147431564Y-113514877D01*
X147572342Y-113459361D01*
X147692922Y-113367922D01*
X147784361Y-113247342D01*
X147834237Y-113120864D01*
X147877141Y-113065724D01*
X147943048Y-113042530D01*
X148011033Y-113058650D01*
X148059510Y-113108967D01*
X148068666Y-113131762D01*
X148098715Y-113235193D01*
X148098717Y-113235196D01*
X148182314Y-113376552D01*
X148182321Y-113376561D01*
X148298438Y-113492678D01*
X148298447Y-113492685D01*
X148439803Y-113576282D01*
X148439806Y-113576283D01*
X148597504Y-113622099D01*
X148597510Y-113622100D01*
X148634350Y-113624999D01*
X148634366Y-113625000D01*
X148787500Y-113625000D01*
X149287500Y-113625000D01*
X149440634Y-113625000D01*
X149440649Y-113624999D01*
X149477489Y-113622100D01*
X149477495Y-113622099D01*
X149635193Y-113576283D01*
X149635196Y-113576282D01*
X149776552Y-113492685D01*
X149776561Y-113492678D01*
X149892678Y-113376561D01*
X149892685Y-113376552D01*
X149976282Y-113235196D01*
X149976283Y-113235193D01*
X150022099Y-113077495D01*
X150022100Y-113077489D01*
X150024999Y-113040649D01*
X150025000Y-113040634D01*
X150025000Y-112750000D01*
X149287500Y-112750000D01*
X149287500Y-113625000D01*
X148787500Y-113625000D01*
X148787500Y-112250000D01*
X149287500Y-112250000D01*
X150025000Y-112250000D01*
X150025000Y-111959365D01*
X150024999Y-111959350D01*
X150022100Y-111922510D01*
X150022099Y-111922504D01*
X149976283Y-111764806D01*
X149976282Y-111764803D01*
X149892685Y-111623447D01*
X149892678Y-111623438D01*
X149776561Y-111507321D01*
X149776552Y-111507314D01*
X149635196Y-111423717D01*
X149635193Y-111423716D01*
X149477495Y-111377900D01*
X149477489Y-111377899D01*
X149440649Y-111375000D01*
X149287500Y-111375000D01*
X149287500Y-112250000D01*
X148787500Y-112250000D01*
X148787500Y-111375000D01*
X148634350Y-111375000D01*
X148597510Y-111377899D01*
X148597504Y-111377900D01*
X148439806Y-111423716D01*
X148439803Y-111423717D01*
X148298447Y-111507314D01*
X148298438Y-111507321D01*
X148182321Y-111623438D01*
X148182314Y-111623447D01*
X148098717Y-111764803D01*
X148098716Y-111764804D01*
X148068666Y-111868238D01*
X148031059Y-111927123D01*
X147967587Y-111956329D01*
X147898400Y-111946583D01*
X147845466Y-111900978D01*
X147834238Y-111879137D01*
X147789151Y-111764804D01*
X147784361Y-111752657D01*
X147692922Y-111632077D01*
X147572343Y-111540639D01*
X147431561Y-111485122D01*
X147385926Y-111479642D01*
X147343102Y-111474500D01*
X146581898Y-111474500D01*
X146559282Y-111477215D01*
X146490374Y-111465664D01*
X146438651Y-111418691D01*
X146420500Y-111354100D01*
X146420500Y-108924500D01*
X146440185Y-108857461D01*
X146492989Y-108811706D01*
X146544500Y-108800500D01*
X160036561Y-108800500D01*
X160103600Y-108820185D01*
G37*
%TD.AperFunction*%
%TA.AperFunction,Conductor*%
G36*
X184442539Y-100520185D02*
G01*
X184488294Y-100572989D01*
X184499500Y-100624500D01*
X184499500Y-159375500D01*
X184479815Y-159442539D01*
X184427011Y-159488294D01*
X184375500Y-159499500D01*
X100624500Y-159499500D01*
X100557461Y-159479815D01*
X100511706Y-159427011D01*
X100500500Y-159375500D01*
X100500500Y-155874071D01*
X166900000Y-155874071D01*
X166900000Y-156125928D01*
X166939397Y-156374669D01*
X167017219Y-156614184D01*
X167131557Y-156838583D01*
X167205748Y-156940697D01*
X167205748Y-156940698D01*
X167935387Y-156211059D01*
X167940889Y-156231591D01*
X168019881Y-156368408D01*
X168131592Y-156480119D01*
X168268409Y-156559111D01*
X168288940Y-156564612D01*
X167559300Y-157294250D01*
X167661416Y-157368442D01*
X167885815Y-157482780D01*
X168125330Y-157560602D01*
X168374072Y-157600000D01*
X168625928Y-157600000D01*
X168874669Y-157560602D01*
X169114184Y-157482780D01*
X169338575Y-157368446D01*
X169338581Y-157368442D01*
X169440697Y-157294250D01*
X169440698Y-157294250D01*
X168711059Y-156564612D01*
X168731591Y-156559111D01*
X168868408Y-156480119D01*
X168980119Y-156368408D01*
X169059111Y-156231591D01*
X169064612Y-156211060D01*
X169794250Y-156940698D01*
X169794250Y-156940697D01*
X169868442Y-156838581D01*
X169868446Y-156838575D01*
X169982780Y-156614184D01*
X170060602Y-156374669D01*
X170100000Y-156125928D01*
X170100000Y-155874071D01*
X170060602Y-155625330D01*
X169982780Y-155385815D01*
X169868442Y-155161416D01*
X169794250Y-155059301D01*
X169794250Y-155059300D01*
X169064612Y-155788939D01*
X169059111Y-155768409D01*
X168980119Y-155631592D01*
X168868408Y-155519881D01*
X168731591Y-155440889D01*
X168711058Y-155435387D01*
X169440698Y-154705748D01*
X169338583Y-154631557D01*
X169114184Y-154517219D01*
X168874669Y-154439397D01*
X168625928Y-154400000D01*
X168374072Y-154400000D01*
X168125330Y-154439397D01*
X167885815Y-154517219D01*
X167661413Y-154631559D01*
X167559301Y-154705747D01*
X167559300Y-154705748D01*
X168288940Y-155435387D01*
X168268409Y-155440889D01*
X168131592Y-155519881D01*
X168019881Y-155631592D01*
X167940889Y-155768409D01*
X167935387Y-155788940D01*
X167205748Y-155059300D01*
X167205747Y-155059301D01*
X167131559Y-155161413D01*
X167017219Y-155385815D01*
X166939397Y-155625330D01*
X166900000Y-155874071D01*
X100500500Y-155874071D01*
X100500500Y-142441617D01*
X104750000Y-142441617D01*
X104750000Y-142638382D01*
X104780778Y-142832705D01*
X104841581Y-143019835D01*
X104930905Y-143195145D01*
X104956319Y-143230125D01*
X104956320Y-143230125D01*
X105517037Y-142669408D01*
X105534075Y-142732993D01*
X105599901Y-142847007D01*
X105692993Y-142940099D01*
X105807007Y-143005925D01*
X105870590Y-143022962D01*
X105309873Y-143583677D01*
X105309873Y-143583678D01*
X105344858Y-143609096D01*
X105520164Y-143698418D01*
X105661612Y-143744378D01*
X105719288Y-143783815D01*
X105746486Y-143848174D01*
X105734571Y-143917020D01*
X105687327Y-143968496D01*
X105661612Y-143980240D01*
X105558363Y-144013787D01*
X105558360Y-144013788D01*
X105397002Y-144096006D01*
X105250505Y-144202441D01*
X105250500Y-144202445D01*
X105122445Y-144330500D01*
X105122441Y-144330505D01*
X105016006Y-144477002D01*
X104933788Y-144638360D01*
X104933787Y-144638363D01*
X104877829Y-144810589D01*
X104849500Y-144989448D01*
X104849500Y-145170551D01*
X104877829Y-145349410D01*
X104933787Y-145521636D01*
X104933788Y-145521639D01*
X105016006Y-145682997D01*
X105122441Y-145829494D01*
X105122445Y-145829499D01*
X105250500Y-145957554D01*
X105250505Y-145957558D01*
X105330950Y-146016004D01*
X105397006Y-146063996D01*
X105477761Y-146105143D01*
X105558360Y-146146211D01*
X105558363Y-146146212D01*
X105644476Y-146174191D01*
X105730591Y-146202171D01*
X105813429Y-146215291D01*
X105909449Y-146230500D01*
X105909454Y-146230500D01*
X106090551Y-146230500D01*
X106177259Y-146216765D01*
X106269409Y-146202171D01*
X106441639Y-146146211D01*
X106602994Y-146063996D01*
X106749501Y-145957553D01*
X106877553Y-145829501D01*
X106983996Y-145682994D01*
X107066211Y-145521639D01*
X107122171Y-145349409D01*
X107136765Y-145257259D01*
X107150500Y-145170551D01*
X107150500Y-144989448D01*
X107126243Y-144836302D01*
X107122171Y-144810591D01*
X107066211Y-144638361D01*
X107066211Y-144638360D01*
X107037740Y-144582484D01*
X106983996Y-144477006D01*
X106909885Y-144375000D01*
X106877558Y-144330505D01*
X106877554Y-144330500D01*
X106749499Y-144202445D01*
X106749494Y-144202441D01*
X106602997Y-144096006D01*
X106602996Y-144096005D01*
X106602994Y-144096004D01*
X106551300Y-144069664D01*
X106441639Y-144013788D01*
X106441636Y-144013787D01*
X106338387Y-143980240D01*
X106280711Y-143940803D01*
X106253513Y-143876444D01*
X106265428Y-143807598D01*
X106312672Y-143756122D01*
X106338387Y-143744378D01*
X106479835Y-143698418D01*
X106655143Y-143609095D01*
X106690125Y-143583678D01*
X106690126Y-143583678D01*
X106129410Y-143022962D01*
X106192993Y-143005925D01*
X106307007Y-142940099D01*
X106400099Y-142847007D01*
X106465925Y-142732993D01*
X106482962Y-142669409D01*
X107043678Y-143230126D01*
X107043678Y-143230125D01*
X107069095Y-143195143D01*
X107158418Y-143019835D01*
X107219221Y-142832705D01*
X107250000Y-142638382D01*
X107250000Y-142441617D01*
X107219221Y-142247294D01*
X107158418Y-142060164D01*
X107069096Y-141884858D01*
X107043678Y-141849873D01*
X107043677Y-141849873D01*
X106482962Y-142410589D01*
X106465925Y-142347007D01*
X106400099Y-142232993D01*
X106307007Y-142139901D01*
X106192993Y-142074075D01*
X106129409Y-142057037D01*
X106690125Y-141496320D01*
X106690125Y-141496319D01*
X106655145Y-141470905D01*
X106486514Y-141384984D01*
X106435718Y-141337010D01*
X106418923Y-141269189D01*
X106441460Y-141203054D01*
X106496175Y-141159602D01*
X106542807Y-141150499D01*
X106894864Y-141150499D01*
X106894879Y-141150497D01*
X106894882Y-141150497D01*
X106919987Y-141147586D01*
X106919988Y-141147585D01*
X106919991Y-141147585D01*
X107022765Y-141102206D01*
X107102206Y-141022765D01*
X107147585Y-140919991D01*
X107150500Y-140894865D01*
X107150499Y-139105136D01*
X107150497Y-139105117D01*
X107147586Y-139080012D01*
X107147585Y-139080010D01*
X107147585Y-139080009D01*
X107102206Y-138977235D01*
X107022765Y-138897794D01*
X107022763Y-138897793D01*
X106919992Y-138852415D01*
X106894865Y-138849500D01*
X105105143Y-138849500D01*
X105105117Y-138849502D01*
X105080012Y-138852413D01*
X105080008Y-138852415D01*
X104977235Y-138897793D01*
X104897794Y-138977234D01*
X104852415Y-139080006D01*
X104852415Y-139080008D01*
X104849500Y-139105131D01*
X104849500Y-140894856D01*
X104849502Y-140894882D01*
X104852413Y-140919987D01*
X104852415Y-140919991D01*
X104897793Y-141022764D01*
X104897794Y-141022765D01*
X104977235Y-141102206D01*
X105080009Y-141147585D01*
X105105135Y-141150500D01*
X105457191Y-141150499D01*
X105524228Y-141170183D01*
X105569983Y-141222987D01*
X105579927Y-141292146D01*
X105550902Y-141355701D01*
X105513484Y-141384984D01*
X105344859Y-141470902D01*
X105309873Y-141496320D01*
X105309872Y-141496320D01*
X105870590Y-142057037D01*
X105807007Y-142074075D01*
X105692993Y-142139901D01*
X105599901Y-142232993D01*
X105534075Y-142347007D01*
X105517037Y-142410590D01*
X104956320Y-141849872D01*
X104956320Y-141849873D01*
X104930902Y-141884859D01*
X104930899Y-141884863D01*
X104841582Y-142060161D01*
X104780778Y-142247294D01*
X104750000Y-142441617D01*
X100500500Y-142441617D01*
X100500500Y-128968575D01*
X104300000Y-128968575D01*
X104300000Y-129191424D01*
X104329085Y-129412354D01*
X104329088Y-129412367D01*
X104386763Y-129627618D01*
X104472045Y-129833502D01*
X104472054Y-129833520D01*
X104583464Y-130026491D01*
X104583473Y-130026504D01*
X104634040Y-130092403D01*
X104634043Y-130092403D01*
X105398958Y-129327488D01*
X105423978Y-129387890D01*
X105495112Y-129494351D01*
X105585649Y-129584888D01*
X105692110Y-129656022D01*
X105752510Y-129681041D01*
X104987595Y-130445955D01*
X104987595Y-130445956D01*
X105053507Y-130496533D01*
X105246485Y-130607949D01*
X105246497Y-130607954D01*
X105452381Y-130693236D01*
X105667632Y-130750911D01*
X105667645Y-130750914D01*
X105888575Y-130780000D01*
X106111425Y-130780000D01*
X106332354Y-130750914D01*
X106332367Y-130750911D01*
X106547618Y-130693236D01*
X106753502Y-130607954D01*
X106753514Y-130607949D01*
X106946498Y-130496530D01*
X107012403Y-130445957D01*
X107012403Y-130445955D01*
X106247488Y-129681041D01*
X106307890Y-129656022D01*
X106414351Y-129584888D01*
X106504888Y-129494351D01*
X106576022Y-129387890D01*
X106601041Y-129327488D01*
X107365956Y-130092404D01*
X107365957Y-130092403D01*
X107416530Y-130026498D01*
X107527949Y-129833514D01*
X107527954Y-129833502D01*
X107613236Y-129627618D01*
X107670911Y-129412367D01*
X107670914Y-129412353D01*
X107671809Y-129405552D01*
X114800000Y-129405552D01*
X114800000Y-129594447D01*
X114829548Y-129781002D01*
X114887914Y-129960637D01*
X114973666Y-130128933D01*
X114992116Y-130154328D01*
X115600000Y-129546445D01*
X115600000Y-129552661D01*
X115627259Y-129654394D01*
X115679920Y-129745606D01*
X115754394Y-129820080D01*
X115845606Y-129872741D01*
X115947339Y-129900000D01*
X115953554Y-129900000D01*
X115345669Y-130507882D01*
X115345670Y-130507883D01*
X115371059Y-130526329D01*
X115539362Y-130612085D01*
X115718997Y-130670451D01*
X115905553Y-130700000D01*
X116094447Y-130700000D01*
X116281002Y-130670451D01*
X116460637Y-130612085D01*
X116628937Y-130526331D01*
X116654328Y-130507883D01*
X116654328Y-130507882D01*
X116046447Y-129900000D01*
X116052661Y-129900000D01*
X116154394Y-129872741D01*
X116245606Y-129820080D01*
X116320080Y-129745606D01*
X116372741Y-129654394D01*
X116400000Y-129552661D01*
X116400000Y-129546446D01*
X117007882Y-130154328D01*
X117007883Y-130154328D01*
X117026331Y-130128937D01*
X117112085Y-129960637D01*
X117170451Y-129781002D01*
X117200000Y-129594447D01*
X117200000Y-129405552D01*
X117170451Y-129218997D01*
X117112085Y-129039362D01*
X117026329Y-128871059D01*
X117007883Y-128845670D01*
X117007882Y-128845669D01*
X116400000Y-129453552D01*
X116400000Y-129447339D01*
X116372741Y-129345606D01*
X116320080Y-129254394D01*
X116245606Y-129179920D01*
X116154394Y-129127259D01*
X116052661Y-129100000D01*
X116046447Y-129100000D01*
X116654328Y-128492116D01*
X116628933Y-128473666D01*
X116460637Y-128387914D01*
X116281002Y-128329548D01*
X116094447Y-128300000D01*
X115905553Y-128300000D01*
X115718997Y-128329548D01*
X115539362Y-128387914D01*
X115371060Y-128473669D01*
X115345670Y-128492116D01*
X115345669Y-128492116D01*
X115953554Y-129100000D01*
X115947339Y-129100000D01*
X115845606Y-129127259D01*
X115754394Y-129179920D01*
X115679920Y-129254394D01*
X115627259Y-129345606D01*
X115600000Y-129447339D01*
X115600000Y-129453553D01*
X114992116Y-128845669D01*
X114992116Y-128845670D01*
X114973669Y-128871060D01*
X114887914Y-129039362D01*
X114829548Y-129218997D01*
X114800000Y-129405552D01*
X107671809Y-129405552D01*
X107674581Y-129384502D01*
X107674581Y-129384501D01*
X107700000Y-129191424D01*
X107700000Y-128968575D01*
X107670914Y-128747645D01*
X107670911Y-128747632D01*
X107623709Y-128571468D01*
X107623709Y-128571467D01*
X107613236Y-128532383D01*
X107527954Y-128326497D01*
X107527949Y-128326485D01*
X107416533Y-128133507D01*
X107365956Y-128067595D01*
X107365955Y-128067595D01*
X106601041Y-128832510D01*
X106576022Y-128772110D01*
X106504888Y-128665649D01*
X106414351Y-128575112D01*
X106307890Y-128503978D01*
X106247487Y-128478958D01*
X107012403Y-127714043D01*
X107012403Y-127714040D01*
X106946504Y-127663473D01*
X106946491Y-127663464D01*
X106753520Y-127552054D01*
X106753502Y-127552045D01*
X106547618Y-127466763D01*
X106332367Y-127409088D01*
X106332354Y-127409085D01*
X106111425Y-127380000D01*
X105888575Y-127380000D01*
X105667645Y-127409085D01*
X105667632Y-127409088D01*
X105452381Y-127466763D01*
X105246497Y-127552045D01*
X105246479Y-127552054D01*
X105053511Y-127663462D01*
X104987595Y-127714042D01*
X105752511Y-128478958D01*
X105692110Y-128503978D01*
X105585649Y-128575112D01*
X105495112Y-128665649D01*
X105423978Y-128772110D01*
X105398958Y-128832511D01*
X104634042Y-128067595D01*
X104583462Y-128133511D01*
X104472054Y-128326479D01*
X104472045Y-128326497D01*
X104386763Y-128532381D01*
X104329088Y-128747632D01*
X104329085Y-128747645D01*
X104300000Y-128968575D01*
X100500500Y-128968575D01*
X100500500Y-113068513D01*
X103700000Y-113068513D01*
X103700000Y-113750000D01*
X104624722Y-113750000D01*
X104580667Y-113826306D01*
X104550000Y-113940756D01*
X104550000Y-114059244D01*
X104580667Y-114173694D01*
X104624722Y-114250000D01*
X103700001Y-114250000D01*
X103700001Y-114931479D01*
X103714835Y-115025149D01*
X103714837Y-115025155D01*
X103772356Y-115138041D01*
X103772363Y-115138050D01*
X103861949Y-115227636D01*
X103861953Y-115227639D01*
X103974855Y-115285166D01*
X104068514Y-115299999D01*
X104749999Y-115299999D01*
X104750000Y-115299998D01*
X104750000Y-114375277D01*
X104826306Y-114419333D01*
X104940756Y-114450000D01*
X105059244Y-114450000D01*
X105173694Y-114419333D01*
X105250000Y-114375277D01*
X105250000Y-115299999D01*
X105931479Y-115299999D01*
X106025149Y-115285164D01*
X106025155Y-115285162D01*
X106138041Y-115227643D01*
X106138050Y-115227636D01*
X106227636Y-115138050D01*
X106227639Y-115138046D01*
X106285166Y-115025144D01*
X106299999Y-114931485D01*
X106299999Y-114717333D01*
X106319683Y-114650293D01*
X106372487Y-114604538D01*
X106441645Y-114594594D01*
X106505201Y-114623619D01*
X106524316Y-114644446D01*
X106601007Y-114750000D01*
X106624310Y-114782073D01*
X106757927Y-114915690D01*
X106910801Y-115026760D01*
X106990347Y-115067290D01*
X107079163Y-115112545D01*
X107079165Y-115112545D01*
X107079168Y-115112547D01*
X107157658Y-115138050D01*
X107258881Y-115170940D01*
X107445514Y-115200500D01*
X107445519Y-115200500D01*
X107634486Y-115200500D01*
X107821118Y-115170940D01*
X108000832Y-115112547D01*
X108169199Y-115026760D01*
X108322073Y-114915690D01*
X108455690Y-114782073D01*
X108566760Y-114629199D01*
X108636052Y-114493204D01*
X108684026Y-114442409D01*
X108746537Y-114425500D01*
X109950500Y-114425500D01*
X110017539Y-114445185D01*
X110063294Y-114497989D01*
X110074500Y-114549500D01*
X110074500Y-115981381D01*
X110054815Y-116048420D01*
X110002011Y-116094175D01*
X109965285Y-116104496D01*
X109918441Y-116110121D01*
X109777656Y-116165639D01*
X109657077Y-116257077D01*
X109565639Y-116377656D01*
X109510122Y-116518438D01*
X109504188Y-116567853D01*
X109499500Y-116606898D01*
X109499500Y-117393102D01*
X109504455Y-117434361D01*
X109510122Y-117481561D01*
X109510122Y-117481563D01*
X109510123Y-117481564D01*
X109527722Y-117526192D01*
X109565639Y-117622343D01*
X109657077Y-117742922D01*
X109777656Y-117834360D01*
X109777657Y-117834360D01*
X109777658Y-117834361D01*
X109905171Y-117884646D01*
X109960314Y-117927551D01*
X109983507Y-117993459D01*
X109967386Y-118061444D01*
X109917070Y-118109920D01*
X109905178Y-118115351D01*
X109861023Y-118132764D01*
X109777656Y-118165639D01*
X109657077Y-118257077D01*
X109565639Y-118377656D01*
X109510122Y-118518438D01*
X109504188Y-118567853D01*
X109499500Y-118606898D01*
X109499500Y-119393102D01*
X109502869Y-119421158D01*
X109510122Y-119481561D01*
X109565639Y-119622343D01*
X109657077Y-119742922D01*
X109777656Y-119834360D01*
X109777657Y-119834360D01*
X109777658Y-119834361D01*
X109870991Y-119871167D01*
X109926134Y-119914072D01*
X109949327Y-119979980D01*
X109949500Y-119986521D01*
X109949500Y-123075500D01*
X109929815Y-123142539D01*
X109877011Y-123188294D01*
X109825500Y-123199500D01*
X107724500Y-123199500D01*
X107657461Y-123179815D01*
X107611706Y-123127011D01*
X107600500Y-123075500D01*
X107600500Y-122906903D01*
X107600500Y-122906898D01*
X107589877Y-122818436D01*
X107534361Y-122677658D01*
X107534360Y-122677657D01*
X107534360Y-122677656D01*
X107442922Y-122557077D01*
X107322343Y-122465639D01*
X107181561Y-122410122D01*
X107135926Y-122404642D01*
X107093102Y-122399500D01*
X104906898Y-122399500D01*
X104867853Y-122404188D01*
X104818438Y-122410122D01*
X104677656Y-122465639D01*
X104557077Y-122557077D01*
X104465639Y-122677656D01*
X104410122Y-122818438D01*
X104405645Y-122855722D01*
X104399500Y-122906898D01*
X104399500Y-125093102D01*
X104404679Y-125136226D01*
X104410122Y-125181561D01*
X104465639Y-125322343D01*
X104557077Y-125442922D01*
X104677656Y-125534360D01*
X104677657Y-125534360D01*
X104677658Y-125534361D01*
X104818436Y-125589877D01*
X104906898Y-125600500D01*
X104906903Y-125600500D01*
X107093097Y-125600500D01*
X107093102Y-125600500D01*
X107181564Y-125589877D01*
X107322342Y-125534361D01*
X107442922Y-125442922D01*
X107534361Y-125322342D01*
X107589877Y-125181564D01*
X107600500Y-125093102D01*
X107600500Y-124924500D01*
X107620185Y-124857461D01*
X107672989Y-124811706D01*
X107724500Y-124800500D01*
X113921158Y-124800500D01*
X115026690Y-124800500D01*
X115093729Y-124820185D01*
X115139484Y-124872989D01*
X115149428Y-124942147D01*
X115120403Y-125005703D01*
X115101615Y-125023304D01*
X115057077Y-125057077D01*
X114965639Y-125177656D01*
X114910122Y-125318438D01*
X114908042Y-125335763D01*
X114899500Y-125406898D01*
X114899500Y-126593102D01*
X114899887Y-126596323D01*
X114910122Y-126681561D01*
X114910122Y-126681563D01*
X114910123Y-126681564D01*
X114923929Y-126716574D01*
X114965639Y-126822343D01*
X115057077Y-126942922D01*
X115177656Y-127034360D01*
X115177657Y-127034360D01*
X115177658Y-127034361D01*
X115318436Y-127089877D01*
X115406898Y-127100500D01*
X115406903Y-127100500D01*
X116593097Y-127100500D01*
X116593102Y-127100500D01*
X116681564Y-127089877D01*
X116822342Y-127034361D01*
X116942922Y-126942922D01*
X117034361Y-126822342D01*
X117089877Y-126681564D01*
X117100500Y-126593102D01*
X117100500Y-125406898D01*
X117089877Y-125318436D01*
X117034361Y-125177658D01*
X117034360Y-125177657D01*
X117034360Y-125177656D01*
X116942922Y-125057077D01*
X116898385Y-125023304D01*
X116856861Y-124967111D01*
X116852310Y-124897390D01*
X116886175Y-124836276D01*
X116947705Y-124803172D01*
X116973310Y-124800500D01*
X121075500Y-124800500D01*
X121142539Y-124820185D01*
X121188294Y-124872989D01*
X121199500Y-124924500D01*
X121199500Y-152078846D01*
X121230261Y-152233489D01*
X121230264Y-152233501D01*
X121290602Y-152379172D01*
X121290609Y-152379185D01*
X121378210Y-152510288D01*
X121378213Y-152510292D01*
X121489707Y-152621786D01*
X121489711Y-152621789D01*
X121620814Y-152709390D01*
X121620827Y-152709397D01*
X121766498Y-152769735D01*
X121766503Y-152769737D01*
X121921153Y-152800499D01*
X121921156Y-152800500D01*
X121921158Y-152800500D01*
X157921158Y-152800500D01*
X158078842Y-152800500D01*
X175328929Y-152800500D01*
X175395968Y-152820185D01*
X175441723Y-152872989D01*
X175451667Y-152942147D01*
X175422642Y-153005703D01*
X175392726Y-153030829D01*
X172974392Y-154481829D01*
X172910595Y-154499500D01*
X171006908Y-154499500D01*
X170918437Y-154510123D01*
X170777657Y-154565639D01*
X170777655Y-154565640D01*
X170657077Y-154657077D01*
X170565640Y-154777655D01*
X170510124Y-154918437D01*
X170510123Y-154918438D01*
X170499500Y-155006900D01*
X170499500Y-156993091D01*
X170510123Y-157081562D01*
X170565639Y-157222342D01*
X170565640Y-157222344D01*
X170657077Y-157342922D01*
X170690736Y-157368446D01*
X170777658Y-157434361D01*
X170918436Y-157489876D01*
X171006901Y-157500500D01*
X172993098Y-157500499D01*
X173081564Y-157489876D01*
X173222342Y-157434361D01*
X173342922Y-157342922D01*
X173434361Y-157222342D01*
X173489876Y-157081564D01*
X173500500Y-156993099D01*
X173500499Y-156103441D01*
X173520183Y-156036403D01*
X173560702Y-155997113D01*
X173765772Y-155874071D01*
X177402181Y-153692226D01*
X177461097Y-153659095D01*
X177469723Y-153651701D01*
X177479460Y-153645859D01*
X177528251Y-153601595D01*
X177530763Y-153599379D01*
X180984575Y-150638970D01*
X181010289Y-150621789D01*
X181044300Y-150587777D01*
X181080820Y-150556475D01*
X181095336Y-150537994D01*
X181105176Y-150526901D01*
X181121789Y-150510289D01*
X181148515Y-150470290D01*
X181178222Y-150432470D01*
X181192210Y-150404896D01*
X181209394Y-150379179D01*
X181227802Y-150334736D01*
X181249561Y-150291846D01*
X181257902Y-150262068D01*
X181269737Y-150233497D01*
X181279120Y-150186322D01*
X181292095Y-150140006D01*
X181294466Y-150109172D01*
X181300500Y-150078842D01*
X181300500Y-150035507D01*
X181300865Y-150025997D01*
X181304189Y-149982786D01*
X181301385Y-149959447D01*
X181300500Y-149944657D01*
X181300500Y-144836302D01*
X181320185Y-144769263D01*
X181351609Y-144735988D01*
X181477510Y-144644517D01*
X181644517Y-144477510D01*
X181783343Y-144286433D01*
X181890568Y-144075992D01*
X181963553Y-143851368D01*
X181964088Y-143847990D01*
X182000500Y-143618097D01*
X182000500Y-143381902D01*
X181963553Y-143148631D01*
X181917592Y-143007180D01*
X181890568Y-142924008D01*
X181890566Y-142924005D01*
X181890566Y-142924003D01*
X181783342Y-142713566D01*
X181774992Y-142702073D01*
X181644517Y-142522490D01*
X181477510Y-142355483D01*
X181286433Y-142216657D01*
X181227141Y-142186446D01*
X181075996Y-142109433D01*
X180851368Y-142036446D01*
X180618097Y-141999500D01*
X180618092Y-141999500D01*
X180381908Y-141999500D01*
X180381903Y-141999500D01*
X180148631Y-142036446D01*
X179924003Y-142109433D01*
X179713566Y-142216657D01*
X179604550Y-142295862D01*
X179522490Y-142355483D01*
X179522488Y-142355485D01*
X179522487Y-142355485D01*
X179355485Y-142522487D01*
X179355485Y-142522488D01*
X179355483Y-142522490D01*
X179335632Y-142549813D01*
X179216657Y-142713566D01*
X179109433Y-142924003D01*
X179036446Y-143148631D01*
X178999500Y-143381902D01*
X178999500Y-143618097D01*
X179036446Y-143851368D01*
X179109433Y-144075996D01*
X179144463Y-144144745D01*
X179216657Y-144286433D01*
X179355483Y-144477510D01*
X179522490Y-144644517D01*
X179648388Y-144735987D01*
X179691051Y-144791313D01*
X179699500Y-144836302D01*
X179699500Y-149574789D01*
X179679815Y-149641828D01*
X179656198Y-149668937D01*
X177005198Y-151941222D01*
X176941487Y-151969905D01*
X176872383Y-151959590D01*
X176819826Y-151913552D01*
X176800500Y-151847074D01*
X176800500Y-140924500D01*
X176820185Y-140857461D01*
X176872989Y-140811706D01*
X176924500Y-140800500D01*
X178875501Y-140800500D01*
X178942540Y-140820185D01*
X178988295Y-140872989D01*
X178999501Y-140924500D01*
X178999501Y-140993098D01*
X179005079Y-141039557D01*
X179010123Y-141081562D01*
X179065639Y-141222342D01*
X179065640Y-141222344D01*
X179157077Y-141342922D01*
X179265973Y-141425500D01*
X179277658Y-141434361D01*
X179418436Y-141489876D01*
X179506901Y-141500500D01*
X181493098Y-141500499D01*
X181581564Y-141489876D01*
X181722342Y-141434361D01*
X181842922Y-141342922D01*
X181934361Y-141222342D01*
X181989876Y-141081564D01*
X182000500Y-140993099D01*
X182000499Y-139006902D01*
X181989876Y-138918436D01*
X181934361Y-138777658D01*
X181934359Y-138777655D01*
X181842922Y-138657077D01*
X181722344Y-138565640D01*
X181722342Y-138565639D01*
X181581564Y-138510124D01*
X181581561Y-138510123D01*
X181493099Y-138499500D01*
X179506908Y-138499500D01*
X179418437Y-138510123D01*
X179277657Y-138565639D01*
X179277655Y-138565640D01*
X179157077Y-138657077D01*
X179065640Y-138777655D01*
X179065639Y-138777658D01*
X179018265Y-138897793D01*
X179010124Y-138918437D01*
X179010123Y-138918438D01*
X178999500Y-139006900D01*
X178999500Y-139075500D01*
X178979815Y-139142539D01*
X178927011Y-139188294D01*
X178875500Y-139199500D01*
X175921155Y-139199500D01*
X175766510Y-139230261D01*
X175766498Y-139230264D01*
X175620827Y-139290602D01*
X175620814Y-139290609D01*
X175489711Y-139378210D01*
X175489707Y-139378213D01*
X175378213Y-139489707D01*
X175378210Y-139489711D01*
X175290609Y-139620814D01*
X175290602Y-139620827D01*
X175230264Y-139766498D01*
X175230261Y-139766510D01*
X175199500Y-139921153D01*
X175199500Y-151075500D01*
X175179815Y-151142539D01*
X175127011Y-151188294D01*
X175075500Y-151199500D01*
X158924500Y-151199500D01*
X158857461Y-151179815D01*
X158811706Y-151127011D01*
X158800500Y-151075500D01*
X158800500Y-148271893D01*
X158820185Y-148204854D01*
X158872989Y-148159099D01*
X158910213Y-148148718D01*
X158919991Y-148147585D01*
X159022765Y-148102206D01*
X159102206Y-148022765D01*
X159147585Y-147919991D01*
X159150500Y-147894865D01*
X159150499Y-147542807D01*
X159170183Y-147475771D01*
X159222987Y-147430016D01*
X159292146Y-147420072D01*
X159355701Y-147449097D01*
X159384984Y-147486515D01*
X159470905Y-147655145D01*
X159496319Y-147690125D01*
X159496320Y-147690125D01*
X160057037Y-147129408D01*
X160074075Y-147192993D01*
X160139901Y-147307007D01*
X160232993Y-147400099D01*
X160347007Y-147465925D01*
X160410590Y-147482962D01*
X159849873Y-148043677D01*
X159849873Y-148043678D01*
X159884858Y-148069096D01*
X160060164Y-148158418D01*
X160247294Y-148219221D01*
X160441618Y-148250000D01*
X160638382Y-148250000D01*
X160832705Y-148219221D01*
X161019835Y-148158418D01*
X161195143Y-148069095D01*
X161230125Y-148043678D01*
X161230126Y-148043678D01*
X160669410Y-147482962D01*
X160732993Y-147465925D01*
X160847007Y-147400099D01*
X160940099Y-147307007D01*
X161005925Y-147192993D01*
X161022962Y-147129410D01*
X161583678Y-147690126D01*
X161583678Y-147690125D01*
X161609095Y-147655143D01*
X161698418Y-147479835D01*
X161744378Y-147338387D01*
X161783815Y-147280712D01*
X161848174Y-147253513D01*
X161917020Y-147265428D01*
X161968496Y-147312672D01*
X161980240Y-147338387D01*
X162013787Y-147441636D01*
X162013788Y-147441639D01*
X162096006Y-147602997D01*
X162202441Y-147749494D01*
X162202445Y-147749499D01*
X162330500Y-147877554D01*
X162330505Y-147877558D01*
X162388910Y-147919991D01*
X162477006Y-147983996D01*
X162553094Y-148022765D01*
X162638360Y-148066211D01*
X162638363Y-148066212D01*
X162724476Y-148094191D01*
X162810591Y-148122171D01*
X162893429Y-148135291D01*
X162989449Y-148150500D01*
X162989454Y-148150500D01*
X163170551Y-148150500D01*
X163257259Y-148136765D01*
X163349409Y-148122171D01*
X163521639Y-148066211D01*
X163682994Y-147983996D01*
X163829501Y-147877553D01*
X163957553Y-147749501D01*
X164063996Y-147602994D01*
X164146211Y-147441639D01*
X164202171Y-147269409D01*
X164216422Y-147179425D01*
X164227527Y-147109321D01*
X164257456Y-147046186D01*
X164316768Y-147009255D01*
X164386630Y-147010253D01*
X164444863Y-147048863D01*
X164472473Y-147109321D01*
X164497829Y-147269410D01*
X164553787Y-147441636D01*
X164553788Y-147441639D01*
X164636006Y-147602997D01*
X164742441Y-147749494D01*
X164742445Y-147749499D01*
X164870500Y-147877554D01*
X164870505Y-147877558D01*
X164928910Y-147919991D01*
X165017006Y-147983996D01*
X165093094Y-148022765D01*
X165178360Y-148066211D01*
X165178363Y-148066212D01*
X165264476Y-148094191D01*
X165350591Y-148122171D01*
X165433429Y-148135291D01*
X165529449Y-148150500D01*
X165529454Y-148150500D01*
X165710551Y-148150500D01*
X165797259Y-148136765D01*
X165889409Y-148122171D01*
X166061639Y-148066211D01*
X166222994Y-147983996D01*
X166369501Y-147877553D01*
X166497553Y-147749501D01*
X166603996Y-147602994D01*
X166686211Y-147441639D01*
X166742171Y-147269409D01*
X166756765Y-147177259D01*
X166770500Y-147090551D01*
X166770500Y-146909448D01*
X166744797Y-146747172D01*
X166742171Y-146730591D01*
X166699708Y-146599901D01*
X166686212Y-146558363D01*
X166686211Y-146558360D01*
X166632942Y-146453816D01*
X166603996Y-146397006D01*
X166566109Y-146344859D01*
X166497558Y-146250505D01*
X166497554Y-146250500D01*
X166369499Y-146122445D01*
X166369494Y-146122441D01*
X166222997Y-146016006D01*
X166222996Y-146016005D01*
X166222994Y-146016004D01*
X166146906Y-145977235D01*
X166061639Y-145933788D01*
X166061636Y-145933787D01*
X165889410Y-145877829D01*
X165710551Y-145849500D01*
X165710546Y-145849500D01*
X165529454Y-145849500D01*
X165529449Y-145849500D01*
X165350589Y-145877829D01*
X165178363Y-145933787D01*
X165178360Y-145933788D01*
X165017002Y-146016006D01*
X164870505Y-146122441D01*
X164870500Y-146122445D01*
X164742445Y-146250500D01*
X164742441Y-146250505D01*
X164636006Y-146397002D01*
X164553788Y-146558360D01*
X164553787Y-146558363D01*
X164497829Y-146730589D01*
X164472473Y-146890678D01*
X164442544Y-146953813D01*
X164383232Y-146990744D01*
X164313369Y-146989746D01*
X164255137Y-146951136D01*
X164227527Y-146890678D01*
X164204797Y-146747172D01*
X164202171Y-146730591D01*
X164159708Y-146599901D01*
X164146212Y-146558363D01*
X164146211Y-146558360D01*
X164092942Y-146453816D01*
X164063996Y-146397006D01*
X164026109Y-146344859D01*
X163957558Y-146250505D01*
X163957554Y-146250500D01*
X163829499Y-146122445D01*
X163829494Y-146122441D01*
X163682997Y-146016006D01*
X163682996Y-146016005D01*
X163682994Y-146016004D01*
X163606906Y-145977235D01*
X163521639Y-145933788D01*
X163521636Y-145933787D01*
X163349410Y-145877829D01*
X163170551Y-145849500D01*
X163170546Y-145849500D01*
X163094773Y-145849500D01*
X163027734Y-145829815D01*
X162988805Y-145789896D01*
X162923843Y-145682997D01*
X161973645Y-144119379D01*
X161940509Y-144061985D01*
X161936070Y-144057546D01*
X161932808Y-144052178D01*
X161932807Y-144052176D01*
X161885884Y-144007316D01*
X161885883Y-144007315D01*
X161884881Y-144006357D01*
X161838015Y-143959491D01*
X161832576Y-143956351D01*
X161828037Y-143952011D01*
X161828038Y-143952011D01*
X161771112Y-143920828D01*
X161771112Y-143920829D01*
X161769902Y-143920166D01*
X161712485Y-143887016D01*
X161706416Y-143885390D01*
X161700911Y-143882374D01*
X161700908Y-143882373D01*
X161637863Y-143866988D01*
X161635226Y-143866313D01*
X161572475Y-143849500D01*
X161566321Y-143848690D01*
X161560095Y-143848012D01*
X161495229Y-143849469D01*
X161492445Y-143849500D01*
X151132783Y-143849500D01*
X151113493Y-143847990D01*
X149417292Y-143580870D01*
X149354131Y-143550997D01*
X149322021Y-143505832D01*
X149271549Y-143383980D01*
X149271547Y-143383976D01*
X149181211Y-143248779D01*
X149181205Y-143248771D01*
X149066228Y-143133794D01*
X149066220Y-143133788D01*
X148931023Y-143043452D01*
X148931019Y-143043450D01*
X148780793Y-142981225D01*
X148780783Y-142981222D01*
X148621307Y-142949500D01*
X148621305Y-142949500D01*
X148458695Y-142949500D01*
X148458693Y-142949500D01*
X148299216Y-142981222D01*
X148299206Y-142981225D01*
X148148980Y-143043450D01*
X148148976Y-143043452D01*
X148013779Y-143133788D01*
X148013771Y-143133794D01*
X147992681Y-143154885D01*
X147931358Y-143188370D01*
X147861666Y-143183386D01*
X147817319Y-143154885D01*
X147800629Y-143138195D01*
X147767144Y-143076872D01*
X147772128Y-143007180D01*
X147814000Y-142951247D01*
X147820026Y-142947009D01*
X150096593Y-141445976D01*
X150163397Y-141425509D01*
X150164850Y-141425500D01*
X150481382Y-141425500D01*
X150548421Y-141445185D01*
X150594176Y-141497989D01*
X150604496Y-141534713D01*
X150606632Y-141552489D01*
X150610122Y-141581561D01*
X150665639Y-141722343D01*
X150757077Y-141842922D01*
X150877656Y-141934360D01*
X150877657Y-141934360D01*
X150877658Y-141934361D01*
X151018436Y-141989877D01*
X151106898Y-142000500D01*
X151106903Y-142000500D01*
X151893097Y-142000500D01*
X151893102Y-142000500D01*
X151981564Y-141989877D01*
X152122342Y-141934361D01*
X152242922Y-141842922D01*
X152334361Y-141722342D01*
X152334363Y-141722336D01*
X152336959Y-141717721D01*
X152386973Y-141668932D01*
X152455425Y-141654928D01*
X152520582Y-141680155D01*
X152551778Y-141715372D01*
X152632314Y-141851552D01*
X152632321Y-141851561D01*
X152748438Y-141967678D01*
X152748447Y-141967685D01*
X152889803Y-142051282D01*
X152889806Y-142051283D01*
X153047504Y-142097099D01*
X153047510Y-142097100D01*
X153084350Y-142099999D01*
X153084366Y-142100000D01*
X153250000Y-142100000D01*
X153750000Y-142100000D01*
X153915634Y-142100000D01*
X153915649Y-142099999D01*
X153952489Y-142097100D01*
X153952495Y-142097099D01*
X154110193Y-142051283D01*
X154110196Y-142051282D01*
X154251552Y-141967685D01*
X154251561Y-141967678D01*
X154367678Y-141851561D01*
X154367685Y-141851552D01*
X154451282Y-141710196D01*
X154451283Y-141710193D01*
X154497099Y-141552495D01*
X154497100Y-141552489D01*
X154499999Y-141515649D01*
X154500000Y-141515634D01*
X154500000Y-141250000D01*
X153750000Y-141250000D01*
X153750000Y-142100000D01*
X153250000Y-142100000D01*
X153250000Y-140750000D01*
X153750000Y-140750000D01*
X154500000Y-140750000D01*
X154500000Y-140484365D01*
X154499999Y-140484350D01*
X154497100Y-140447510D01*
X154497099Y-140447504D01*
X154451283Y-140289806D01*
X154451282Y-140289803D01*
X154367685Y-140148447D01*
X154367678Y-140148438D01*
X154251561Y-140032321D01*
X154251552Y-140032314D01*
X154110196Y-139948717D01*
X154110193Y-139948716D01*
X153952495Y-139902900D01*
X153952489Y-139902899D01*
X153915649Y-139900000D01*
X153750000Y-139900000D01*
X153750000Y-140750000D01*
X153250000Y-140750000D01*
X153250000Y-139900000D01*
X153084350Y-139900000D01*
X153047510Y-139902899D01*
X153047504Y-139902900D01*
X152889806Y-139948716D01*
X152889803Y-139948717D01*
X152748447Y-140032314D01*
X152748438Y-140032321D01*
X152632321Y-140148438D01*
X152632314Y-140148447D01*
X152551778Y-140284627D01*
X152500709Y-140332311D01*
X152431967Y-140344814D01*
X152367378Y-140318168D01*
X152336961Y-140282282D01*
X152334360Y-140277656D01*
X152242922Y-140157077D01*
X152122343Y-140065639D01*
X152026192Y-140027722D01*
X151981564Y-140010123D01*
X151981563Y-140010122D01*
X151981561Y-140010122D01*
X151935926Y-140004642D01*
X151893102Y-139999500D01*
X151106898Y-139999500D01*
X151067853Y-140004188D01*
X151018438Y-140010122D01*
X150877656Y-140065639D01*
X150757077Y-140157077D01*
X150665638Y-140277657D01*
X150664854Y-140279648D01*
X150663648Y-140281197D01*
X150661481Y-140285052D01*
X150660902Y-140284726D01*
X150657286Y-140289374D01*
X150653815Y-140301195D01*
X150636235Y-140316427D01*
X150621947Y-140334791D01*
X150610322Y-140338881D01*
X150601011Y-140346950D01*
X150577982Y-140350261D01*
X150556038Y-140357983D01*
X150544050Y-140355140D01*
X150531853Y-140356894D01*
X150510689Y-140347228D01*
X150488054Y-140341861D01*
X150479505Y-140332987D01*
X150468297Y-140327869D01*
X150455718Y-140308295D01*
X150439579Y-140291543D01*
X150436261Y-140278020D01*
X150430523Y-140269091D01*
X150425500Y-140234156D01*
X150425500Y-140018618D01*
X150445185Y-139951579D01*
X150497989Y-139905824D01*
X150534713Y-139895503D01*
X150581564Y-139889877D01*
X150722342Y-139834361D01*
X150842922Y-139742922D01*
X150934361Y-139622342D01*
X150989877Y-139481564D01*
X151000500Y-139393102D01*
X151000500Y-138606898D01*
X150989877Y-138518436D01*
X150934361Y-138377658D01*
X150934360Y-138377657D01*
X150934360Y-138377656D01*
X150842922Y-138257077D01*
X150722343Y-138165639D01*
X150684339Y-138150652D01*
X150594826Y-138115353D01*
X150539685Y-138072449D01*
X150516492Y-138006541D01*
X150532612Y-137938557D01*
X150582929Y-137890080D01*
X150594814Y-137884651D01*
X150722342Y-137834361D01*
X150842922Y-137742922D01*
X150934361Y-137622342D01*
X150989877Y-137481564D01*
X151000500Y-137393102D01*
X151000500Y-136606898D01*
X150989877Y-136518436D01*
X150934361Y-136377658D01*
X150934360Y-136377657D01*
X150934360Y-136377656D01*
X150842922Y-136257077D01*
X150722343Y-136165639D01*
X150649336Y-136136849D01*
X150581564Y-136110123D01*
X150581562Y-136110122D01*
X150581558Y-136110121D01*
X150534715Y-136104496D01*
X150470501Y-136076959D01*
X150431368Y-136019076D01*
X150425500Y-135981381D01*
X150425500Y-130118498D01*
X150445185Y-130051459D01*
X150497989Y-130005704D01*
X150564281Y-129995382D01*
X150606898Y-130000500D01*
X150606905Y-130000500D01*
X151393097Y-130000500D01*
X151393102Y-130000500D01*
X151481564Y-129989877D01*
X151622342Y-129934361D01*
X151742922Y-129842922D01*
X151834361Y-129722342D01*
X151884646Y-129594826D01*
X151927551Y-129539685D01*
X151993459Y-129516492D01*
X152061443Y-129532612D01*
X152109920Y-129582929D01*
X152115348Y-129594814D01*
X152150652Y-129684339D01*
X152165639Y-129722343D01*
X152257077Y-129842922D01*
X152377656Y-129934360D01*
X152377657Y-129934360D01*
X152377658Y-129934361D01*
X152518436Y-129989877D01*
X152606898Y-130000500D01*
X152606903Y-130000500D01*
X153393097Y-130000500D01*
X153393102Y-130000500D01*
X153481564Y-129989877D01*
X153622342Y-129934361D01*
X153742922Y-129842922D01*
X153834361Y-129722342D01*
X153834363Y-129722336D01*
X153836959Y-129717721D01*
X153886973Y-129668932D01*
X153955425Y-129654928D01*
X154020582Y-129680155D01*
X154051778Y-129715372D01*
X154132314Y-129851552D01*
X154132321Y-129851561D01*
X154248438Y-129967678D01*
X154248447Y-129967685D01*
X154389803Y-130051282D01*
X154389806Y-130051283D01*
X154547504Y-130097099D01*
X154547510Y-130097100D01*
X154584350Y-130099999D01*
X154584366Y-130100000D01*
X154750000Y-130100000D01*
X155250000Y-130100000D01*
X155415634Y-130100000D01*
X155415649Y-130099999D01*
X155452489Y-130097100D01*
X155452495Y-130097099D01*
X155610193Y-130051283D01*
X155610196Y-130051282D01*
X155751552Y-129967685D01*
X155751561Y-129967678D01*
X155867678Y-129851561D01*
X155867685Y-129851552D01*
X155951282Y-129710196D01*
X155951283Y-129710193D01*
X155997099Y-129552495D01*
X155997100Y-129552489D01*
X155999999Y-129515649D01*
X156000000Y-129515634D01*
X156000000Y-129250000D01*
X155250000Y-129250000D01*
X155250000Y-130100000D01*
X154750000Y-130100000D01*
X154750000Y-128750000D01*
X155250000Y-128750000D01*
X156000000Y-128750000D01*
X156000000Y-128484365D01*
X155999999Y-128484350D01*
X155997100Y-128447510D01*
X155997099Y-128447504D01*
X155951283Y-128289806D01*
X155951282Y-128289803D01*
X155867685Y-128148447D01*
X155867678Y-128148438D01*
X155751561Y-128032321D01*
X155751552Y-128032314D01*
X155610196Y-127948717D01*
X155610193Y-127948716D01*
X155452495Y-127902900D01*
X155452489Y-127902899D01*
X155415649Y-127900000D01*
X155250000Y-127900000D01*
X155250000Y-128750000D01*
X154750000Y-128750000D01*
X154750000Y-127900000D01*
X154584350Y-127900000D01*
X154547510Y-127902899D01*
X154547504Y-127902900D01*
X154389806Y-127948716D01*
X154389803Y-127948717D01*
X154248447Y-128032314D01*
X154248438Y-128032321D01*
X154132321Y-128148438D01*
X154132314Y-128148447D01*
X154051778Y-128284627D01*
X154000709Y-128332311D01*
X153931967Y-128344814D01*
X153867378Y-128318168D01*
X153836961Y-128282282D01*
X153834360Y-128277656D01*
X153742922Y-128157077D01*
X153622343Y-128065639D01*
X153481561Y-128010122D01*
X153435713Y-128004617D01*
X153393102Y-127999500D01*
X152606898Y-127999500D01*
X152592170Y-128001268D01*
X152564281Y-128004617D01*
X152495374Y-127993064D01*
X152443650Y-127946091D01*
X152425500Y-127881501D01*
X152425500Y-126549500D01*
X152445185Y-126482461D01*
X152497989Y-126436706D01*
X152549500Y-126425500D01*
X156623001Y-126425500D01*
X156690040Y-126445185D01*
X156735795Y-126497989D01*
X156747001Y-126549500D01*
X156747001Y-127044856D01*
X156747002Y-127044882D01*
X156749913Y-127069987D01*
X156749915Y-127069991D01*
X156795293Y-127172764D01*
X156795294Y-127172765D01*
X156874735Y-127252206D01*
X156977509Y-127297585D01*
X157002635Y-127300500D01*
X158997364Y-127300499D01*
X158997379Y-127300497D01*
X158997382Y-127300497D01*
X159022487Y-127297586D01*
X159022488Y-127297585D01*
X159022491Y-127297585D01*
X159125265Y-127252206D01*
X159204706Y-127172765D01*
X159250085Y-127069991D01*
X159253000Y-127044865D01*
X159252999Y-126789457D01*
X159272683Y-126722421D01*
X159325487Y-126676666D01*
X159394646Y-126666722D01*
X159458201Y-126695747D01*
X159477317Y-126716574D01*
X159584265Y-126863775D01*
X159723725Y-127003235D01*
X159883285Y-127119162D01*
X159988485Y-127172764D01*
X160059017Y-127208702D01*
X160152801Y-127239174D01*
X160246588Y-127269647D01*
X160336807Y-127283936D01*
X160441382Y-127300500D01*
X160441387Y-127300500D01*
X160638618Y-127300500D01*
X160733052Y-127285542D01*
X160833412Y-127269647D01*
X161020985Y-127208701D01*
X161196715Y-127119162D01*
X161356275Y-127003235D01*
X161495735Y-126863775D01*
X161611662Y-126704215D01*
X161643679Y-126641377D01*
X161691653Y-126590581D01*
X161759474Y-126573786D01*
X161825609Y-126596323D01*
X161864649Y-126641377D01*
X161923238Y-126756364D01*
X162048373Y-126928595D01*
X162048373Y-126928596D01*
X162198903Y-127079126D01*
X162371135Y-127204261D01*
X162560822Y-127300912D01*
X162763282Y-127366695D01*
X162830000Y-127377261D01*
X162830000Y-126490747D01*
X162867708Y-126512518D01*
X163007591Y-126550000D01*
X163152409Y-126550000D01*
X163292292Y-126512518D01*
X163330000Y-126490747D01*
X163330000Y-127377260D01*
X163396717Y-127366695D01*
X163599177Y-127300912D01*
X163788864Y-127204261D01*
X163961095Y-127079126D01*
X163961096Y-127079126D01*
X164111626Y-126928596D01*
X164111626Y-126928595D01*
X164236761Y-126756364D01*
X164333412Y-126566677D01*
X164399196Y-126364212D01*
X164417286Y-126250000D01*
X163570748Y-126250000D01*
X163592518Y-126212292D01*
X163630000Y-126072409D01*
X163630000Y-125927591D01*
X163592518Y-125787708D01*
X163570748Y-125750000D01*
X164417286Y-125750000D01*
X164399196Y-125635787D01*
X164333412Y-125433322D01*
X164236761Y-125243635D01*
X164111626Y-125071404D01*
X164111626Y-125071403D01*
X163961096Y-124920873D01*
X163788864Y-124795738D01*
X163599177Y-124699087D01*
X163396713Y-124633303D01*
X163330000Y-124622736D01*
X163330000Y-125509252D01*
X163292292Y-125487482D01*
X163152409Y-125450000D01*
X163007591Y-125450000D01*
X162867708Y-125487482D01*
X162830000Y-125509252D01*
X162830000Y-124622736D01*
X162763287Y-124633303D01*
X162763284Y-124633303D01*
X162560822Y-124699087D01*
X162371135Y-124795738D01*
X162198904Y-124920873D01*
X162198903Y-124920873D01*
X162048373Y-125071403D01*
X162048373Y-125071404D01*
X161923234Y-125243640D01*
X161864648Y-125358622D01*
X161816674Y-125409418D01*
X161748853Y-125426213D01*
X161682718Y-125403675D01*
X161643679Y-125358622D01*
X161630150Y-125332070D01*
X161611662Y-125295785D01*
X161495735Y-125136225D01*
X161376818Y-125017308D01*
X161343334Y-124955985D01*
X161340500Y-124929627D01*
X161340500Y-123724500D01*
X161360185Y-123657461D01*
X161412989Y-123611706D01*
X161464500Y-123600500D01*
X165993675Y-123600500D01*
X165995385Y-123600512D01*
X179151944Y-123781981D01*
X179218705Y-123802588D01*
X179250548Y-123833080D01*
X179355483Y-123977510D01*
X179522490Y-124144517D01*
X179713567Y-124283343D01*
X179812991Y-124334002D01*
X179924003Y-124390566D01*
X179924005Y-124390566D01*
X179924008Y-124390568D01*
X180044412Y-124429689D01*
X180148631Y-124463553D01*
X180381903Y-124500500D01*
X180381908Y-124500500D01*
X180618097Y-124500500D01*
X180851368Y-124463553D01*
X180860490Y-124460589D01*
X181075992Y-124390568D01*
X181286433Y-124283343D01*
X181477510Y-124144517D01*
X181644517Y-123977510D01*
X181783343Y-123786433D01*
X181890568Y-123575992D01*
X181963553Y-123351368D01*
X181969761Y-123312170D01*
X182000500Y-123118097D01*
X182000500Y-122881902D01*
X181963553Y-122648631D01*
X181902071Y-122459410D01*
X181890568Y-122424008D01*
X181890566Y-122424005D01*
X181890566Y-122424003D01*
X181783342Y-122213566D01*
X181644517Y-122022490D01*
X181477510Y-121855483D01*
X181286433Y-121716657D01*
X181075996Y-121609433D01*
X180851368Y-121536446D01*
X180618097Y-121499500D01*
X180618092Y-121499500D01*
X180381908Y-121499500D01*
X180381903Y-121499500D01*
X180148631Y-121536446D01*
X179924003Y-121609433D01*
X179713566Y-121716657D01*
X179604550Y-121795862D01*
X179522490Y-121855483D01*
X179522488Y-121855485D01*
X179522487Y-121855485D01*
X179355482Y-122022490D01*
X179277334Y-122130050D01*
X179222003Y-122172715D01*
X179175307Y-122181151D01*
X166095649Y-122000742D01*
X166095649Y-122000741D01*
X166084299Y-122000584D01*
X166078842Y-121999500D01*
X166005509Y-121999500D01*
X166004637Y-121999488D01*
X166004633Y-121999488D01*
X165932211Y-121998489D01*
X165932210Y-121998489D01*
X165932206Y-121998489D01*
X165932201Y-121998489D01*
X165926136Y-121999003D01*
X165926094Y-121998518D01*
X165915381Y-121999500D01*
X160461155Y-121999500D01*
X160306510Y-122030261D01*
X160306498Y-122030264D01*
X160160827Y-122090602D01*
X160160814Y-122090609D01*
X160029711Y-122178210D01*
X160029707Y-122178213D01*
X159918213Y-122289707D01*
X159918210Y-122289711D01*
X159830609Y-122420814D01*
X159830602Y-122420827D01*
X159770264Y-122566498D01*
X159770261Y-122566510D01*
X159739500Y-122721153D01*
X159739500Y-124929627D01*
X159719815Y-124996666D01*
X159703182Y-125017308D01*
X159584264Y-125136226D01*
X159477317Y-125283426D01*
X159421987Y-125326091D01*
X159352373Y-125332070D01*
X159290578Y-125299464D01*
X159256221Y-125238625D01*
X159252999Y-125210540D01*
X159252999Y-124955143D01*
X159252999Y-124955136D01*
X159251493Y-124942147D01*
X159250086Y-124930012D01*
X159250085Y-124930010D01*
X159250085Y-124930009D01*
X159204706Y-124827235D01*
X159125265Y-124747794D01*
X159125263Y-124747793D01*
X159022492Y-124702415D01*
X158997365Y-124699500D01*
X157002643Y-124699500D01*
X157002617Y-124699502D01*
X156977512Y-124702413D01*
X156977508Y-124702415D01*
X156874735Y-124747793D01*
X156795294Y-124827234D01*
X156749915Y-124930006D01*
X156749915Y-124930008D01*
X156747000Y-124955131D01*
X156747000Y-125450500D01*
X156727315Y-125517539D01*
X156674511Y-125563294D01*
X156623000Y-125574500D01*
X151943982Y-125574500D01*
X151835763Y-125603497D01*
X151835760Y-125603498D01*
X151738740Y-125659513D01*
X151738734Y-125659517D01*
X151659517Y-125738734D01*
X151659513Y-125738740D01*
X151603498Y-125835760D01*
X151603497Y-125835763D01*
X151574500Y-125943982D01*
X151574500Y-127881501D01*
X151554815Y-127948540D01*
X151502011Y-127994295D01*
X151435719Y-128004617D01*
X151407829Y-128001268D01*
X151393102Y-127999500D01*
X150606898Y-127999500D01*
X150592170Y-128001268D01*
X150564281Y-128004617D01*
X150495374Y-127993064D01*
X150443650Y-127946091D01*
X150425500Y-127881501D01*
X150425500Y-125515664D01*
X150428467Y-125475413D01*
X150425500Y-125459836D01*
X150425500Y-125443982D01*
X150415054Y-125404996D01*
X150407503Y-125365355D01*
X150400607Y-125351079D01*
X150396503Y-125335763D01*
X150378603Y-125304761D01*
X150374344Y-125296714D01*
X150358770Y-125264473D01*
X150356052Y-125261322D01*
X150356052Y-125261321D01*
X150348409Y-125252462D01*
X150340485Y-125238737D01*
X150311951Y-125210203D01*
X150285586Y-125179642D01*
X150272473Y-125170725D01*
X150261263Y-125159515D01*
X150226315Y-125139337D01*
X150158322Y-125093102D01*
X147282152Y-123137307D01*
X147264197Y-123122449D01*
X147261265Y-123119517D01*
X147261259Y-123119512D01*
X147230270Y-123101621D01*
X147222544Y-123096773D01*
X147192943Y-123076645D01*
X147192940Y-123076643D01*
X147189015Y-123075275D01*
X147189015Y-123075274D01*
X147177963Y-123071421D01*
X147164237Y-123063497D01*
X147125269Y-123053055D01*
X147120942Y-123051547D01*
X147120941Y-123051546D01*
X147087147Y-123039769D01*
X147087140Y-123039768D01*
X147083002Y-123039463D01*
X147083002Y-123039462D01*
X147071324Y-123038601D01*
X147056018Y-123034500D01*
X147015689Y-123034500D01*
X147011144Y-123034165D01*
X147011121Y-123034165D01*
X147000918Y-123033413D01*
X146975413Y-123031533D01*
X146975411Y-123031533D01*
X146975409Y-123031533D01*
X146971336Y-123032309D01*
X146948131Y-123034500D01*
X146671896Y-123034500D01*
X146663825Y-123032130D01*
X146655511Y-123033413D01*
X146630797Y-123022432D01*
X146604857Y-123014815D01*
X146599349Y-123008458D01*
X146591660Y-123005042D01*
X146576806Y-122982442D01*
X146559102Y-122962011D01*
X146557904Y-122953685D01*
X146553284Y-122946655D01*
X146553006Y-122919615D01*
X146549158Y-122892853D01*
X146552633Y-122883385D01*
X146552566Y-122876789D01*
X146562789Y-122855722D01*
X146566897Y-122844536D01*
X146569122Y-122840993D01*
X146603996Y-122792994D01*
X146624248Y-122753246D01*
X146627208Y-122748536D01*
X146649373Y-122728927D01*
X146669697Y-122707409D01*
X146675460Y-122705850D01*
X146679540Y-122702241D01*
X146701099Y-122698914D01*
X146732207Y-122690500D01*
X147462386Y-122690500D01*
X147529425Y-122710185D01*
X147575180Y-122762989D01*
X147582495Y-122789023D01*
X147583173Y-122788852D01*
X147585120Y-122796556D01*
X147640639Y-122937343D01*
X147732077Y-123057922D01*
X147852656Y-123149360D01*
X147852657Y-123149360D01*
X147852658Y-123149361D01*
X147993436Y-123204877D01*
X148081898Y-123215500D01*
X148081903Y-123215500D01*
X148843097Y-123215500D01*
X148843102Y-123215500D01*
X148931564Y-123204877D01*
X149072342Y-123149361D01*
X149192922Y-123057922D01*
X149284361Y-122937342D01*
X149334237Y-122810864D01*
X149377141Y-122755724D01*
X149443048Y-122732530D01*
X149511033Y-122748650D01*
X149559510Y-122798967D01*
X149568666Y-122821762D01*
X149598715Y-122925193D01*
X149598717Y-122925196D01*
X149682314Y-123066552D01*
X149682321Y-123066561D01*
X149798438Y-123182678D01*
X149798447Y-123182685D01*
X149939803Y-123266282D01*
X149939806Y-123266283D01*
X150097504Y-123312099D01*
X150097510Y-123312100D01*
X150134350Y-123314999D01*
X150134366Y-123315000D01*
X150287500Y-123315000D01*
X150787500Y-123315000D01*
X150940634Y-123315000D01*
X150940649Y-123314999D01*
X150977489Y-123312100D01*
X150977495Y-123312099D01*
X151135193Y-123266283D01*
X151135196Y-123266282D01*
X151276552Y-123182685D01*
X151276561Y-123182678D01*
X151392678Y-123066561D01*
X151392685Y-123066552D01*
X151476282Y-122925196D01*
X151476283Y-122925193D01*
X151522099Y-122767495D01*
X151522100Y-122767489D01*
X151524999Y-122730649D01*
X151525000Y-122730634D01*
X151525000Y-122440000D01*
X150787500Y-122440000D01*
X150787500Y-123315000D01*
X150287500Y-123315000D01*
X150287500Y-121940000D01*
X150787500Y-121940000D01*
X151525000Y-121940000D01*
X151525000Y-121649365D01*
X151524999Y-121649350D01*
X151522100Y-121612510D01*
X151522099Y-121612504D01*
X151476283Y-121454806D01*
X151476282Y-121454803D01*
X151392685Y-121313447D01*
X151392678Y-121313438D01*
X151276561Y-121197321D01*
X151276552Y-121197314D01*
X151135196Y-121113717D01*
X151135193Y-121113716D01*
X150977495Y-121067900D01*
X150977489Y-121067899D01*
X150940649Y-121065000D01*
X150787500Y-121065000D01*
X150787500Y-121940000D01*
X150287500Y-121940000D01*
X150287500Y-121065000D01*
X150134350Y-121065000D01*
X150097510Y-121067899D01*
X150097504Y-121067900D01*
X149939806Y-121113716D01*
X149939803Y-121113717D01*
X149798447Y-121197314D01*
X149798438Y-121197321D01*
X149682321Y-121313438D01*
X149682314Y-121313447D01*
X149598717Y-121454803D01*
X149598716Y-121454804D01*
X149568666Y-121558238D01*
X149531059Y-121617123D01*
X149467587Y-121646329D01*
X149398400Y-121636583D01*
X149345466Y-121590978D01*
X149334238Y-121569137D01*
X149289151Y-121454804D01*
X149284361Y-121442657D01*
X149192922Y-121322077D01*
X149072343Y-121230639D01*
X148931561Y-121175122D01*
X148885926Y-121169642D01*
X148843102Y-121164500D01*
X148081898Y-121164500D01*
X148042853Y-121169188D01*
X147993438Y-121175122D01*
X147852656Y-121230639D01*
X147732077Y-121322077D01*
X147640639Y-121442656D01*
X147585120Y-121583443D01*
X147583173Y-121591148D01*
X147581068Y-121590616D01*
X147557972Y-121644490D01*
X147500093Y-121683628D01*
X147462386Y-121689500D01*
X146732207Y-121689500D01*
X146665168Y-121669815D01*
X146621722Y-121621795D01*
X146603996Y-121587006D01*
X146507948Y-121454806D01*
X146497558Y-121440505D01*
X146497554Y-121440500D01*
X146369499Y-121312445D01*
X146369494Y-121312441D01*
X146222997Y-121206006D01*
X146222996Y-121206005D01*
X146222994Y-121206004D01*
X146162385Y-121175122D01*
X146061639Y-121123788D01*
X146061636Y-121123787D01*
X145958387Y-121090240D01*
X145900711Y-121050803D01*
X145873513Y-120986444D01*
X145885428Y-120917598D01*
X145932672Y-120866122D01*
X145958387Y-120854378D01*
X146099835Y-120808418D01*
X146275143Y-120719095D01*
X146310125Y-120693678D01*
X146310126Y-120693678D01*
X145749410Y-120132962D01*
X145812993Y-120115925D01*
X145927007Y-120050099D01*
X146020099Y-119957007D01*
X146085925Y-119842993D01*
X146102962Y-119779409D01*
X146663678Y-120340126D01*
X146663678Y-120340125D01*
X146689095Y-120305143D01*
X146778418Y-120129835D01*
X146839221Y-119942705D01*
X146870000Y-119748382D01*
X146870000Y-119551617D01*
X146839221Y-119357294D01*
X146778418Y-119170164D01*
X146689094Y-118994854D01*
X146688748Y-118994289D01*
X146688681Y-118994044D01*
X146686884Y-118990516D01*
X146687625Y-118990138D01*
X146670504Y-118926844D01*
X146691621Y-118860241D01*
X146745393Y-118815628D01*
X146794476Y-118805500D01*
X147256402Y-118805500D01*
X147268565Y-118808019D01*
X147312261Y-118805500D01*
X147356018Y-118805500D01*
X147356021Y-118805500D01*
X147357066Y-118805362D01*
X147379386Y-118801766D01*
X147380407Y-118801571D01*
X147380415Y-118801571D01*
X147421969Y-118787828D01*
X147464237Y-118776503D01*
X147474992Y-118770293D01*
X147486786Y-118766393D01*
X147486789Y-118766390D01*
X147486792Y-118766390D01*
X147520380Y-118744326D01*
X147520381Y-118744324D01*
X147523363Y-118742366D01*
X147561263Y-118720485D01*
X147570046Y-118711701D01*
X147580427Y-118704883D01*
X147607167Y-118674869D01*
X147612036Y-118669710D01*
X147640485Y-118641263D01*
X147646696Y-118630504D01*
X147654957Y-118621233D01*
X147674615Y-118582147D01*
X147696503Y-118544237D01*
X147696504Y-118544230D01*
X147696900Y-118543277D01*
X147705422Y-118520893D01*
X148938733Y-116068781D01*
X148986442Y-116017737D01*
X149049511Y-116000500D01*
X149393097Y-116000500D01*
X149393102Y-116000500D01*
X149481564Y-115989877D01*
X149622342Y-115934361D01*
X149742922Y-115842922D01*
X149834361Y-115722342D01*
X149884646Y-115594826D01*
X149927551Y-115539685D01*
X149993459Y-115516492D01*
X150061443Y-115532612D01*
X150109920Y-115582929D01*
X150115348Y-115594814D01*
X150150652Y-115684339D01*
X150165639Y-115722343D01*
X150257077Y-115842922D01*
X150377656Y-115934360D01*
X150377657Y-115934360D01*
X150377658Y-115934361D01*
X150518436Y-115989877D01*
X150606898Y-116000500D01*
X150606903Y-116000500D01*
X151393097Y-116000500D01*
X151393102Y-116000500D01*
X151481564Y-115989877D01*
X151622342Y-115934361D01*
X151742922Y-115842922D01*
X151834361Y-115722342D01*
X151884646Y-115594826D01*
X151927551Y-115539685D01*
X151993459Y-115516492D01*
X152061443Y-115532612D01*
X152109920Y-115582929D01*
X152115348Y-115594814D01*
X152150652Y-115684339D01*
X152165639Y-115722343D01*
X152257077Y-115842922D01*
X152377656Y-115934360D01*
X152377657Y-115934360D01*
X152377658Y-115934361D01*
X152518436Y-115989877D01*
X152606898Y-116000500D01*
X152606903Y-116000500D01*
X153393097Y-116000500D01*
X153393102Y-116000500D01*
X153481564Y-115989877D01*
X153622342Y-115934361D01*
X153742922Y-115842922D01*
X153834361Y-115722342D01*
X153834363Y-115722336D01*
X153836959Y-115717721D01*
X153886973Y-115668932D01*
X153955425Y-115654928D01*
X154020582Y-115680155D01*
X154051778Y-115715372D01*
X154132314Y-115851552D01*
X154132321Y-115851561D01*
X154248438Y-115967678D01*
X154248447Y-115967685D01*
X154389803Y-116051282D01*
X154389806Y-116051283D01*
X154547504Y-116097099D01*
X154547510Y-116097100D01*
X154584350Y-116099999D01*
X154584366Y-116100000D01*
X154750000Y-116100000D01*
X155250000Y-116100000D01*
X155415634Y-116100000D01*
X155415649Y-116099999D01*
X155452489Y-116097100D01*
X155452495Y-116097099D01*
X155610193Y-116051283D01*
X155610196Y-116051282D01*
X155751552Y-115967685D01*
X155751561Y-115967678D01*
X155867678Y-115851561D01*
X155867685Y-115851552D01*
X155951282Y-115710196D01*
X155951283Y-115710193D01*
X155997099Y-115552495D01*
X155997100Y-115552489D01*
X155999999Y-115515649D01*
X156000000Y-115515634D01*
X156000000Y-115250000D01*
X155250000Y-115250000D01*
X155250000Y-116100000D01*
X154750000Y-116100000D01*
X154750000Y-114750000D01*
X155250000Y-114750000D01*
X156000000Y-114750000D01*
X156000000Y-114484365D01*
X155999999Y-114484350D01*
X155997100Y-114447510D01*
X155997099Y-114447504D01*
X155951283Y-114289806D01*
X155951282Y-114289803D01*
X155867685Y-114148447D01*
X155867678Y-114148438D01*
X155751561Y-114032321D01*
X155751552Y-114032314D01*
X155610196Y-113948717D01*
X155610193Y-113948716D01*
X155452495Y-113902900D01*
X155452489Y-113902899D01*
X155415649Y-113900000D01*
X155250000Y-113900000D01*
X155250000Y-114750000D01*
X154750000Y-114750000D01*
X154750000Y-113900000D01*
X154584350Y-113900000D01*
X154547510Y-113902899D01*
X154547504Y-113902900D01*
X154389806Y-113948716D01*
X154389803Y-113948717D01*
X154248447Y-114032314D01*
X154248438Y-114032321D01*
X154132321Y-114148438D01*
X154132314Y-114148447D01*
X154051778Y-114284627D01*
X154000709Y-114332311D01*
X153931967Y-114344814D01*
X153867378Y-114318168D01*
X153836961Y-114282282D01*
X153834360Y-114277656D01*
X153742922Y-114157077D01*
X153622343Y-114065639D01*
X153481561Y-114010122D01*
X153435713Y-114004617D01*
X153393102Y-113999500D01*
X152606898Y-113999500D01*
X152592170Y-114001268D01*
X152564281Y-114004617D01*
X152495374Y-113993064D01*
X152443650Y-113946091D01*
X152425500Y-113881501D01*
X152425500Y-112549500D01*
X152445185Y-112482461D01*
X152497989Y-112436706D01*
X152549500Y-112425500D01*
X156623001Y-112425500D01*
X156690040Y-112445185D01*
X156735795Y-112497989D01*
X156747001Y-112549500D01*
X156747001Y-113044856D01*
X156747002Y-113044882D01*
X156749913Y-113069987D01*
X156749915Y-113069991D01*
X156795293Y-113172764D01*
X156795294Y-113172765D01*
X156874735Y-113252206D01*
X156977509Y-113297585D01*
X157002635Y-113300500D01*
X158997364Y-113300499D01*
X158997379Y-113300497D01*
X158997382Y-113300497D01*
X159022487Y-113297586D01*
X159022488Y-113297585D01*
X159022491Y-113297585D01*
X159125265Y-113252206D01*
X159204706Y-113172765D01*
X159250085Y-113069991D01*
X159253000Y-113044865D01*
X159252999Y-112789457D01*
X159272683Y-112722421D01*
X159325487Y-112676666D01*
X159394646Y-112666722D01*
X159458201Y-112695747D01*
X159477317Y-112716574D01*
X159584265Y-112863775D01*
X159723725Y-113003235D01*
X159883285Y-113119162D01*
X159988485Y-113172764D01*
X160059017Y-113208702D01*
X160140549Y-113235193D01*
X160246588Y-113269647D01*
X160328800Y-113282668D01*
X160441382Y-113300500D01*
X160441387Y-113300500D01*
X160638618Y-113300500D01*
X160733052Y-113285542D01*
X160833412Y-113269647D01*
X161020985Y-113208701D01*
X161196715Y-113119162D01*
X161356275Y-113003235D01*
X161495735Y-112863775D01*
X161611662Y-112704215D01*
X161643679Y-112641377D01*
X161691653Y-112590581D01*
X161759474Y-112573786D01*
X161825609Y-112596323D01*
X161864649Y-112641377D01*
X161923238Y-112756364D01*
X162048373Y-112928595D01*
X162048373Y-112928596D01*
X162198903Y-113079126D01*
X162371135Y-113204261D01*
X162560822Y-113300912D01*
X162763282Y-113366695D01*
X162830000Y-113377261D01*
X162830000Y-112490747D01*
X162867708Y-112512518D01*
X163007591Y-112550000D01*
X163152409Y-112550000D01*
X163292292Y-112512518D01*
X163330000Y-112490747D01*
X163330000Y-113377260D01*
X163396717Y-113366695D01*
X163599177Y-113300912D01*
X163788864Y-113204261D01*
X163961095Y-113079126D01*
X163961096Y-113079126D01*
X164111626Y-112928596D01*
X164111626Y-112928595D01*
X164236761Y-112756364D01*
X164333412Y-112566677D01*
X164399196Y-112364212D01*
X164417286Y-112250000D01*
X163570748Y-112250000D01*
X163592518Y-112212292D01*
X163630000Y-112072409D01*
X163630000Y-111927591D01*
X163592518Y-111787708D01*
X163570748Y-111750000D01*
X164417286Y-111750000D01*
X164399196Y-111635787D01*
X164333412Y-111433322D01*
X164236761Y-111243635D01*
X164111626Y-111071404D01*
X164111626Y-111071403D01*
X163961096Y-110920873D01*
X163788864Y-110795738D01*
X163669630Y-110734985D01*
X163618834Y-110687010D01*
X163602039Y-110619189D01*
X163624577Y-110553054D01*
X163679292Y-110509603D01*
X163725925Y-110500500D01*
X167650151Y-110500500D01*
X167717190Y-110520185D01*
X167732242Y-110531564D01*
X173113677Y-115285164D01*
X173157592Y-115323955D01*
X173194805Y-115383091D01*
X173199500Y-115416890D01*
X173199500Y-119578846D01*
X173230261Y-119733489D01*
X173230264Y-119733501D01*
X173290602Y-119879172D01*
X173290609Y-119879185D01*
X173378210Y-120010288D01*
X173378213Y-120010292D01*
X173489707Y-120121786D01*
X173489711Y-120121789D01*
X173620814Y-120209390D01*
X173620827Y-120209397D01*
X173766498Y-120269735D01*
X173766503Y-120269737D01*
X173921153Y-120300499D01*
X173921156Y-120300500D01*
X173921158Y-120300500D01*
X179163696Y-120300500D01*
X179230735Y-120320185D01*
X179264013Y-120351613D01*
X179355483Y-120477510D01*
X179522490Y-120644517D01*
X179713567Y-120783343D01*
X179800144Y-120827456D01*
X179924003Y-120890566D01*
X179924005Y-120890566D01*
X179924008Y-120890568D01*
X180007198Y-120917598D01*
X180148631Y-120963553D01*
X180381903Y-121000500D01*
X180381908Y-121000500D01*
X180618097Y-121000500D01*
X180851368Y-120963553D01*
X180867923Y-120958174D01*
X181075992Y-120890568D01*
X181286433Y-120783343D01*
X181477510Y-120644517D01*
X181644517Y-120477510D01*
X181783343Y-120286433D01*
X181890568Y-120075992D01*
X181963553Y-119851368D01*
X181966247Y-119834360D01*
X182000500Y-119618097D01*
X182000500Y-119381902D01*
X181963553Y-119148631D01*
X181890566Y-118924003D01*
X181821753Y-118788951D01*
X181783343Y-118713567D01*
X181644517Y-118522490D01*
X181477510Y-118355483D01*
X181286433Y-118216657D01*
X181075996Y-118109433D01*
X180851368Y-118036446D01*
X180618097Y-117999500D01*
X180618092Y-117999500D01*
X180381908Y-117999500D01*
X180381903Y-117999500D01*
X180148631Y-118036446D01*
X179924003Y-118109433D01*
X179713566Y-118216657D01*
X179626131Y-118280183D01*
X179522490Y-118355483D01*
X179522488Y-118355485D01*
X179522487Y-118355485D01*
X179355485Y-118522487D01*
X179355485Y-118522488D01*
X179355483Y-118522490D01*
X179294157Y-118606898D01*
X179264014Y-118648386D01*
X179208684Y-118691051D01*
X179163696Y-118699500D01*
X174924500Y-118699500D01*
X174857461Y-118679815D01*
X174811706Y-118627011D01*
X174800500Y-118575500D01*
X174800500Y-115053906D01*
X174803843Y-115029198D01*
X174800500Y-114975230D01*
X174800500Y-114921158D01*
X174800500Y-114921155D01*
X174797265Y-114904896D01*
X174795119Y-114888370D01*
X174794094Y-114871815D01*
X174794093Y-114871811D01*
X174794093Y-114871809D01*
X174794093Y-114871808D01*
X174781264Y-114823240D01*
X174781263Y-114823237D01*
X174780284Y-114819529D01*
X174769737Y-114766503D01*
X174760195Y-114743468D01*
X174753828Y-114719358D01*
X174731771Y-114674225D01*
X174728619Y-114667234D01*
X174709395Y-114620823D01*
X174709390Y-114620815D01*
X174700177Y-114607026D01*
X174700177Y-114607027D01*
X174695538Y-114600084D01*
X174684592Y-114577686D01*
X174651833Y-114534676D01*
X174621789Y-114489711D01*
X174604156Y-114472078D01*
X174589049Y-114452243D01*
X174548523Y-114416445D01*
X174510289Y-114378211D01*
X174496495Y-114368993D01*
X174483303Y-114358834D01*
X168904987Y-109431322D01*
X168551397Y-109118984D01*
X168551396Y-109118983D01*
X168548524Y-109116446D01*
X168510289Y-109078211D01*
X168489555Y-109064356D01*
X168483296Y-109058827D01*
X168483295Y-109058826D01*
X168470870Y-109047852D01*
X168470869Y-109047851D01*
X168461189Y-109042216D01*
X168443063Y-109031664D01*
X168395029Y-108980924D01*
X168382053Y-108912270D01*
X168408253Y-108847499D01*
X168465312Y-108807175D01*
X168505448Y-108800500D01*
X178075500Y-108800500D01*
X178142539Y-108820185D01*
X178188294Y-108872989D01*
X178199500Y-108924500D01*
X178199500Y-116078846D01*
X178230261Y-116233489D01*
X178230264Y-116233501D01*
X178290602Y-116379172D01*
X178290609Y-116379185D01*
X178378210Y-116510288D01*
X178378213Y-116510292D01*
X178489707Y-116621786D01*
X178489711Y-116621789D01*
X178620814Y-116709390D01*
X178620827Y-116709397D01*
X178766498Y-116769735D01*
X178766503Y-116769737D01*
X178899692Y-116796230D01*
X178961603Y-116828614D01*
X178996177Y-116889330D01*
X178999501Y-116917847D01*
X178999501Y-116993098D01*
X179002665Y-117019448D01*
X179010123Y-117081562D01*
X179065639Y-117222342D01*
X179065640Y-117222344D01*
X179157077Y-117342922D01*
X179277655Y-117434359D01*
X179277658Y-117434361D01*
X179418436Y-117489876D01*
X179506901Y-117500500D01*
X181493098Y-117500499D01*
X181581564Y-117489876D01*
X181722342Y-117434361D01*
X181842922Y-117342922D01*
X181934361Y-117222342D01*
X181989876Y-117081564D01*
X182000500Y-116993099D01*
X182000499Y-115006902D01*
X181989876Y-114918436D01*
X181934361Y-114777658D01*
X181925902Y-114766503D01*
X181842922Y-114657077D01*
X181722344Y-114565640D01*
X181722342Y-114565639D01*
X181581564Y-114510124D01*
X181581561Y-114510123D01*
X181493099Y-114499500D01*
X179924500Y-114499500D01*
X179857461Y-114479815D01*
X179811706Y-114427011D01*
X179800500Y-114375500D01*
X179800500Y-107921155D01*
X179800499Y-107921153D01*
X179769738Y-107766510D01*
X179769737Y-107766503D01*
X179769735Y-107766498D01*
X179709397Y-107620827D01*
X179709390Y-107620814D01*
X179621789Y-107489711D01*
X179621786Y-107489707D01*
X179510292Y-107378213D01*
X179510288Y-107378210D01*
X179379185Y-107290609D01*
X179379172Y-107290602D01*
X179233501Y-107230264D01*
X179233489Y-107230261D01*
X179078845Y-107199500D01*
X179078842Y-107199500D01*
X122078842Y-107199500D01*
X121921158Y-107199500D01*
X121921155Y-107199500D01*
X121766510Y-107230261D01*
X121766498Y-107230264D01*
X121620827Y-107290602D01*
X121620814Y-107290609D01*
X121489711Y-107378210D01*
X121489707Y-107378213D01*
X121378213Y-107489707D01*
X121378210Y-107489711D01*
X121290609Y-107620814D01*
X121290602Y-107620827D01*
X121230264Y-107766498D01*
X121230261Y-107766510D01*
X121199500Y-107921153D01*
X121199500Y-123075500D01*
X121179815Y-123142539D01*
X121127011Y-123188294D01*
X121075500Y-123199500D01*
X111174500Y-123199500D01*
X111107461Y-123179815D01*
X111061706Y-123127011D01*
X111050500Y-123075500D01*
X111050500Y-119986521D01*
X111070185Y-119919482D01*
X111122989Y-119873727D01*
X111128990Y-119871174D01*
X111222342Y-119834361D01*
X111342922Y-119742922D01*
X111434361Y-119622342D01*
X111489877Y-119481564D01*
X111500500Y-119393102D01*
X111500500Y-118606898D01*
X111489877Y-118518436D01*
X111434361Y-118377658D01*
X111434360Y-118377657D01*
X111434360Y-118377656D01*
X111342922Y-118257077D01*
X111222343Y-118165639D01*
X111184339Y-118150652D01*
X111094826Y-118115353D01*
X111039685Y-118072449D01*
X111016492Y-118006541D01*
X111032612Y-117938557D01*
X111082929Y-117890080D01*
X111094814Y-117884651D01*
X111222342Y-117834361D01*
X111342922Y-117742922D01*
X111434361Y-117622342D01*
X111489877Y-117481564D01*
X111500500Y-117393102D01*
X111500500Y-116606898D01*
X111489877Y-116518436D01*
X111434361Y-116377658D01*
X111434360Y-116377657D01*
X111434360Y-116377656D01*
X111342922Y-116257077D01*
X111222343Y-116165639D01*
X111149336Y-116136849D01*
X111081564Y-116110123D01*
X111081562Y-116110122D01*
X111081558Y-116110121D01*
X111034715Y-116104496D01*
X110970501Y-116076959D01*
X110931368Y-116019076D01*
X110925500Y-115981381D01*
X110925500Y-113943984D01*
X110925500Y-113943982D01*
X110896503Y-113835763D01*
X110840485Y-113738737D01*
X110761263Y-113659515D01*
X110664237Y-113603497D01*
X110556018Y-113574500D01*
X110556017Y-113574500D01*
X108746537Y-113574500D01*
X108679498Y-113554815D01*
X108636052Y-113506795D01*
X108628859Y-113492678D01*
X108566760Y-113370801D01*
X108455690Y-113217927D01*
X108322073Y-113084310D01*
X108169199Y-112973240D01*
X108000836Y-112887454D01*
X107821118Y-112829059D01*
X107634486Y-112799500D01*
X107634481Y-112799500D01*
X107445519Y-112799500D01*
X107445514Y-112799500D01*
X107258881Y-112829059D01*
X107079163Y-112887454D01*
X106910800Y-112973240D01*
X106849054Y-113018102D01*
X106757927Y-113084310D01*
X106757925Y-113084312D01*
X106757924Y-113084312D01*
X106624312Y-113217924D01*
X106624305Y-113217933D01*
X106524316Y-113355554D01*
X106468986Y-113398220D01*
X106399373Y-113404198D01*
X106337578Y-113371592D01*
X106303221Y-113310753D01*
X106299999Y-113282668D01*
X106299999Y-113068520D01*
X106285164Y-112974850D01*
X106285162Y-112974844D01*
X106227643Y-112861958D01*
X106227636Y-112861949D01*
X106138050Y-112772363D01*
X106138046Y-112772360D01*
X106025144Y-112714833D01*
X105931486Y-112700000D01*
X105250000Y-112700000D01*
X105250000Y-113624722D01*
X105173694Y-113580667D01*
X105059244Y-113550000D01*
X104940756Y-113550000D01*
X104826306Y-113580667D01*
X104750000Y-113624722D01*
X104750000Y-112700000D01*
X104068520Y-112700000D01*
X103974850Y-112714835D01*
X103974844Y-112714837D01*
X103861958Y-112772356D01*
X103861949Y-112772363D01*
X103772363Y-112861949D01*
X103772360Y-112861953D01*
X103714833Y-112974855D01*
X103700000Y-113068513D01*
X100500500Y-113068513D01*
X100500500Y-100624500D01*
X100520185Y-100557461D01*
X100572989Y-100511706D01*
X100624500Y-100500500D01*
X184375500Y-100500500D01*
X184442539Y-100520185D01*
G37*
%TD.AperFunction*%
%TD*%
M02*
