M48
; DRILL file KiCad 10.0.3 date 2026-07-13T12:45:48
; FORMAT={-:-/ absolute / metric / decimal}
; #@! TF.CreationDate,2026-07-13T12:45:48-05:00
; #@! TF.GenerationSoftware,Kicad,Pcbnew,10.0.3
; #@! TF.FileFunction,MixedPlating,1,2
FMAT,2
METRIC
; #@! TA.AperFunction,Plated,PTH,ViaDrill
T1C0.400
; #@! TA.AperFunction,Plated,PTH,ComponentDrill
T2C0.500
; #@! TA.AperFunction,Plated,PTH,ComponentDrill
T3C0.750
; #@! TA.AperFunction,Plated,PTH,ComponentDrill
T4C0.800
; #@! TA.AperFunction,Plated,PTH,ComponentDrill
T5C0.900
; #@! TA.AperFunction,Plated,PTH,ComponentDrill
T6C1.000
; #@! TA.AperFunction,Plated,PTH,ComponentDrill
T7C1.100
; #@! TA.AperFunction,Plated,PTH,ComponentDrill
T8C1.200
; #@! TA.AperFunction,Plated,PTH,ComponentDrill
T9C1.300
; #@! TA.AperFunction,Plated,PTH,ComponentDrill
T10C3.200
%
G90
G05
T1
X110.0Y-110.0
X110.0Y-154.0
X120.0Y-135.0
X125.5Y-141.0
X136.0Y-120.9
X136.0Y-125.5
X136.0Y-145.0
X138.0Y-131.0
X140.0Y-155.0
X144.0Y-146.5
X147.5Y-126.8
X148.96Y-110.8
X160.0Y-157.5
X163.08Y-114.5
X165.0Y-128.5
X174.0Y-111.0
T2
X101.6Y-104.0
X101.6Y-156.0
X102.303Y-102.303
X102.303Y-105.697
X102.303Y-154.303
X102.303Y-157.697
X104.0Y-101.6
X104.0Y-106.4
X104.0Y-153.6
X104.0Y-158.4
X105.697Y-102.303
X105.697Y-105.697
X105.697Y-154.303
X105.697Y-157.697
X106.4Y-104.0
X106.4Y-156.0
X178.6Y-104.0
X178.6Y-156.0
X179.303Y-102.303
X179.303Y-105.697
X179.303Y-154.303
X179.303Y-157.697
X181.0Y-101.6
X181.0Y-106.4
X181.0Y-153.6
X181.0Y-158.4
X182.697Y-102.303
X182.697Y-105.697
X182.697Y-154.303
X182.697Y-157.697
X183.4Y-104.0
X183.4Y-156.0
T3
X146.0Y-144.0
X147.27Y-144.0
X148.54Y-144.0
T4
X116.0Y-126.0
X116.0Y-129.5
T5
X105.0Y-114.0
X107.54Y-114.0
T6
X106.0Y-140.0
X106.0Y-142.54
X106.0Y-145.08
X130.38Y-117.11
X130.38Y-119.65
X130.38Y-122.19
X130.38Y-124.73
X130.38Y-127.27
X130.38Y-129.81
X130.38Y-132.35
X130.38Y-134.89
X145.62Y-117.11
X145.62Y-119.65
X145.62Y-122.19
X145.62Y-124.73
X145.62Y-127.27
X145.62Y-129.81
X145.62Y-132.35
X145.62Y-134.89
X158.0Y-147.0
X160.54Y-147.0
X163.08Y-147.0
X165.62Y-147.0
T7
X158.0Y-112.0
X158.0Y-126.0
X160.54Y-112.0
X160.54Y-126.0
X163.08Y-112.0
X163.08Y-126.0
T8
X168.5Y-156.0
X172.0Y-156.0
X180.5Y-116.0
X180.5Y-119.5
X180.5Y-123.0
X180.5Y-140.0
X180.5Y-143.5
T9
X106.0Y-124.0
X106.0Y-129.08
T10
X104.0Y-104.0
X104.0Y-156.0
X181.0Y-104.0
X181.0Y-156.0
M30
